SplineFontDB: 3.0
FontName: Jaldi-Bold
FullName: Jaldi Bold
FamilyName: Jaldi
Weight: Regular
Copyright: Copyright (c) 2011-2015, Omnibus-Type (www.omnibus-type.com omnibus.type@gmail.com)
Version: 001.001
ItalicAngle: 0
UnderlinePosition: -204
UnderlineWidth: 204
Ascent: 3269
Descent: 827
InvalidEm: 0
sfntRevision: 0x00010041
LayerCount: 2
Layer: 0 1 "Back" 1
Layer: 1 1 "Fore" 0
XUID: [1021 505 -982332716 7974004]
FSType: 0
OS2Version: 3
OS2_WeightWidthSlopeOnly: 0
OS2_UseTypoMetrics: 1
CreationTime: 1421254212
ModificationTime: 1422484260
PfmFamily: 17
TTFWeight: 700
TTFWidth: 5
LineGap: 0
VLineGap: 0
Panose: 2 15 8 4 3 2 2 6 2 3
OS2TypoAscent: 2523
OS2TypoAOffset: 0
OS2TypoDescent: -1569
OS2TypoDOffset: 0
OS2TypoLinegap: 0
OS2WinAscent: 2523
OS2WinAOffset: 0
OS2WinDescent: 1569
OS2WinDOffset: 0
HheadAscent: 2523
HheadAOffset: 0
HheadDescent: -1569
HheadDOffset: 0
OS2SubXSize: 1237
OS2SubYSize: 1143
OS2SubXOff: 0
OS2SubYOff: 139
OS2SupXSize: 1237
OS2SupYSize: 1143
OS2SupXOff: 0
OS2SupYOff: 668
OS2StrikeYSize: 205
OS2StrikeYPos: 598
OS2CapHeight: 0
OS2XHeight: 0
OS2Vendor: 'OMNI'
OS2CodePages: 20000193.00000000
OS2UnicodeRanges: 20008007.00000000.00000000.00000000
Lookup: 1 0 0 "'aalt' Access All Alternates lookup 0" { "'aalt' Access All Alternates lookup 0 subtable"  } ['aalt' ('DFLT' <'dflt' > 'dev2' <'MAR ' 'NEP ' 'dflt' > 'deva' <'MAR ' 'NEP ' 'dflt' > 'grek' <'dflt' > 'latn' <'CAT ' 'GUA ' 'MOL ' 'NLD ' 'PLK ' 'ROM ' 'TRK ' 'dflt' > ) ]
Lookup: 3 0 0 "'aalt' Access All Alternates lookup 1" { "'aalt' Access All Alternates lookup 1 subtable"  } ['aalt' ('DFLT' <'dflt' > 'dev2' <'MAR ' 'NEP ' 'dflt' > 'deva' <'MAR ' 'NEP ' 'dflt' > 'grek' <'dflt' > 'latn' <'CAT ' 'GUA ' 'MOL ' 'NLD ' 'PLK ' 'ROM ' 'TRK ' 'dflt' > ) ]
Lookup: 4 0 0 "Ligature Substitution lookup 2" { "Ligature Substitution lookup 2 subtable"  } []
Lookup: 4 0 0 "Ligature Substitution lookup 3" { "Ligature Substitution lookup 3 subtable"  } []

StartChar: .notdef
Encoding: 65536 -1 0
Width: 983
VWidth: 1908
Flags: MW
HStem: 0 96<166 815 166 969> 1155 180<106 106 870 870> 1241 94<164 813 164 164>
VStem: 14 92<182 182 182 1155> 870 98<182 1155 1155 1155>
LayerCount: 2
Back
Fore
SplineSet
14 0 m 1,0,-1
 14 1335 l 1,1,-1
 969 1335 l 1,2,-1
 969 0 l 1,3,-1
 14 0 l 1,0,-1
492 754 m 1,4,-1
 813 1241 l 1,5,-1
 164 1241 l 1,6,-1
 492 754 l 1,4,-1
106 182 m 1,7,-1
 434 668 l 1,8,-1
 106 1155 l 1,9,-1
 106 182 l 1,7,-1
870 182 m 1,10,-1
 870 1155 l 1,11,-1
 547 668 l 1,12,-1
 870 182 l 1,10,-1
166 96 m 1,13,-1
 815 96 l 1,14,-1
 489 582 l 1,15,-1
 166 96 l 1,13,-1
EndSplineSet
EndChar

StartChar: A
Encoding: 65 65 2
Width: 1171
VWidth: 1908
GlyphClass: 2
Flags: MW
HStem: -4 86G<77 117 117 193 964 991 991 1075> 268 252<438 725 438 807 356 725> 983 356<580 588 580 580> 1257 82G<537 635 635 663>
VStem: 0 1169<26 43>
AnchorPoint: "Anchor-1" 586 1335 basechar 0
AnchorPoint: "Anchor-0" 594 0 basechar 0
LayerCount: 2
Back
Fore
SplineSet
117 -4 m 2,0,1
 0 -4 0 -4 0 39 c 0,2,3
 0 48 0 48 8 72 c 2,4,-1
 428 1300 l 2,5,6
 441 1339 441 1339 537 1339 c 2,7,-1
 635 1339 l 2,8,9
 730 1339 730 1339 743 1300 c 2,10,-1
 1165 72 l 1,11,12
 1169 48 1169 48 1169 39 c 0,13,14
 1169 -4 1169 -4 1075 -4 c 2,15,-1
 991 -4 l 2,16,17
 896 -4 896 -4 885 37 c 2,18,-1
 807 268 l 1,19,-1
 356 268 l 1,20,-1
 281 37 l 2,21,22
 267 -4 267 -4 193 -4 c 2,23,-1
 117 -4 l 2,0,1
438 520 m 1,24,-1
 725 520 l 1,25,-1
 616 860 l 2,26,27
 604 901 604 901 588 983 c 1,28,-1
 580 983 l 1,29,30
 569 905 569 905 551 860 c 2,31,-1
 438 520 l 1,24,-1
EndSplineSet
Substitution2: "Single Substitution lookup 49 subtable" ordfeminine
Substitution2: "'aalt' Access All Alternates lookup 0 subtable" ordfeminine
Position2: "'cpsp' Capital Spacing lookup 0 subtable" dx=20 dy=0 dh=41 dv=0
EndChar

StartChar: Aacute
Encoding: 193 193 3
Width: 1171
VWidth: 1908
GlyphClass: 2
Flags: MW
HStem: -4 86G<77 117 117 193 964 991 991 1075> 268 252<438 725 438 807 356 725> 983 356<580 588 580 580> 1257 82G<537 635 635 663> 1436 303<487 775>
VStem: 0 1169<26 43>
AnchorPoint: "Anchor-1" 586 1335 basechar 0
AnchorPoint: "Anchor-0" 594 0 basechar 0
LayerCount: 2
Back
Fore
SplineSet
510 1436 m 0,0,1
 477 1436 477 1436 464 1442.5 c 128,-1,2
 451 1449 451 1449 451 1464 c 0,3,4
 451 1470 451 1470 455 1479.5 c 128,-1,5
 459 1489 459 1489 469.5 1507.5 c 128,-1,6
 480 1526 480 1526 492.5 1547 c 128,-1,7
 505 1568 505 1568 528.5 1607.5 c 128,-1,8
 552 1647 552 1647 575 1688 c 0,9,10
 605 1739 605 1739 737 1739 c 0,11,12
 852 1739 852 1739 852 1712 c 0,13,14
 852 1701 852 1701 842 1688 c 128,-1,15
 832 1675 832 1675 784 1624 c 0,16,17
 763 1601 763 1601 749 1586.5 c 128,-1,18
 735 1572 735 1572 707.5 1542.5 c 128,-1,19
 680 1513 680 1513 653 1483 c 0,20,21
 612 1436 612 1436 510 1436 c 0,0,1
117 -4 m 2,22,23
 0 -4 0 -4 0 39 c 0,24,25
 0 48 0 48 8 72 c 2,26,-1
 428 1300 l 2,27,28
 441 1339 441 1339 537 1339 c 2,29,-1
 635 1339 l 2,30,31
 730 1339 730 1339 743 1300 c 2,32,-1
 1165 72 l 1,33,34
 1169 48 1169 48 1169 39 c 0,35,36
 1169 -4 1169 -4 1075 -4 c 2,37,-1
 991 -4 l 2,38,39
 896 -4 896 -4 885 37 c 2,40,-1
 807 268 l 1,41,-1
 356 268 l 1,42,-1
 281 37 l 2,43,44
 267 -4 267 -4 193 -4 c 2,45,-1
 117 -4 l 2,22,23
438 520 m 1,46,-1
 725 520 l 1,47,-1
 616 860 l 2,48,49
 604 901 604 901 588 983 c 1,50,-1
 580 983 l 1,51,52
 569 905 569 905 551 860 c 2,53,-1
 438 520 l 1,46,-1
EndSplineSet
Position2: "'cpsp' Capital Spacing lookup 0 subtable" dx=20 dy=0 dh=41 dv=0
EndChar

StartChar: Abreve
Encoding: 258 258 4
Width: 1171
VWidth: 1908
GlyphClass: 2
Flags: MW
HStem: -4 86G<77 117 117 193 964 991 991 1075> 268 252<438 725 438 807 356 725> 983 356<580 588 580 580> 1257 82G<537 635 635 663> 1436 174<538 638 538 669>
VStem: 305 561<1594 1666>
AnchorPoint: "Anchor-1" 586 1647 basechar 0
AnchorPoint: "Anchor-0" 594 0 basechar 0
LayerCount: 2
Back
Fore
SplineSet
586 1436 m 128,-1,1
 465 1436 465 1436 385 1500 c 128,-1,2
 305 1564 305 1564 305 1649 c 0,3,4
 305 1702 305 1702 373 1702 c 0,5,6
 388 1702 388 1702 401 1696.5 c 128,-1,7
 414 1691 414 1691 418 1687 c 128,-1,8
 422 1683 422 1683 436 1669 c 0,9,10
 453 1650 453 1650 465 1640.5 c 128,-1,11
 477 1631 477 1631 509 1620.5 c 128,-1,12
 541 1610 541 1610 586 1610 c 0,13,14
 634 1610 634 1610 668 1621.5 c 128,-1,15
 702 1633 702 1633 712 1641.5 c 128,-1,16
 722 1650 722 1650 741 1671 c 0,17,18
 765 1702 765 1702 801 1702 c 0,19,20
 866 1702 866 1702 866 1649 c 0,21,22
 866 1564 866 1564 786.5 1500 c 128,-1,0
 707 1436 707 1436 586 1436 c 128,-1,1
117 -4 m 2,23,24
 0 -4 0 -4 0 39 c 0,25,26
 0 48 0 48 8 72 c 2,27,-1
 428 1300 l 2,28,29
 441 1339 441 1339 537 1339 c 2,30,-1
 635 1339 l 2,31,32
 730 1339 730 1339 743 1300 c 2,33,-1
 1165 72 l 1,34,35
 1169 48 1169 48 1169 39 c 0,36,37
 1169 -4 1169 -4 1075 -4 c 2,38,-1
 991 -4 l 2,39,40
 896 -4 896 -4 885 37 c 2,41,-1
 807 268 l 1,42,-1
 356 268 l 1,43,-1
 281 37 l 2,44,45
 267 -4 267 -4 193 -4 c 2,46,-1
 117 -4 l 2,23,24
438 520 m 1,47,-1
 725 520 l 1,48,-1
 616 860 l 2,49,50
 604 901 604 901 588 983 c 1,51,-1
 580 983 l 1,52,53
 569 905 569 905 551 860 c 2,54,-1
 438 520 l 1,47,-1
EndSplineSet
Position2: "'cpsp' Capital Spacing lookup 0 subtable" dx=20 dy=0 dh=41 dv=0
EndChar

StartChar: uni1EAE
Encoding: 7854 7854 5
Width: 1171
VWidth: 1908
GlyphClass: 2
Flags: MW
HStem: -4 86G<77 117 117 193 964 991 991 1075> 268 252<438 725 438 807 356 725> 983 356<580 588 580 580> 1257 82G<537 635 635 663> 1436 154<538 638 538 669> 1657 264<531 741>
VStem: 0 1169<26 43> 305 561<1583 1650>
AnchorPoint: "Anchor-1" 586 1663 basechar 0
AnchorPoint: "Anchor-0" 594 0 basechar 0
LayerCount: 2
Back
Fore
SplineSet
547 1657 m 0,0,1
 525 1657 525 1657 516.5 1663.5 c 128,-1,2
 508 1670 508 1670 508 1686 c 0,3,4
 508 1691 508 1691 510 1698.5 c 128,-1,5
 512 1706 512 1706 517.5 1722 c 128,-1,6
 523 1738 523 1738 529.5 1754 c 128,-1,7
 536 1770 536 1770 548.5 1804.5 c 128,-1,8
 561 1839 561 1839 573 1870 c 1,9,10
 602 1921 602 1921 717 1921 c 0,11,12
 757 1921 757 1921 775 1911.5 c 128,-1,13
 793 1902 793 1902 793 1876 c 0,14,15
 793 1863 793 1863 768 1830 c 128,-1,16
 743 1797 743 1797 651 1686 c 0,17,18
 626 1657 626 1657 547 1657 c 0,0,1
586 1436 m 128,-1,20
 466 1436 466 1436 385.5 1495.5 c 128,-1,21
 305 1555 305 1555 305 1632 c 0,22,23
 305 1686 305 1686 373 1686 c 0,24,25
 389 1686 389 1686 401 1680.5 c 128,-1,26
 413 1675 413 1675 418.5 1670 c 128,-1,27
 424 1665 424 1665 436 1651 c 0,28,29
 452 1631 452 1631 465 1620 c 128,-1,30
 478 1609 478 1609 509.5 1599 c 128,-1,31
 541 1589 541 1589 586 1589 c 0,32,33
 635 1589 635 1589 667.5 1600 c 128,-1,34
 700 1611 700 1611 712.5 1622 c 128,-1,35
 725 1633 725 1633 741 1655 c 0,36,37
 768 1686 768 1686 801 1686 c 0,38,39
 866 1686 866 1686 866 1632 c 0,40,41
 866 1555 866 1555 786 1495.5 c 128,-1,19
 706 1436 706 1436 586 1436 c 128,-1,20
117 -4 m 2,42,43
 0 -4 0 -4 0 39 c 0,44,45
 0 48 0 48 8 72 c 2,46,-1
 428 1300 l 2,47,48
 441 1339 441 1339 537 1339 c 2,49,-1
 635 1339 l 2,50,51
 730 1339 730 1339 743 1300 c 2,52,-1
 1165 72 l 1,53,54
 1169 48 1169 48 1169 39 c 0,55,56
 1169 -4 1169 -4 1075 -4 c 2,57,-1
 991 -4 l 2,58,59
 896 -4 896 -4 885 37 c 2,60,-1
 807 268 l 1,61,-1
 356 268 l 1,62,-1
 281 37 l 2,63,64
 267 -4 267 -4 193 -4 c 2,65,-1
 117 -4 l 2,42,43
438 520 m 1,66,-1
 725 520 l 1,67,-1
 616 860 l 2,68,69
 604 901 604 901 588 983 c 1,70,-1
 580 983 l 1,71,72
 569 905 569 905 551 860 c 2,73,-1
 438 520 l 1,66,-1
EndSplineSet
Position2: "'cpsp' Capital Spacing lookup 0 subtable" dx=20 dy=0 dh=41 dv=0
EndChar

StartChar: uni1EB6
Encoding: 7862 7862 6
Width: 1171
VWidth: 1908
GlyphClass: 2
Flags: MW
HStem: -389 174<481 636> -4 86G<77 117 117 193 964 991 991 1075> 268 252<438 725 438 807 356 725> 983 356<580 588 580 580> 1257 82G<537 635 635 663> 1436 174<538 638 538 669>
VStem: 305 561<1594 1666> 481 229<-328 -215 -348 -195>
AnchorPoint: "Anchor-1" 586 1647 basechar 0
AnchorPoint: "Anchor-0" 598 -389 basechar 0
LayerCount: 2
Back
Fore
SplineSet
586 1436 m 128,-1,1
 465 1436 465 1436 385 1500 c 128,-1,2
 305 1564 305 1564 305 1649 c 0,3,4
 305 1702 305 1702 373 1702 c 0,5,6
 388 1702 388 1702 401 1696.5 c 128,-1,7
 414 1691 414 1691 418 1687 c 128,-1,8
 422 1683 422 1683 436 1669 c 0,9,10
 453 1650 453 1650 465 1640.5 c 128,-1,11
 477 1631 477 1631 509 1620.5 c 128,-1,12
 541 1610 541 1610 586 1610 c 0,13,14
 634 1610 634 1610 668 1621.5 c 128,-1,15
 702 1633 702 1633 712 1641.5 c 128,-1,16
 722 1650 722 1650 741 1671 c 0,17,18
 765 1702 765 1702 801 1702 c 0,19,20
 866 1702 866 1702 866 1649 c 0,21,22
 866 1564 866 1564 786.5 1500 c 128,-1,0
 707 1436 707 1436 586 1436 c 128,-1,1
117 -4 m 2,23,24
 0 -4 0 -4 0 39 c 0,25,26
 0 48 0 48 8 72 c 2,27,-1
 428 1300 l 2,28,29
 441 1339 441 1339 537 1339 c 2,30,-1
 635 1339 l 2,31,32
 730 1339 730 1339 743 1300 c 2,33,-1
 1165 72 l 1,34,35
 1169 48 1169 48 1169 39 c 0,36,37
 1169 -4 1169 -4 1075 -4 c 2,38,-1
 991 -4 l 2,39,40
 896 -4 896 -4 885 37 c 2,41,-1
 807 268 l 1,42,-1
 356 268 l 1,43,-1
 281 37 l 2,44,45
 267 -4 267 -4 193 -4 c 2,46,-1
 117 -4 l 2,23,24
438 520 m 1,47,-1
 725 520 l 1,48,-1
 616 860 l 2,49,50
 604 901 604 901 588 983 c 1,51,-1
 580 983 l 1,52,53
 569 905 569 905 551 860 c 2,54,-1
 438 520 l 1,47,-1
596 -389 m 128,-1,56
 481 -389 481 -389 481 -328 c 2,57,-1
 481 -215 l 2,58,59
 481 -154 481 -154 596 -154 c 128,-1,60
 711 -154 711 -154 711 -215 c 2,61,-1
 711 -328 l 2,62,55
 711 -389 711 -389 596 -389 c 128,-1,56
EndSplineSet
Position2: "'cpsp' Capital Spacing lookup 0 subtable" dx=20 dy=0 dh=41 dv=0
EndChar

StartChar: uni1EB0
Encoding: 7856 7856 7
Width: 1171
VWidth: 1908
GlyphClass: 2
Flags: MW
HStem: -4 86G<77 117 117 193 964 991 991 1075> 268 252<438 725 438 807 356 725> 983 356<580 588 580 580> 1257 82G<537 635 635 663> 1436 154<538 638 538 669> 1655 264<428 646>
VStem: 0 1169<26 43> 305 561<1583 1650>
AnchorPoint: "Anchor-1" 586 1663 basechar 0
AnchorPoint: "Anchor-0" 594 0 basechar 0
LayerCount: 2
Back
Fore
SplineSet
623 1655 m 0,0,1
 545 1655 545 1655 504 1702 c 0,2,3
 471 1745 471 1745 426 1803 c 0,4,5
 384 1857 384 1857 375.5 1869.5 c 128,-1,6
 367 1882 367 1882 367 1892 c 0,7,8
 367 1908 367 1908 388.5 1913.5 c 128,-1,9
 410 1919 410 1919 457 1919 c 0,10,11
 598 1919 598 1919 618 1868 c 0,12,13
 682 1714 682 1714 682 1683 c 0,14,15
 682 1668 682 1668 669.5 1661.5 c 128,-1,16
 657 1655 657 1655 623 1655 c 0,0,1
586 1436 m 128,-1,18
 466 1436 466 1436 385.5 1495.5 c 128,-1,19
 305 1555 305 1555 305 1632 c 0,20,21
 305 1686 305 1686 373 1686 c 0,22,23
 389 1686 389 1686 401 1680.5 c 128,-1,24
 413 1675 413 1675 418.5 1670 c 128,-1,25
 424 1665 424 1665 436 1651 c 0,26,27
 452 1631 452 1631 465 1620 c 128,-1,28
 478 1609 478 1609 509.5 1599 c 128,-1,29
 541 1589 541 1589 586 1589 c 0,30,31
 635 1589 635 1589 667.5 1600 c 128,-1,32
 700 1611 700 1611 712.5 1622 c 128,-1,33
 725 1633 725 1633 741 1655 c 0,34,35
 768 1686 768 1686 801 1686 c 0,36,37
 866 1686 866 1686 866 1632 c 0,38,39
 866 1555 866 1555 786 1495.5 c 128,-1,17
 706 1436 706 1436 586 1436 c 128,-1,18
117 -4 m 2,40,41
 0 -4 0 -4 0 39 c 0,42,43
 0 48 0 48 8 72 c 2,44,-1
 428 1300 l 2,45,46
 441 1339 441 1339 537 1339 c 2,47,-1
 635 1339 l 2,48,49
 730 1339 730 1339 743 1300 c 2,50,-1
 1165 72 l 1,51,52
 1169 48 1169 48 1169 39 c 0,53,54
 1169 -4 1169 -4 1075 -4 c 2,55,-1
 991 -4 l 2,56,57
 896 -4 896 -4 885 37 c 2,58,-1
 807 268 l 1,59,-1
 356 268 l 1,60,-1
 281 37 l 2,61,62
 267 -4 267 -4 193 -4 c 2,63,-1
 117 -4 l 2,40,41
438 520 m 1,64,-1
 725 520 l 1,65,-1
 616 860 l 2,66,67
 604 901 604 901 588 983 c 1,68,-1
 580 983 l 1,69,70
 569 905 569 905 551 860 c 2,71,-1
 438 520 l 1,64,-1
EndSplineSet
Position2: "'cpsp' Capital Spacing lookup 0 subtable" dx=20 dy=0 dh=41 dv=0
EndChar

StartChar: uni1EB2
Encoding: 7858 7858 8
Width: 1171
VWidth: 1908
GlyphClass: 2
Flags: MW
HStem: -4 86G<77 117 117 193 964 991 991 1075> 268 252<438 725 438 807 356 725> 983 356<580 588 580 580> 1257 82G<537 635 635 663> 1436 154<538 638 538 669> 1790 135<456 614>
VStem: 305 561<1583 1650> 604 133<1783 1801>
AnchorPoint: "Anchor-1" 586 1929 basechar 0
AnchorPoint: "Anchor-0" 594 0 basechar 0
LayerCount: 2
Back
Fore
SplineSet
594 1667 m 0,0,1
 557 1667 557 1667 533.5 1678.5 c 128,-1,2
 510 1690 510 1690 510 1706 c 0,3,4
 510 1712 510 1712 520.5 1721.5 c 128,-1,5
 531 1731 531 1731 545 1737 c 0,6,7
 590 1759 590 1759 597 1769 c 0,8,9
 604 1778 604 1778 604 1790 c 0,10,11
 604 1806 604 1806 592 1814.5 c 128,-1,12
 580 1823 580 1823 565 1823 c 0,13,14
 528 1823 528 1823 497 1806.5 c 128,-1,15
 466 1790 466 1790 463 1790 c 0,16,17
 451 1790 451 1790 428.5 1820 c 128,-1,18
 406 1850 406 1850 406 1870 c 128,-1,19
 406 1890 406 1890 456.5 1907.5 c 128,-1,20
 507 1925 507 1925 559 1925 c 0,21,22
 641 1925 641 1925 689 1890.5 c 128,-1,23
 737 1856 737 1856 737 1798 c 0,24,25
 737 1749 737 1749 686 1708 c 0,26,27
 633 1667 633 1667 594 1667 c 0,0,1
586 1436 m 128,-1,29
 466 1436 466 1436 385.5 1495.5 c 128,-1,30
 305 1555 305 1555 305 1632 c 0,31,32
 305 1686 305 1686 373 1686 c 0,33,34
 389 1686 389 1686 401 1680.5 c 128,-1,35
 413 1675 413 1675 418.5 1670 c 128,-1,36
 424 1665 424 1665 436 1651 c 0,37,38
 452 1631 452 1631 465 1620 c 128,-1,39
 478 1609 478 1609 509.5 1599 c 128,-1,40
 541 1589 541 1589 586 1589 c 0,41,42
 635 1589 635 1589 667.5 1600 c 128,-1,43
 700 1611 700 1611 712.5 1622 c 128,-1,44
 725 1633 725 1633 741 1655 c 0,45,46
 768 1686 768 1686 801 1686 c 0,47,48
 866 1686 866 1686 866 1632 c 0,49,50
 866 1555 866 1555 786 1495.5 c 128,-1,28
 706 1436 706 1436 586 1436 c 128,-1,29
117 -4 m 2,51,52
 0 -4 0 -4 0 39 c 0,53,54
 0 48 0 48 8 72 c 2,55,-1
 428 1300 l 2,56,57
 441 1339 441 1339 537 1339 c 2,58,-1
 635 1339 l 2,59,60
 730 1339 730 1339 743 1300 c 2,61,-1
 1165 72 l 1,62,63
 1169 48 1169 48 1169 39 c 0,64,65
 1169 -4 1169 -4 1075 -4 c 2,66,-1
 991 -4 l 2,67,68
 896 -4 896 -4 885 37 c 2,69,-1
 807 268 l 1,70,-1
 356 268 l 1,71,-1
 281 37 l 2,72,73
 267 -4 267 -4 193 -4 c 2,74,-1
 117 -4 l 2,51,52
438 520 m 1,75,-1
 725 520 l 1,76,-1
 616 860 l 2,77,78
 604 901 604 901 588 983 c 1,79,-1
 580 983 l 1,80,81
 569 905 569 905 551 860 c 2,82,-1
 438 520 l 1,75,-1
EndSplineSet
Position2: "'cpsp' Capital Spacing lookup 0 subtable" dx=20 dy=0 dh=41 dv=0
EndChar

StartChar: uni1EB4
Encoding: 7860 7860 9
Width: 1171
VWidth: 1908
GlyphClass: 2
Flags: MW
HStem: -4 86G<77 117 117 193 964 991 991 1075> 268 252<438 725 438 807 356 725> 983 356<580 588 580 580> 1257 82G<537 635 635 663> 1436 154<538 638 538 669> 1724 160<711 718 711 753> 1780 160<452 459>
VStem: 0 1169<26 43> 305 561<1583 1650>
AnchorPoint: "Anchor-1" 586 1663 basechar 0
AnchorPoint: "Anchor-0" 594 0 basechar 0
LayerCount: 2
Back
Fore
SplineSet
332 1722 m 1,0,-1
 311 1726 l 1,1,2
 272 1739 272 1739 272 1780 c 0,3,4
 272 1790 272 1790 276 1806 c 0,5,6
 297 1862 297 1862 347 1900.5 c 128,-1,7
 397 1939 397 1939 467 1939 c 0,8,9
 499 1939 499 1939 592 1912.5 c 128,-1,10
 685 1886 685 1886 711 1884 c 0,11,12
 745 1884 745 1884 768 1915 c 0,13,14
 792 1948 792 1948 817 1948 c 0,15,16
 826 1948 826 1948 838 1944 c 2,17,-1
 858 1937 l 2,18,19
 897 1924 897 1924 897 1886 c 0,20,21
 897 1872 897 1872 893 1860 c 0,22,23
 872 1803 872 1803 822.5 1763.5 c 128,-1,24
 773 1724 773 1724 702 1724 c 0,25,26
 671 1724 671 1724 578.5 1751.5 c 128,-1,27
 486 1779 486 1779 459 1780 c 0,28,29
 422 1780 422 1780 401 1751 c 0,30,31
 379 1718 379 1718 352 1718 c 0,32,33
 338 1718 338 1718 332 1722 c 1,0,-1
586 1436 m 128,-1,35
 466 1436 466 1436 385.5 1495.5 c 128,-1,36
 305 1555 305 1555 305 1632 c 0,37,38
 305 1686 305 1686 373 1686 c 0,39,40
 389 1686 389 1686 401 1680.5 c 128,-1,41
 413 1675 413 1675 418.5 1670 c 128,-1,42
 424 1665 424 1665 436 1651 c 0,43,44
 452 1631 452 1631 465 1620 c 128,-1,45
 478 1609 478 1609 509.5 1599 c 128,-1,46
 541 1589 541 1589 586 1589 c 0,47,48
 635 1589 635 1589 667.5 1600 c 128,-1,49
 700 1611 700 1611 712.5 1622 c 128,-1,50
 725 1633 725 1633 741 1655 c 0,51,52
 768 1686 768 1686 801 1686 c 0,53,54
 866 1686 866 1686 866 1632 c 0,55,56
 866 1555 866 1555 786 1495.5 c 128,-1,34
 706 1436 706 1436 586 1436 c 128,-1,35
117 -4 m 2,57,58
 0 -4 0 -4 0 39 c 0,59,60
 0 48 0 48 8 72 c 2,61,-1
 428 1300 l 2,62,63
 441 1339 441 1339 537 1339 c 2,64,-1
 635 1339 l 2,65,66
 730 1339 730 1339 743 1300 c 2,67,-1
 1165 72 l 1,68,69
 1169 48 1169 48 1169 39 c 0,70,71
 1169 -4 1169 -4 1075 -4 c 2,72,-1
 991 -4 l 2,73,74
 896 -4 896 -4 885 37 c 2,75,-1
 807 268 l 1,76,-1
 356 268 l 1,77,-1
 281 37 l 2,78,79
 267 -4 267 -4 193 -4 c 2,80,-1
 117 -4 l 2,57,58
438 520 m 1,81,-1
 725 520 l 1,82,-1
 616 860 l 2,83,84
 604 901 604 901 588 983 c 1,85,-1
 580 983 l 1,86,87
 569 905 569 905 551 860 c 2,88,-1
 438 520 l 1,81,-1
EndSplineSet
Position2: "'cpsp' Capital Spacing lookup 0 subtable" dx=20 dy=0 dh=41 dv=0
EndChar

StartChar: Acircumflex
Encoding: 194 194 10
Width: 1171
VWidth: 1908
GlyphClass: 2
Flags: MW
HStem: -4 86G<77 117 117 193 964 991 991 1075> 268 252<438 725 438 807 356 725> 983 356<580 588 580 580> 1257 82G<537 635 635 663> 1430 279<347 596 360 596 575 768 575 809>
VStem: 0 1169<26 43>
AnchorPoint: "Anchor-1" 905 1552 basechar 0
AnchorPoint: "Anchor-0" 594 0 basechar 0
LayerCount: 2
Back
Fore
SplineSet
360 1430 m 2,0,1
 324 1430 324 1430 324 1448 c 0,2,3
 324 1460 324 1460 334 1477 c 2,4,-1
 459 1671 l 2,5,6
 473 1695 473 1695 499.5 1701.5 c 128,-1,7
 526 1708 526 1708 575 1708 c 2,8,-1
 596 1708 l 2,9,10
 646 1708 646 1708 672.5 1701.5 c 128,-1,11
 699 1695 699 1695 713 1671 c 2,12,-1
 836 1477 l 2,13,14
 848 1462 848 1462 848 1448 c 0,15,16
 848 1430 848 1430 809 1430 c 2,17,-1
 768 1430 l 2,18,19
 672 1430 672 1430 637 1475 c 2,20,-1
 584 1552 l 1,21,-1
 530 1477 l 2,22,23
 495 1430 495 1430 403 1430 c 2,24,-1
 360 1430 l 2,0,1
117 -4 m 2,25,26
 0 -4 0 -4 0 39 c 0,27,28
 0 48 0 48 8 72 c 2,29,-1
 428 1300 l 2,30,31
 441 1339 441 1339 537 1339 c 2,32,-1
 635 1339 l 2,33,34
 730 1339 730 1339 743 1300 c 2,35,-1
 1165 72 l 1,36,37
 1169 48 1169 48 1169 39 c 0,38,39
 1169 -4 1169 -4 1075 -4 c 2,40,-1
 991 -4 l 2,41,42
 896 -4 896 -4 885 37 c 2,43,-1
 807 268 l 1,44,-1
 356 268 l 1,45,-1
 281 37 l 2,46,47
 267 -4 267 -4 193 -4 c 2,48,-1
 117 -4 l 2,25,26
438 520 m 1,49,-1
 725 520 l 1,50,-1
 616 860 l 2,51,52
 604 901 604 901 588 983 c 1,53,-1
 580 983 l 1,54,55
 569 905 569 905 551 860 c 2,56,-1
 438 520 l 1,49,-1
EndSplineSet
Position2: "'cpsp' Capital Spacing lookup 0 subtable" dx=20 dy=0 dh=41 dv=0
EndChar

StartChar: uni1EA4
Encoding: 7844 7844 11
Width: 1171
VWidth: 1908
GlyphClass: 2
Flags: MW
HStem: -4 86G<77 117 117 193 964 991 991 1075> 268 252<438 725 438 807 356 725> 983 356<580 588 580 580> 1257 82G<537 635 635 663> 1430 279<347 596 360 596 575 739 575 780> 1575 264<785 995>
VStem: 0 1169<26 43>
AnchorPoint: "Anchor-1" 840 1581 basechar 0
AnchorPoint: "Anchor-0" 594 0 basechar 0
LayerCount: 2
Back
Fore
SplineSet
801 1575 m 0,0,1
 779 1575 779 1575 770.5 1581.5 c 128,-1,2
 762 1588 762 1588 762 1604 c 0,3,4
 762 1609 762 1609 764 1616.5 c 128,-1,5
 766 1624 766 1624 771.5 1640 c 128,-1,6
 777 1656 777 1656 783.5 1672 c 128,-1,7
 790 1688 790 1688 802.5 1722.5 c 128,-1,8
 815 1757 815 1757 827 1788 c 1,9,10
 856 1839 856 1839 971 1839 c 0,11,12
 1011 1839 1011 1839 1029 1829.5 c 128,-1,13
 1047 1820 1047 1820 1047 1794 c 0,14,15
 1047 1781 1047 1781 1022 1748 c 128,-1,16
 997 1715 997 1715 905 1604 c 0,17,18
 880 1575 880 1575 801 1575 c 0,0,1
360 1430 m 2,19,20
 324 1430 324 1430 324 1448 c 0,21,22
 324 1460 324 1460 334 1477 c 2,23,-1
 459 1671 l 2,24,25
 473 1695 473 1695 499.5 1701.5 c 128,-1,26
 526 1708 526 1708 575 1708 c 2,27,-1
 596 1708 l 2,28,29
 636 1708 636 1708 658 1701.5 c 128,-1,30
 680 1695 680 1695 694 1671 c 2,31,-1
 807 1477 l 2,32,33
 819 1462 819 1462 819 1448 c 0,34,35
 819 1430 819 1430 780 1430 c 2,36,-1
 739 1430 l 2,37,38
 624 1430 624 1430 610 1475 c 2,39,-1
 584 1552 l 1,40,-1
 530 1477 l 2,41,42
 495 1430 495 1430 403 1430 c 2,43,-1
 360 1430 l 2,19,20
117 -4 m 2,44,45
 0 -4 0 -4 0 39 c 0,46,47
 0 48 0 48 8 72 c 2,48,-1
 428 1300 l 2,49,50
 441 1339 441 1339 537 1339 c 2,51,-1
 635 1339 l 2,52,53
 730 1339 730 1339 743 1300 c 2,54,-1
 1165 72 l 1,55,56
 1169 48 1169 48 1169 39 c 0,57,58
 1169 -4 1169 -4 1075 -4 c 2,59,-1
 991 -4 l 2,60,61
 896 -4 896 -4 885 37 c 2,62,-1
 807 268 l 1,63,-1
 356 268 l 1,64,-1
 281 37 l 2,65,66
 267 -4 267 -4 193 -4 c 2,67,-1
 117 -4 l 2,44,45
438 520 m 1,68,-1
 725 520 l 1,69,-1
 616 860 l 2,70,71
 604 901 604 901 588 983 c 1,72,-1
 580 983 l 1,73,74
 569 905 569 905 551 860 c 2,75,-1
 438 520 l 1,68,-1
EndSplineSet
Position2: "'cpsp' Capital Spacing lookup 0 subtable" dx=20 dy=0 dh=41 dv=0
EndChar

StartChar: uni1EAC
Encoding: 7852 7852 12
Width: 1171
VWidth: 1908
GlyphClass: 2
Flags: MW
HStem: -389 174<481 636> -4 86G<77 117 117 193 964 991 991 1075> 268 252<438 725 438 807 356 725> 983 356<580 588 580 580> 1257 82G<537 635 635 663> 1430 279<347 596 360 596 575 768 575 809>
VStem: 481 229<-328 -215 -348 -195>
AnchorPoint: "Anchor-1" 905 1552 basechar 0
AnchorPoint: "Anchor-0" 598 -389 basechar 0
LayerCount: 2
Back
Fore
SplineSet
360 1430 m 2,0,1
 324 1430 324 1430 324 1448 c 0,2,3
 324 1460 324 1460 334 1477 c 2,4,-1
 459 1671 l 2,5,6
 473 1695 473 1695 499.5 1701.5 c 128,-1,7
 526 1708 526 1708 575 1708 c 2,8,-1
 596 1708 l 2,9,10
 646 1708 646 1708 672.5 1701.5 c 128,-1,11
 699 1695 699 1695 713 1671 c 2,12,-1
 836 1477 l 2,13,14
 848 1462 848 1462 848 1448 c 0,15,16
 848 1430 848 1430 809 1430 c 2,17,-1
 768 1430 l 2,18,19
 672 1430 672 1430 637 1475 c 2,20,-1
 584 1552 l 1,21,-1
 530 1477 l 2,22,23
 495 1430 495 1430 403 1430 c 2,24,-1
 360 1430 l 2,0,1
117 -4 m 2,25,26
 0 -4 0 -4 0 39 c 0,27,28
 0 48 0 48 8 72 c 2,29,-1
 428 1300 l 2,30,31
 441 1339 441 1339 537 1339 c 2,32,-1
 635 1339 l 2,33,34
 730 1339 730 1339 743 1300 c 2,35,-1
 1165 72 l 1,36,37
 1169 48 1169 48 1169 39 c 0,38,39
 1169 -4 1169 -4 1075 -4 c 2,40,-1
 991 -4 l 2,41,42
 896 -4 896 -4 885 37 c 2,43,-1
 807 268 l 1,44,-1
 356 268 l 1,45,-1
 281 37 l 2,46,47
 267 -4 267 -4 193 -4 c 2,48,-1
 117 -4 l 2,25,26
438 520 m 1,49,-1
 725 520 l 1,50,-1
 616 860 l 2,51,52
 604 901 604 901 588 983 c 1,53,-1
 580 983 l 1,54,55
 569 905 569 905 551 860 c 2,56,-1
 438 520 l 1,49,-1
596 -389 m 128,-1,58
 481 -389 481 -389 481 -328 c 2,59,-1
 481 -215 l 2,60,61
 481 -154 481 -154 596 -154 c 128,-1,62
 711 -154 711 -154 711 -215 c 2,63,-1
 711 -328 l 2,64,57
 711 -389 711 -389 596 -389 c 128,-1,58
EndSplineSet
Position2: "'cpsp' Capital Spacing lookup 0 subtable" dx=20 dy=0 dh=41 dv=0
EndChar

StartChar: uni1EA6
Encoding: 7846 7846 13
Width: 1171
VWidth: 1908
GlyphClass: 2
Flags: MW
HStem: -4 86G<77 117 117 193 964 991 991 1075> 268 252<438 725 438 807 356 725> 983 356<580 588 580 580> 1257 82G<537 635 635 663> 1430 279<347 596 360 596 575 739 575 780> 1573 264<682 900>
VStem: 0 1169<26 43>
AnchorPoint: "Anchor-1" 840 1581 basechar 0
AnchorPoint: "Anchor-0" 594 0 basechar 0
LayerCount: 2
Back
Fore
SplineSet
877 1573 m 0,0,1
 799 1573 799 1573 758 1620 c 0,2,3
 725 1663 725 1663 680 1721 c 0,4,5
 638 1775 638 1775 629.5 1787.5 c 128,-1,6
 621 1800 621 1800 621 1810 c 0,7,8
 621 1826 621 1826 642.5 1831.5 c 128,-1,9
 664 1837 664 1837 711 1837 c 0,10,11
 852 1837 852 1837 872 1786 c 0,12,13
 936 1632 936 1632 936 1602 c 0,14,15
 936 1586 936 1586 923.5 1579.5 c 128,-1,16
 911 1573 911 1573 877 1573 c 0,0,1
360 1430 m 2,17,18
 324 1430 324 1430 324 1448 c 0,19,20
 324 1460 324 1460 334 1477 c 2,21,-1
 459 1671 l 2,22,23
 473 1695 473 1695 499.5 1701.5 c 128,-1,24
 526 1708 526 1708 575 1708 c 2,25,-1
 596 1708 l 2,26,27
 636 1708 636 1708 658 1701.5 c 128,-1,28
 680 1695 680 1695 694 1671 c 2,29,-1
 807 1477 l 2,30,31
 819 1462 819 1462 819 1448 c 0,32,33
 819 1430 819 1430 780 1430 c 2,34,-1
 739 1430 l 2,35,36
 624 1430 624 1430 610 1475 c 2,37,-1
 584 1552 l 1,38,-1
 530 1477 l 2,39,40
 495 1430 495 1430 403 1430 c 2,41,-1
 360 1430 l 2,17,18
117 -4 m 2,42,43
 0 -4 0 -4 0 39 c 0,44,45
 0 48 0 48 8 72 c 2,46,-1
 428 1300 l 2,47,48
 441 1339 441 1339 537 1339 c 2,49,-1
 635 1339 l 2,50,51
 730 1339 730 1339 743 1300 c 2,52,-1
 1165 72 l 1,53,54
 1169 48 1169 48 1169 39 c 0,55,56
 1169 -4 1169 -4 1075 -4 c 2,57,-1
 991 -4 l 2,58,59
 896 -4 896 -4 885 37 c 2,60,-1
 807 268 l 1,61,-1
 356 268 l 1,62,-1
 281 37 l 2,63,64
 267 -4 267 -4 193 -4 c 2,65,-1
 117 -4 l 2,42,43
438 520 m 1,66,-1
 725 520 l 1,67,-1
 616 860 l 2,68,69
 604 901 604 901 588 983 c 1,70,-1
 580 983 l 1,71,72
 569 905 569 905 551 860 c 2,73,-1
 438 520 l 1,66,-1
EndSplineSet
Position2: "'cpsp' Capital Spacing lookup 0 subtable" dx=20 dy=0 dh=41 dv=0
EndChar

StartChar: uni1EA8
Encoding: 7848 7848 14
Width: 1171
VWidth: 1908
GlyphClass: 2
Flags: MW
HStem: -4 86G<77 117 117 193 964 991 991 1075> 268 252<438 725 438 807 356 725> 983 356<580 588 580 580> 1257 82G<537 635 635 663> 1430 279<347 596 360 596 712 726 575 739 575 780> 1708 135<710 868>
VStem: 858 133<1701 1719>
AnchorPoint: "Anchor-1" 840 1847 basechar 0
AnchorPoint: "Anchor-0" 594 0 basechar 0
LayerCount: 2
Back
Fore
SplineSet
848 1585 m 0,0,1
 811 1585 811 1585 787.5 1596.5 c 128,-1,2
 764 1608 764 1608 764 1624 c 0,3,4
 764 1630 764 1630 774.5 1639.5 c 128,-1,5
 785 1649 785 1649 799 1655 c 0,6,7
 844 1677 844 1677 851 1687 c 0,8,9
 858 1696 858 1696 858 1708 c 0,10,11
 858 1724 858 1724 846 1732.5 c 128,-1,12
 834 1741 834 1741 819 1741 c 0,13,14
 782 1741 782 1741 751 1724.5 c 128,-1,15
 720 1708 720 1708 717 1708 c 0,16,17
 705 1708 705 1708 682 1738 c 128,-1,18
 659 1768 659 1768 659 1788 c 128,-1,19
 659 1808 659 1808 710 1825.5 c 128,-1,20
 761 1843 761 1843 813 1843 c 0,21,22
 895 1843 895 1843 943 1808.5 c 128,-1,23
 991 1774 991 1774 991 1716 c 0,24,25
 991 1667 991 1667 940 1626 c 0,26,27
 887 1585 887 1585 848 1585 c 0,0,1
360 1430 m 2,28,29
 324 1430 324 1430 324 1448 c 0,30,31
 324 1460 324 1460 334 1477 c 2,32,-1
 459 1671 l 2,33,34
 473 1695 473 1695 499.5 1701.5 c 128,-1,35
 526 1708 526 1708 575 1708 c 2,36,-1
 596 1708 l 2,37,38
 636 1708 636 1708 658 1701.5 c 128,-1,39
 680 1695 680 1695 694 1671 c 2,40,-1
 807 1477 l 2,41,42
 819 1462 819 1462 819 1448 c 0,43,44
 819 1430 819 1430 780 1430 c 2,45,-1
 739 1430 l 2,46,47
 624 1430 624 1430 610 1475 c 2,48,-1
 584 1552 l 1,49,-1
 530 1477 l 2,50,51
 495 1430 495 1430 403 1430 c 2,52,-1
 360 1430 l 2,28,29
117 -4 m 2,53,54
 0 -4 0 -4 0 39 c 0,55,56
 0 48 0 48 8 72 c 2,57,-1
 428 1300 l 2,58,59
 441 1339 441 1339 537 1339 c 2,60,-1
 635 1339 l 2,61,62
 730 1339 730 1339 743 1300 c 2,63,-1
 1165 72 l 1,64,65
 1169 48 1169 48 1169 39 c 0,66,67
 1169 -4 1169 -4 1075 -4 c 2,68,-1
 991 -4 l 2,69,70
 896 -4 896 -4 885 37 c 2,71,-1
 807 268 l 1,72,-1
 356 268 l 1,73,-1
 281 37 l 2,74,75
 267 -4 267 -4 193 -4 c 2,76,-1
 117 -4 l 2,53,54
438 520 m 1,77,-1
 725 520 l 1,78,-1
 616 860 l 2,79,80
 604 901 604 901 588 983 c 1,81,-1
 580 983 l 1,82,83
 569 905 569 905 551 860 c 2,84,-1
 438 520 l 1,77,-1
EndSplineSet
Position2: "'cpsp' Capital Spacing lookup 0 subtable" dx=20 dy=0 dh=41 dv=0
EndChar

StartChar: uni1EAA
Encoding: 7850 7850 15
Width: 1171
VWidth: 1908
GlyphClass: 2
Flags: MW
HStem: -4 86G<77 117 117 193 964 991 991 1075> 268 252<438 725 438 807 356 725> 983 356<580 588 580 580> 1257 82G<537 635 635 663> 1430 233<347 596 360 596 575 768 575 809> 1724 160<702 710 702 744> 1780 160<443 451>
VStem: 0 1169<26 43>
AnchorPoint: "Anchor-1" 586 1335 basechar 0
AnchorPoint: "Anchor-0" 594 0 basechar 0
LayerCount: 2
Back
Fore
SplineSet
324 1722 m 1,0,-1
 303 1726 l 1,1,2
 264 1739 264 1739 264 1780 c 0,3,4
 264 1790 264 1790 268 1806 c 0,5,6
 289 1862 289 1862 339 1900.5 c 128,-1,7
 389 1939 389 1939 459 1939 c 0,8,9
 490 1939 490 1939 583 1912.5 c 128,-1,10
 676 1886 676 1886 702 1884 c 0,11,12
 737 1884 737 1884 760 1915 c 0,13,14
 784 1948 784 1948 809 1948 c 0,15,16
 817 1948 817 1948 829 1944 c 2,17,-1
 850 1937 l 2,18,19
 889 1924 889 1924 889 1886 c 0,20,21
 889 1872 889 1872 885 1860 c 0,22,23
 864 1803 864 1803 814.5 1763.5 c 128,-1,24
 765 1724 765 1724 694 1724 c 0,25,26
 663 1724 663 1724 570.5 1751.5 c 128,-1,27
 478 1779 478 1779 451 1780 c 0,28,29
 414 1780 414 1780 393 1751 c 0,30,31
 371 1718 371 1718 344 1718 c 0,32,33
 330 1718 330 1718 324 1722 c 1,0,-1
360 1430 m 2,34,35
 324 1430 324 1430 324 1448 c 0,36,37
 324 1460 324 1460 334 1477 c 2,38,-1
 459 1626 l 2,39,40
 480 1648 480 1648 505.5 1655.5 c 128,-1,41
 531 1663 531 1663 575 1663 c 2,42,-1
 596 1663 l 2,43,44
 640 1663 640 1663 666 1655.5 c 128,-1,45
 692 1648 692 1648 713 1626 c 2,46,-1
 836 1477 l 2,47,48
 848 1462 848 1462 848 1448 c 0,49,50
 848 1430 848 1430 809 1430 c 2,51,-1
 768 1430 l 2,52,53
 731 1430 731 1430 703 1441 c 128,-1,54
 675 1452 675 1452 637 1475 c 1,55,-1
 584 1528 l 1,56,-1
 530 1477 l 2,57,58
 527 1475 527 1475 514.5 1467.5 c 128,-1,59
 502 1460 502 1460 498.5 1458 c 128,-1,60
 495 1456 495 1456 484.5 1450.5 c 128,-1,61
 474 1445 474 1445 469.5 1443.5 c 128,-1,62
 465 1442 465 1442 455.5 1438 c 128,-1,63
 446 1434 446 1434 439 1433 c 128,-1,64
 432 1432 432 1432 422.5 1431 c 128,-1,65
 413 1430 413 1430 403 1430 c 2,66,-1
 360 1430 l 2,34,35
117 -4 m 2,67,68
 0 -4 0 -4 0 39 c 0,69,70
 0 48 0 48 8 72 c 2,71,-1
 428 1300 l 2,72,73
 441 1339 441 1339 537 1339 c 2,74,-1
 635 1339 l 2,75,76
 730 1339 730 1339 743 1300 c 2,77,-1
 1165 72 l 1,78,79
 1169 48 1169 48 1169 39 c 0,80,81
 1169 -4 1169 -4 1075 -4 c 2,82,-1
 991 -4 l 2,83,84
 896 -4 896 -4 885 37 c 2,85,-1
 807 268 l 1,86,-1
 356 268 l 1,87,-1
 281 37 l 2,88,89
 267 -4 267 -4 193 -4 c 2,90,-1
 117 -4 l 2,67,68
438 520 m 1,91,-1
 725 520 l 1,92,-1
 616 860 l 2,93,94
 604 901 604 901 588 983 c 1,95,-1
 580 983 l 1,96,97
 569 905 569 905 551 860 c 2,98,-1
 438 520 l 1,91,-1
EndSplineSet
Position2: "'cpsp' Capital Spacing lookup 0 subtable" dx=20 dy=0 dh=41 dv=0
EndChar

StartChar: Adieresis
Encoding: 196 196 16
Width: 1171
VWidth: 1908
GlyphClass: 2
Flags: MW
HStem: -4 86G<77 117 117 193 964 991 991 1075> 268 252<438 725 438 807 356 725> 983 356<580 588 580 580> 1257 82G<537 635 635 663> 1442 174<299 454>
VStem: 299 229<1503 1616 1483 1636> 643 229<1503 1616 1483 1636>
AnchorPoint: "Anchor-1" 586 1335 basechar 0
AnchorPoint: "Anchor-0" 594 0 basechar 0
LayerCount: 2
Back
Fore
SplineSet
414 1442 m 0,0,1
 299 1442 299 1442 299 1503 c 2,2,-1
 299 1616 l 2,3,4
 299 1677 299 1677 414 1677 c 0,5,6
 528 1677 528 1677 528 1616 c 2,7,-1
 528 1503 l 2,8,9
 528 1442 528 1442 414 1442 c 0,0,1
758 1442 m 0,10,11
 643 1442 643 1442 643 1503 c 2,12,-1
 643 1616 l 2,13,14
 643 1677 643 1677 758 1677 c 0,15,16
 872 1677 872 1677 872 1616 c 2,17,-1
 872 1503 l 2,18,19
 872 1442 872 1442 758 1442 c 0,10,11
117 -4 m 2,20,21
 0 -4 0 -4 0 39 c 0,22,23
 0 48 0 48 8 72 c 2,24,-1
 428 1300 l 2,25,26
 441 1339 441 1339 537 1339 c 2,27,-1
 635 1339 l 2,28,29
 730 1339 730 1339 743 1300 c 2,30,-1
 1165 72 l 1,31,32
 1169 48 1169 48 1169 39 c 0,33,34
 1169 -4 1169 -4 1075 -4 c 2,35,-1
 991 -4 l 2,36,37
 896 -4 896 -4 885 37 c 2,38,-1
 807 268 l 1,39,-1
 356 268 l 1,40,-1
 281 37 l 2,41,42
 267 -4 267 -4 193 -4 c 2,43,-1
 117 -4 l 2,20,21
438 520 m 1,44,-1
 725 520 l 1,45,-1
 616 860 l 2,46,47
 604 901 604 901 588 983 c 1,48,-1
 580 983 l 1,49,50
 569 905 569 905 551 860 c 2,51,-1
 438 520 l 1,44,-1
EndSplineSet
Position2: "'cpsp' Capital Spacing lookup 0 subtable" dx=20 dy=0 dh=41 dv=0
EndChar

StartChar: uni1EA0
Encoding: 7840 7840 17
Width: 1171
VWidth: 1908
GlyphClass: 2
Flags: MW
HStem: -389 174<481 636> -4 86G<77 117 117 193 964 991 991 1075> 268 252<438 725 438 807 356 725> 983 356<580 588 580 580> 1257 82G<537 635 635 663>
VStem: 481 229<-328 -215 -348 -195>
AnchorPoint: "Anchor-1" 586 1335 basechar 0
AnchorPoint: "Anchor-0" 598 -389 basechar 0
LayerCount: 2
Back
Fore
SplineSet
117 -4 m 2,0,1
 0 -4 0 -4 0 39 c 0,2,3
 0 48 0 48 8 72 c 2,4,-1
 428 1300 l 2,5,6
 441 1339 441 1339 537 1339 c 2,7,-1
 635 1339 l 2,8,9
 730 1339 730 1339 743 1300 c 2,10,-1
 1165 72 l 1,11,12
 1169 48 1169 48 1169 39 c 0,13,14
 1169 -4 1169 -4 1075 -4 c 2,15,-1
 991 -4 l 2,16,17
 896 -4 896 -4 885 37 c 2,18,-1
 807 268 l 1,19,-1
 356 268 l 1,20,-1
 281 37 l 2,21,22
 267 -4 267 -4 193 -4 c 2,23,-1
 117 -4 l 2,0,1
438 520 m 1,24,-1
 725 520 l 1,25,-1
 616 860 l 2,26,27
 604 901 604 901 588 983 c 1,28,-1
 580 983 l 1,29,30
 569 905 569 905 551 860 c 2,31,-1
 438 520 l 1,24,-1
596 -389 m 128,-1,33
 481 -389 481 -389 481 -328 c 2,34,-1
 481 -215 l 2,35,36
 481 -154 481 -154 596 -154 c 128,-1,37
 711 -154 711 -154 711 -215 c 2,38,-1
 711 -328 l 2,39,32
 711 -389 711 -389 596 -389 c 128,-1,33
EndSplineSet
Position2: "'cpsp' Capital Spacing lookup 0 subtable" dx=20 dy=0 dh=41 dv=0
EndChar

StartChar: Agrave
Encoding: 192 192 18
Width: 1171
VWidth: 1908
GlyphClass: 2
Flags: MW
HStem: -4 86G<77 117 117 193 964 991 991 1075> 268 252<438 725 438 807 356 725> 983 356<580 588 580 580> 1257 82G<537 635 635 663> 1436 303<407 695>
VStem: 0 1169<26 43>
AnchorPoint: "Anchor-1" 586 1335 basechar 0
AnchorPoint: "Anchor-0" 594 0 basechar 0
LayerCount: 2
Back
Fore
SplineSet
672 1436 m 0,0,1
 630 1436 630 1436 599.5 1443.5 c 128,-1,2
 569 1451 569 1451 555.5 1460 c 128,-1,3
 542 1469 542 1469 528 1483 c 0,4,5
 465 1552 465 1552 393 1630 c 0,6,7
 349 1677 349 1677 339.5 1689 c 128,-1,8
 330 1701 330 1701 330 1712 c 0,9,10
 330 1739 330 1739 444 1739 c 0,11,12
 576 1739 576 1739 606 1688 c 0,13,14
 629 1647 629 1647 652.5 1607.5 c 128,-1,15
 676 1568 676 1568 688.5 1547 c 128,-1,16
 701 1526 701 1526 712 1507.5 c 128,-1,17
 723 1489 723 1489 727 1479.5 c 128,-1,18
 731 1470 731 1470 731 1464 c 0,19,20
 731 1449 731 1449 718.5 1442.5 c 128,-1,21
 706 1436 706 1436 672 1436 c 0,0,1
117 -4 m 2,22,23
 0 -4 0 -4 0 39 c 0,24,25
 0 48 0 48 8 72 c 2,26,-1
 428 1300 l 2,27,28
 441 1339 441 1339 537 1339 c 2,29,-1
 635 1339 l 2,30,31
 730 1339 730 1339 743 1300 c 2,32,-1
 1165 72 l 1,33,34
 1169 48 1169 48 1169 39 c 0,35,36
 1169 -4 1169 -4 1075 -4 c 2,37,-1
 991 -4 l 2,38,39
 896 -4 896 -4 885 37 c 2,40,-1
 807 268 l 1,41,-1
 356 268 l 1,42,-1
 281 37 l 2,43,44
 267 -4 267 -4 193 -4 c 2,45,-1
 117 -4 l 2,22,23
438 520 m 1,46,-1
 725 520 l 1,47,-1
 616 860 l 2,48,49
 604 901 604 901 588 983 c 1,50,-1
 580 983 l 1,51,52
 569 905 569 905 551 860 c 2,53,-1
 438 520 l 1,46,-1
EndSplineSet
Position2: "'cpsp' Capital Spacing lookup 0 subtable" dx=20 dy=0 dh=41 dv=0
EndChar

StartChar: uni1EA2
Encoding: 7842 7842 19
Width: 1171
VWidth: 1908
GlyphClass: 2
Flags: MW
HStem: -4 86G<77 117 117 193 964 991 991 1075> 268 252<438 725 438 807 356 725> 983 356<580 588 580 580> 1257 82G<537 635 635 663> 1655 117<577 611>
VStem: 655 168<1585 1627>
AnchorPoint: "Anchor-1" 586 1675 basechar 0
AnchorPoint: "Anchor-0" 594 0 basechar 0
LayerCount: 2
Back
Fore
SplineSet
631 1425 m 0,0,1
 599 1425 599 1425 563.5 1441 c 128,-1,2
 528 1457 528 1457 528 1470 c 128,-1,3
 528 1483 528 1483 560 1507.5 c 128,-1,4
 592 1532 592 1532 623.5 1561 c 128,-1,5
 655 1590 655 1590 655 1614 c 0,6,7
 655 1633 655 1633 638 1644 c 128,-1,8
 621 1655 621 1655 596 1655 c 128,-1,9
 571 1655 571 1655 546 1643.5 c 128,-1,10
 521 1632 521 1632 516 1632 c 0,11,12
 503 1632 503 1632 481 1661.5 c 128,-1,13
 459 1691 459 1691 459 1712 c 0,14,15
 459 1731 459 1731 509.5 1751.5 c 128,-1,16
 560 1772 560 1772 610 1772 c 0,17,18
 712 1772 712 1772 767.5 1731.5 c 128,-1,19
 823 1691 823 1691 823 1620 c 0,20,21
 823 1574 823 1574 781.5 1526.5 c 128,-1,22
 740 1479 740 1479 695.5 1452 c 128,-1,23
 651 1425 651 1425 631 1425 c 0,0,1
117 -4 m 2,24,25
 0 -4 0 -4 0 39 c 0,26,27
 0 48 0 48 8 72 c 2,28,-1
 428 1300 l 2,29,30
 441 1339 441 1339 537 1339 c 2,31,-1
 635 1339 l 2,32,33
 730 1339 730 1339 743 1300 c 2,34,-1
 1165 72 l 1,35,36
 1169 48 1169 48 1169 39 c 0,37,38
 1169 -4 1169 -4 1075 -4 c 2,39,-1
 991 -4 l 2,40,41
 896 -4 896 -4 885 37 c 2,42,-1
 807 268 l 1,43,-1
 356 268 l 1,44,-1
 281 37 l 2,45,46
 267 -4 267 -4 193 -4 c 2,47,-1
 117 -4 l 2,24,25
438 520 m 1,48,-1
 725 520 l 1,49,-1
 616 860 l 2,50,51
 604 901 604 901 588 983 c 1,52,-1
 580 983 l 1,53,54
 569 905 569 905 551 860 c 2,55,-1
 438 520 l 1,48,-1
EndSplineSet
Position2: "'cpsp' Capital Spacing lookup 0 subtable" dx=20 dy=0 dh=41 dv=0
EndChar

StartChar: Amacron
Encoding: 256 256 20
Width: 1171
VWidth: 1908
GlyphClass: 2
Flags: MW
HStem: -4 86G<77 117 117 193 964 991 991 1075> 268 252<438 725 438 807 356 725> 983 356<580 588 580 580> 1257 82G<537 635 635 663> 1477 182<360 791 381 791>
VStem: 324 524<1554 1583 1528 1610>
AnchorPoint: "Anchor-1" 586 1335 basechar 0
AnchorPoint: "Anchor-0" 594 0 basechar 0
LayerCount: 2
Back
Fore
SplineSet
381 1477 m 2,0,1
 351 1477 351 1477 337.5 1495.5 c 128,-1,2
 324 1514 324 1514 324 1554 c 2,3,-1
 324 1583 l 2,4,5
 324 1623 324 1623 337 1641 c 128,-1,6
 350 1659 350 1659 381 1659 c 2,7,-1
 791 1659 l 2,8,9
 848 1659 848 1659 848 1583 c 2,10,-1
 848 1554 l 2,11,12
 848 1477 848 1477 791 1477 c 2,13,-1
 381 1477 l 2,0,1
117 -4 m 2,14,15
 0 -4 0 -4 0 39 c 0,16,17
 0 48 0 48 8 72 c 2,18,-1
 428 1300 l 2,19,20
 441 1339 441 1339 537 1339 c 2,21,-1
 635 1339 l 2,22,23
 730 1339 730 1339 743 1300 c 2,24,-1
 1165 72 l 1,25,26
 1169 48 1169 48 1169 39 c 0,27,28
 1169 -4 1169 -4 1075 -4 c 2,29,-1
 991 -4 l 2,30,31
 896 -4 896 -4 885 37 c 2,32,-1
 807 268 l 1,33,-1
 356 268 l 1,34,-1
 281 37 l 2,35,36
 267 -4 267 -4 193 -4 c 2,37,-1
 117 -4 l 2,14,15
438 520 m 1,38,-1
 725 520 l 1,39,-1
 616 860 l 2,40,41
 604 901 604 901 588 983 c 1,42,-1
 580 983 l 1,43,44
 569 905 569 905 551 860 c 2,45,-1
 438 520 l 1,38,-1
EndSplineSet
Position2: "'cpsp' Capital Spacing lookup 0 subtable" dx=20 dy=0 dh=41 dv=0
EndChar

StartChar: Aogonek
Encoding: 260 260 21
Width: 1171
VWidth: 1908
GlyphClass: 2
Flags: MW
HStem: -350 135<1128 1165> -4 86G<77 117 117 193 1053 1053 1053 1075> -2 86G 268 252<438 725 438 807 356 725> 983 356<580 588 580 580> 1257 82G<537 635 635 663>
VStem: 903 129<-165 -138>
AnchorPoint: "Anchor-1" 586 1335 basechar 0
AnchorPoint: "Anchor-0" 594 0 basechar 0
LayerCount: 2
Back
Fore
SplineSet
1243 -201 m 0,0,1
 1286 -201 1286 -201 1286 -254 c 0,2,3
 1286 -350 1286 -350 1128 -350 c 0,4,5
 1070 -350 1070 -350 1027 -334.5 c 128,-1,6
 984 -319 984 -319 961 -297.5 c 128,-1,7
 938 -276 938 -276 924 -247 c 128,-1,8
 910 -218 910 -218 906.5 -196.5 c 128,-1,9
 903 -175 903 -175 903 -154 c 0,10,11
 903 -120 903 -120 913.5 -75 c 128,-1,12
 924 -30 924 -30 950 -2 c 1,13,14
 893 4 893 4 885 37 c 2,15,-1
 807 268 l 1,16,-1
 356 268 l 1,17,-1
 281 37 l 2,18,19
 267 -4 267 -4 193 -4 c 2,20,-1
 117 -4 l 2,21,22
 0 -4 0 -4 0 39 c 0,23,24
 0 48 0 48 8 72 c 2,25,-1
 428 1300 l 2,26,27
 441 1339 441 1339 537 1339 c 2,28,-1
 635 1339 l 2,29,30
 730 1339 730 1339 743 1300 c 2,31,-1
 1165 72 l 1,32,33
 1169 48 1169 48 1169 39 c 0,34,35
 1169 -4 1169 -4 1075 -4 c 2,36,-1
 1053 -4 l 1,37,-1
 1053 -10 l 2,38,39
 1053 -21 1053 -21 1042.5 -54.5 c 128,-1,40
 1032 -88 1032 -88 1032 -119 c 0,41,42
 1032 -151 1032 -151 1043.5 -172 c 128,-1,43
 1055 -193 1055 -193 1075.5 -201.5 c 128,-1,44
 1096 -210 1096 -210 1112.5 -212.5 c 128,-1,45
 1129 -215 1129 -215 1151 -215 c 0,46,47
 1176 -215 1176 -215 1201.5 -208 c 128,-1,48
 1227 -201 1227 -201 1243 -201 c 0,0,1
438 520 m 1,49,-1
 725 520 l 1,50,-1
 616 860 l 2,51,52
 604 901 604 901 588 983 c 1,53,-1
 580 983 l 1,54,55
 569 905 569 905 551 860 c 2,56,-1
 438 520 l 1,49,-1
EndSplineSet
Position2: "'cpsp' Capital Spacing lookup 0 subtable" dx=20 dy=0 dh=41 dv=0
EndChar

StartChar: Aring
Encoding: 197 197 22
Width: 1171
VWidth: 1908
GlyphClass: 2
Flags: MW
HStem: -4 86G<77 117 117 193 964 991 991 1075> 268 252<438 725 438 807 356 725> 983 356<580 588 580 580> 1257 82G<537 635 635 663> 1389 117<564 603 564 637> 1645 123<564 603>
VStem: 395 188 584 190
AnchorPoint: "Anchor-1" 586 1335 basechar 0
AnchorPoint: "Anchor-0" 594 0 basechar 0
LayerCount: 2
Back
Fore
SplineSet
584 1389 m 128,-1,1
 504 1389 504 1389 449.5 1443.5 c 128,-1,2
 395 1498 395 1498 395 1577 c 0,3,4
 395 1657 395 1657 450 1712 c 128,-1,5
 505 1767 505 1767 584 1767 c 0,6,7
 664 1767 664 1767 719 1711.5 c 128,-1,8
 774 1656 774 1656 774 1577 c 128,-1,9
 774 1498 774 1498 719 1443.5 c 128,-1,0
 664 1389 664 1389 584 1389 c 128,-1,1
584 1505 m 128,-1,11
 613 1505 613 1505 634 1525.5 c 128,-1,12
 655 1546 655 1546 655 1575 c 128,-1,13
 655 1604 655 1604 634 1624.5 c 128,-1,14
 613 1645 613 1645 584 1645 c 128,-1,15
 555 1645 555 1645 535.5 1624.5 c 128,-1,16
 516 1604 516 1604 516 1575 c 128,-1,17
 516 1546 516 1546 535.5 1525.5 c 128,-1,10
 555 1505 555 1505 584 1505 c 128,-1,11
117 -4 m 2,18,19
 0 -4 0 -4 0 39 c 0,20,21
 0 48 0 48 8 72 c 2,22,-1
 428 1300 l 2,23,24
 441 1339 441 1339 537 1339 c 2,25,-1
 635 1339 l 2,26,27
 730 1339 730 1339 743 1300 c 2,28,-1
 1165 72 l 1,29,30
 1169 48 1169 48 1169 39 c 0,31,32
 1169 -4 1169 -4 1075 -4 c 2,33,-1
 991 -4 l 2,34,35
 896 -4 896 -4 885 37 c 2,36,-1
 807 268 l 1,37,-1
 356 268 l 1,38,-1
 281 37 l 2,39,40
 267 -4 267 -4 193 -4 c 2,41,-1
 117 -4 l 2,18,19
438 520 m 1,42,-1
 725 520 l 1,43,-1
 616 860 l 2,44,45
 604 901 604 901 588 983 c 1,46,-1
 580 983 l 1,47,48
 569 905 569 905 551 860 c 2,49,-1
 438 520 l 1,42,-1
EndSplineSet
Position2: "'cpsp' Capital Spacing lookup 0 subtable" dx=20 dy=0 dh=41 dv=0
EndChar

StartChar: Aringacute
Encoding: 506 506 23
Width: 1171
VWidth: 1908
GlyphClass: 2
Flags: MW
HStem: -4 86G<77 117 117 193 964 991 991 1075> 268 252<438 725 438 807 356 725> 1397 123<566 605> 1550 227<535 777>
VStem: 397 188 586 190
LayerCount: 2
Back
Fore
SplineSet
557 1550 m 0,0,1
 524 1550 524 1550 511 1557 c 128,-1,2
 498 1564 498 1564 498 1579 c 1,3,4
 537 1667 537 1667 575 1726 c 0,5,6
 608 1778 608 1778 739 1778 c 0,7,8
 854 1778 854 1778 854 1751 c 0,9,10
 854 1742 854 1742 844.5 1731.5 c 128,-1,11
 835 1721 835 1721 782 1673 c 0,12,13
 735 1629 735 1629 700 1597 c 1,14,15
 659 1550 659 1550 557 1550 c 0,0,1
1165 72 m 1,16,17
 1169 48 1169 48 1169 39 c 0,18,19
 1169 -4 1169 -4 1075 -4 c 2,20,-1
 991 -4 l 2,21,22
 896 -4 896 -4 885 37 c 2,23,-1
 807 268 l 1,24,-1
 356 268 l 1,25,-1
 281 37 l 2,26,27
 267 -4 267 -4 193 -4 c 2,28,-1
 117 -4 l 2,29,30
 0 -4 0 -4 0 39 c 0,31,32
 0 48 0 48 8 72 c 2,33,-1
 412 1253 l 1,34,35
 397 1296 397 1296 397 1329 c 0,36,37
 397 1409 397 1409 452 1464.5 c 128,-1,38
 507 1520 507 1520 586 1520 c 128,-1,39
 665 1520 665 1520 720.5 1464.5 c 128,-1,40
 776 1409 776 1409 776 1329 c 0,41,42
 776 1291 776 1291 760 1251 c 1,43,-1
 1165 72 l 1,16,17
586 1397 m 128,-1,45
 557 1397 557 1397 537.5 1376.5 c 128,-1,46
 518 1356 518 1356 518 1327 c 128,-1,47
 518 1298 518 1298 537.5 1277.5 c 128,-1,48
 557 1257 557 1257 586 1257 c 128,-1,49
 615 1257 615 1257 636 1277.5 c 128,-1,50
 657 1298 657 1298 657 1327 c 128,-1,51
 657 1356 657 1356 636 1376.5 c 128,-1,44
 615 1397 615 1397 586 1397 c 128,-1,45
438 520 m 1,52,-1
 725 520 l 1,53,-1
 616 860 l 2,54,55
 604 901 604 901 588 983 c 1,56,-1
 580 983 l 1,57,58
 569 905 569 905 551 860 c 2,59,-1
 438 520 l 1,52,-1
EndSplineSet
Position2: "'cpsp' Capital Spacing lookup 0 subtable" dx=20 dy=0 dh=41 dv=0
EndChar

StartChar: Atilde
Encoding: 195 195 24
Width: 1171
VWidth: 1908
GlyphClass: 2
Flags: MW
HStem: -4 86G<77 117 117 193 964 991 991 1075> 268 252<438 725 438 807 356 725> 983 356<580 588 580 580> 1257 82G<537 635 635 663> 1448 160<702 711 702 749> 1503 160<418 426>
VStem: 0 1169<26 43>
AnchorPoint: "Anchor-1" 586 1335 basechar 0
AnchorPoint: "Anchor-0" 594 0 basechar 0
LayerCount: 2
Back
Fore
SplineSet
285 1446 m 1,0,-1
 262 1450 l 1,1,2
 221 1463 221 1463 221 1503 c 0,3,4
 221 1514 221 1514 225 1530 c 0,5,6
 247 1586 247 1586 301.5 1624.5 c 128,-1,7
 356 1663 356 1663 434 1663 c 0,8,9
 469 1663 469 1663 571.5 1636.5 c 128,-1,10
 674 1610 674 1610 702 1608 c 0,11,12
 740 1608 740 1608 766 1638 c 0,13,14
 792 1671 792 1671 819 1671 c 0,15,16
 830 1671 830 1671 842 1667 c 2,17,-1
 864 1661 l 2,18,19
 907 1648 907 1648 907 1610 c 0,20,21
 907 1595 907 1595 903 1583 c 0,22,23
 881 1526 881 1526 826 1487 c 128,-1,24
 771 1448 771 1448 694 1448 c 0,25,26
 659 1448 659 1448 557 1475 c 128,-1,27
 455 1502 455 1502 426 1503 c 0,28,29
 386 1503 386 1503 362 1475 c 0,30,31
 338 1442 338 1442 307 1442 c 0,32,33
 293 1442 293 1442 285 1446 c 1,0,-1
117 -4 m 2,34,35
 0 -4 0 -4 0 39 c 0,36,37
 0 48 0 48 8 72 c 2,38,-1
 428 1300 l 2,39,40
 441 1339 441 1339 537 1339 c 2,41,-1
 635 1339 l 2,42,43
 730 1339 730 1339 743 1300 c 2,44,-1
 1165 72 l 1,45,46
 1169 48 1169 48 1169 39 c 0,47,48
 1169 -4 1169 -4 1075 -4 c 2,49,-1
 991 -4 l 2,50,51
 896 -4 896 -4 885 37 c 2,52,-1
 807 268 l 1,53,-1
 356 268 l 1,54,-1
 281 37 l 2,55,56
 267 -4 267 -4 193 -4 c 2,57,-1
 117 -4 l 2,34,35
438 520 m 1,58,-1
 725 520 l 1,59,-1
 616 860 l 2,60,61
 604 901 604 901 588 983 c 1,62,-1
 580 983 l 1,63,64
 569 905 569 905 551 860 c 2,65,-1
 438 520 l 1,58,-1
EndSplineSet
Position2: "'cpsp' Capital Spacing lookup 0 subtable" dx=20 dy=0 dh=41 dv=0
EndChar

StartChar: AE
Encoding: 198 198 25
Width: 1748
VWidth: 1908
GlyphClass: 2
Flags: MW
HStem: 0 250<941 1593 1149 1593 1149 1593> 268 252<516 809 516 856 391 809> 559 250<1090 1540 1090 1090> 1085 250<987 1591 987 987>
VStem: 2 1649<26 96>
AnchorPoint: "Anchor-1" 877 1335 basechar 0
AnchorPoint: "Anchor-0" 0 0 basechar 0
LayerCount: 2
Back
Fore
SplineSet
119 -4 m 2,0,1
 2 -4 2 -4 2 39 c 0,2,3
 2 59 2 59 10 72 c 2,4,-1
 623 1284 l 2,5,6
 648 1335 648 1335 707 1335 c 2,7,-1
 1591 1335 l 2,8,9
 1622 1335 1622 1335 1635.5 1313 c 128,-1,10
 1649 1291 1649 1291 1649 1241 c 2,11,-1
 1649 1182 l 2,12,13
 1649 1131 1649 1131 1635.5 1108 c 128,-1,14
 1622 1085 1622 1085 1591 1085 c 2,15,-1
 987 1085 l 1,16,-1
 1040 809 l 1,17,-1
 1540 809 l 2,18,19
 1571 809 1571 809 1584 787 c 128,-1,20
 1597 765 1597 765 1597 715 c 2,21,-1
 1597 655 l 2,22,23
 1597 604 1597 604 1584 581.5 c 128,-1,24
 1571 559 1571 559 1540 559 c 2,25,-1
 1090 559 l 1,26,-1
 1149 250 l 1,27,-1
 1593 250 l 2,28,29
 1624 250 1624 250 1637.5 227.5 c 128,-1,30
 1651 205 1651 205 1651 154 c 2,31,-1
 1651 96 l 2,32,33
 1651 45 1651 45 1637.5 22.5 c 128,-1,34
 1624 0 1624 0 1593 0 c 2,35,-1
 963 0 l 2,36,37
 931 0 931 0 916 13 c 128,-1,38
 901 26 901 26 895 57 c 2,39,-1
 856 268 l 1,40,-1
 391 268 l 1,41,-1
 276 37 l 2,42,43
 258 -4 258 -4 188 -4 c 2,44,-1
 119 -4 l 2,0,1
516 520 m 1,45,-1
 809 520 l 1,46,-1
 745 866 l 1,47,-1
 745 1024 l 1,48,-1
 739 1024 l 1,49,-1
 686 868 l 1,50,-1
 516 520 l 1,45,-1
EndSplineSet
Position2: "'cpsp' Capital Spacing lookup 0 subtable" dx=20 dy=0 dh=41 dv=0
EndChar

StartChar: AEacute
Encoding: 508 508 26
Width: 1748
VWidth: 1908
GlyphClass: 2
Flags: MW
HStem: 0 250<941 1593 1149 1593 1149 1593> 268 252<516 809 516 856 391 809> 559 250<1090 1540 1090 1090> 1085 250<987 1591 987 987> 1436 303<776 1064>
VStem: 2 1649<26 96>
AnchorPoint: "Anchor-1" 877 1335 basechar 0
AnchorPoint: "Anchor-0" 0 0 basechar 0
LayerCount: 2
Back
Fore
SplineSet
799 1436 m 0,0,1
 766 1436 766 1436 752.5 1442.5 c 128,-1,2
 739 1449 739 1449 739 1464 c 0,3,4
 739 1473 739 1473 749.5 1492 c 128,-1,5
 760 1511 760 1511 795 1569.5 c 128,-1,6
 830 1628 830 1628 864 1688 c 0,7,8
 894 1739 894 1739 1026 1739 c 0,9,10
 1141 1739 1141 1739 1141 1712 c 0,11,12
 1141 1701 1141 1701 1131 1688 c 128,-1,13
 1121 1675 1121 1675 1073 1624 c 0,14,15
 1002 1548 1002 1548 942 1483 c 0,16,17
 901 1436 901 1436 799 1436 c 0,0,1
119 -4 m 2,18,19
 2 -4 2 -4 2 39 c 0,20,21
 2 59 2 59 10 72 c 2,22,-1
 623 1284 l 2,23,24
 648 1335 648 1335 707 1335 c 2,25,-1
 1591 1335 l 2,26,27
 1622 1335 1622 1335 1635.5 1313 c 128,-1,28
 1649 1291 1649 1291 1649 1241 c 2,29,-1
 1649 1182 l 2,30,31
 1649 1131 1649 1131 1635.5 1108 c 128,-1,32
 1622 1085 1622 1085 1591 1085 c 2,33,-1
 987 1085 l 1,34,-1
 1040 809 l 1,35,-1
 1540 809 l 2,36,37
 1571 809 1571 809 1584 787 c 128,-1,38
 1597 765 1597 765 1597 715 c 2,39,-1
 1597 655 l 2,40,41
 1597 604 1597 604 1584 581.5 c 128,-1,42
 1571 559 1571 559 1540 559 c 2,43,-1
 1090 559 l 1,44,-1
 1149 250 l 1,45,-1
 1593 250 l 2,46,47
 1624 250 1624 250 1637.5 227.5 c 128,-1,48
 1651 205 1651 205 1651 154 c 2,49,-1
 1651 96 l 2,50,51
 1651 45 1651 45 1637.5 22.5 c 128,-1,52
 1624 0 1624 0 1593 0 c 2,53,-1
 963 0 l 2,54,55
 931 0 931 0 916 13 c 128,-1,56
 901 26 901 26 895 57 c 2,57,-1
 856 268 l 1,58,-1
 391 268 l 1,59,-1
 276 37 l 2,60,61
 258 -4 258 -4 188 -4 c 2,62,-1
 119 -4 l 2,18,19
516 520 m 1,63,-1
 809 520 l 1,64,-1
 745 866 l 1,65,-1
 745 1024 l 1,66,-1
 739 1024 l 1,67,-1
 686 868 l 1,68,-1
 516 520 l 1,63,-1
EndSplineSet
Position2: "'cpsp' Capital Spacing lookup 0 subtable" dx=20 dy=0 dh=41 dv=0
EndChar

StartChar: B
Encoding: 66 66 27
Width: 1134
VWidth: 1908
GlyphClass: 2
Flags: MW
HStem: 0 250<181 612 426 612 426 612> 553 250<426 557 557 582 426 557> 1087 248<426 561 426 426>
VStem: 131 295<250 250 250 553 803 1087> 735 301<933 993> 788 301<355 455>
LayerCount: 2
Back
Fore
SplineSet
209 0 m 2,0,1
 168 0 168 0 149.5 18 c 128,-1,2
 131 36 131 36 131 76 c 2,3,-1
 131 1260 l 2,4,5
 131 1300 131 1300 149.5 1317.5 c 128,-1,6
 168 1335 168 1335 209 1335 c 2,7,-1
 586 1335 l 2,8,9
 819 1335 819 1335 927.5 1245.5 c 128,-1,10
 1036 1156 1036 1156 1036 997 c 0,11,12
 1036 903 1036 903 977 824 c 128,-1,13
 918 745 918 745 829 709 c 1,14,-1
 831 700 l 1,15,16
 945 677 945 677 1017.5 588 c 128,-1,17
 1090 499 1090 499 1090 387 c 0,18,19
 1090 199 1090 199 970.5 99.5 c 128,-1,20
 851 0 851 0 612 0 c 2,21,-1
 209 0 l 2,0,1
426 803 m 1,22,-1
 557 803 l 2,23,24
 641 803 641 803 688 843.5 c 128,-1,25
 735 884 735 884 735 946 c 0,26,27
 735 1087 735 1087 561 1087 c 2,28,-1
 426 1087 l 1,29,-1
 426 803 l 1,22,-1
426 250 m 1,30,-1
 612 250 l 2,31,32
 696 250 696 250 742 290.5 c 128,-1,33
 788 331 788 331 788 406 c 0,34,35
 788 553 788 553 582 553 c 2,36,-1
 426 553 l 1,37,-1
 426 250 l 1,30,-1
EndSplineSet
Position2: "'cpsp' Capital Spacing lookup 0 subtable" dx=20 dy=0 dh=41 dv=0
EndChar

StartChar: C
Encoding: 67 67 28
Width: 1183
VWidth: 1908
GlyphClass: 2
Flags: MW
HStem: -14 250<604 791> 1100 252<604 807 511 808>
VStem: 86 301<526 813 526 899>
AnchorPoint: "Anchor-1" 705 1335 basechar 0
AnchorPoint: "Anchor-0" 713 0 basechar 0
LayerCount: 2
Back
Fore
SplineSet
715 -14 m 0,0,1
 393 -14 393 -14 239.5 153 c 128,-1,2
 86 320 86 320 86 672 c 0,3,4
 86 1352 86 1352 723 1352 c 0,5,6
 810 1352 810 1352 900.5 1336 c 128,-1,7
 991 1320 991 1320 1056.5 1288.5 c 128,-1,8
 1122 1257 1122 1257 1122 1219 c 0,9,10
 1122 1176 1122 1176 1077 1107 c 128,-1,11
 1032 1038 1032 1038 997 1038 c 0,12,13
 992 1038 992 1038 958.5 1053.5 c 128,-1,14
 925 1069 925 1069 861 1084.5 c 128,-1,15
 797 1100 797 1100 717 1100 c 0,16,17
 549 1100 549 1100 468 993 c 128,-1,18
 387 886 387 886 387 670 c 0,19,20
 387 236 387 236 715 236 c 0,21,22
 794 236 794 236 865 255 c 128,-1,23
 936 274 936 274 977 292.5 c 128,-1,24
 1018 311 1018 311 1026 311 c 0,25,26
 1066 311 1066 311 1102.5 245 c 128,-1,27
 1139 179 1139 179 1139 145 c 0,28,29
 1139 104 1139 104 1095 72 c 128,-1,30
 1051 40 1051 40 983.5 22 c 128,-1,31
 916 4 916 4 846.5 -5 c 128,-1,32
 777 -14 777 -14 715 -14 c 0,0,1
EndSplineSet
Position2: "'cpsp' Capital Spacing lookup 0 subtable" dx=20 dy=0 dh=41 dv=0
EndChar

StartChar: Cacute
Encoding: 262 262 29
Width: 1183
VWidth: 1908
GlyphClass: 2
Flags: MW
HStem: -14 250<604 791> 1100 252<604 807 511 808> 1436 303<604 892>
VStem: 86 301<526 813 526 899>
AnchorPoint: "Anchor-1" 705 1335 basechar 0
AnchorPoint: "Anchor-0" 713 0 basechar 0
LayerCount: 2
Back
Fore
SplineSet
627 1436 m 0,0,1
 594 1436 594 1436 580.5 1442.5 c 128,-1,2
 567 1449 567 1449 567 1464 c 0,3,4
 567 1473 567 1473 577.5 1492 c 128,-1,5
 588 1511 588 1511 623 1569.5 c 128,-1,6
 658 1628 658 1628 692 1688 c 0,7,8
 722 1739 722 1739 854 1739 c 0,9,10
 969 1739 969 1739 969 1712 c 0,11,12
 969 1701 969 1701 959 1688 c 128,-1,13
 949 1675 949 1675 901 1624 c 0,14,15
 880 1601 880 1601 866 1586.5 c 128,-1,16
 852 1572 852 1572 824.5 1542.5 c 128,-1,17
 797 1513 797 1513 770 1483 c 0,18,19
 729 1436 729 1436 627 1436 c 0,0,1
715 -14 m 0,20,21
 393 -14 393 -14 239.5 153 c 128,-1,22
 86 320 86 320 86 672 c 0,23,24
 86 1352 86 1352 723 1352 c 0,25,26
 810 1352 810 1352 900.5 1336 c 128,-1,27
 991 1320 991 1320 1056.5 1288.5 c 128,-1,28
 1122 1257 1122 1257 1122 1219 c 0,29,30
 1122 1176 1122 1176 1077 1107 c 128,-1,31
 1032 1038 1032 1038 997 1038 c 0,32,33
 992 1038 992 1038 958.5 1053.5 c 128,-1,34
 925 1069 925 1069 861 1084.5 c 128,-1,35
 797 1100 797 1100 717 1100 c 0,36,37
 549 1100 549 1100 468 993 c 128,-1,38
 387 886 387 886 387 670 c 0,39,40
 387 236 387 236 715 236 c 0,41,42
 794 236 794 236 865 255 c 128,-1,43
 936 274 936 274 977 292.5 c 128,-1,44
 1018 311 1018 311 1026 311 c 0,45,46
 1066 311 1066 311 1102.5 245 c 128,-1,47
 1139 179 1139 179 1139 145 c 0,48,49
 1139 104 1139 104 1095 72 c 128,-1,50
 1051 40 1051 40 983.5 22 c 128,-1,51
 916 4 916 4 846.5 -5 c 128,-1,52
 777 -14 777 -14 715 -14 c 0,20,21
EndSplineSet
Substitution2: "'locl' Localized Forms in Latin lookup 14 subtable" Cacute.loclPLK
Substitution2: "'aalt' Access All Alternates lookup 0 subtable" Cacute.loclPLK
Position2: "'cpsp' Capital Spacing lookup 0 subtable" dx=20 dy=0 dh=41 dv=0
EndChar

StartChar: Ccaron
Encoding: 268 268 30
Width: 1183
VWidth: 1908
GlyphClass: 2
Flags: MW
HStem: -14 250<604 791> 1100 252<604 807 511 808> 1430 279<477 692 477 713>
VStem: 86 301<526 813 526 899>
AnchorPoint: "Anchor-1" 705 1335 basechar 0
AnchorPoint: "Anchor-0" 713 0 basechar 0
LayerCount: 2
Back
Fore
SplineSet
692 1430 m 2,0,1
 658 1430 658 1430 640 1431.5 c 128,-1,2
 622 1433 622 1433 603 1441 c 128,-1,3
 584 1449 584 1449 575 1466 c 2,4,-1
 451 1661 l 2,5,6
 440 1679 440 1679 440 1690 c 0,7,8
 440 1708 440 1708 477 1708 c 2,9,-1
 520 1708 l 2,10,11
 612 1708 612 1708 647 1661 c 2,12,-1
 700 1587 l 1,13,-1
 754 1663 l 2,14,15
 787 1708 787 1708 885 1708 c 2,16,-1
 926 1708 l 2,17,18
 965 1708 965 1708 965 1690 c 0,19,20
 965 1677 965 1677 952 1661 c 2,21,-1
 829 1466 l 2,22,23
 815 1442 815 1442 789 1436 c 128,-1,24
 763 1430 763 1430 713 1430 c 2,25,-1
 692 1430 l 2,0,1
715 -14 m 0,26,27
 393 -14 393 -14 239.5 153 c 128,-1,28
 86 320 86 320 86 672 c 0,29,30
 86 1352 86 1352 723 1352 c 0,31,32
 810 1352 810 1352 900.5 1336 c 128,-1,33
 991 1320 991 1320 1056.5 1288.5 c 128,-1,34
 1122 1257 1122 1257 1122 1219 c 0,35,36
 1122 1176 1122 1176 1077 1107 c 128,-1,37
 1032 1038 1032 1038 997 1038 c 0,38,39
 992 1038 992 1038 958.5 1053.5 c 128,-1,40
 925 1069 925 1069 861 1084.5 c 128,-1,41
 797 1100 797 1100 717 1100 c 0,42,43
 549 1100 549 1100 468 993 c 128,-1,44
 387 886 387 886 387 670 c 0,45,46
 387 236 387 236 715 236 c 0,47,48
 794 236 794 236 865 255 c 128,-1,49
 936 274 936 274 977 292.5 c 128,-1,50
 1018 311 1018 311 1026 311 c 0,51,52
 1066 311 1066 311 1102.5 245 c 128,-1,53
 1139 179 1139 179 1139 145 c 0,54,55
 1139 104 1139 104 1095 72 c 128,-1,56
 1051 40 1051 40 983.5 22 c 128,-1,57
 916 4 916 4 846.5 -5 c 128,-1,58
 777 -14 777 -14 715 -14 c 0,26,27
EndSplineSet
Position2: "'cpsp' Capital Spacing lookup 0 subtable" dx=20 dy=0 dh=41 dv=0
EndChar

StartChar: Ccedilla
Encoding: 199 199 31
Width: 1183
VWidth: 1908
GlyphClass: 2
Flags: MW
HStem: -406 139<625 680 624 754> -12 248<772 772> 1100 252<604 807 511 808>
VStem: 86 301<526 813 526 899> 709 197<-244 -209>
AnchorPoint: "Anchor-1" 705 1335 basechar 0
AnchorPoint: "Anchor-0" 713 0 basechar 0
LayerCount: 2
Back
Fore
SplineSet
1139 145 m 0,0,1
 1139 109 1139 109 1104 80 c 128,-1,2
 1069 51 1069 51 1012.5 32.5 c 128,-1,3
 956 14 956 14 895 3 c 128,-1,4
 834 -8 834 -8 772 -12 c 1,5,-1
 758 -70 l 1,6,7
 819 -77 819 -77 862 -112 c 128,-1,8
 905 -147 905 -147 905 -213 c 0,9,10
 905 -406 905 -406 678 -406 c 0,11,12
 589 -406 589 -406 508.5 -379 c 128,-1,13
 428 -352 428 -352 428 -309 c 128,-1,14
 428 -266 428 -266 450 -245.5 c 128,-1,15
 472 -225 472 -225 489 -225 c 128,-1,16
 506 -225 506 -225 562.5 -245.5 c 128,-1,17
 619 -266 619 -266 664 -266 c 128,-1,18
 709 -266 709 -266 709 -233 c 0,19,20
 709 -217 709 -217 693 -204.5 c 128,-1,21
 677 -192 677 -192 658.5 -185.5 c 128,-1,22
 640 -179 640 -179 624 -167.5 c 128,-1,23
 608 -156 608 -156 608 -141 c 0,24,25
 608 -131 608 -131 645 -12 c 1,26,27
 359 5 359 5 222.5 172 c 128,-1,28
 86 339 86 339 86 672 c 0,29,30
 86 1352 86 1352 723 1352 c 0,31,32
 810 1352 810 1352 900.5 1336 c 128,-1,33
 991 1320 991 1320 1056.5 1288.5 c 128,-1,34
 1122 1257 1122 1257 1122 1219 c 0,35,36
 1122 1176 1122 1176 1077 1107 c 128,-1,37
 1032 1038 1032 1038 997 1038 c 0,38,39
 992 1038 992 1038 958.5 1053.5 c 128,-1,40
 925 1069 925 1069 861 1084.5 c 128,-1,41
 797 1100 797 1100 717 1100 c 0,42,43
 549 1100 549 1100 468 993 c 128,-1,44
 387 886 387 886 387 670 c 0,45,46
 387 236 387 236 715 236 c 0,47,48
 794 236 794 236 865 255 c 128,-1,49
 936 274 936 274 977 292.5 c 128,-1,50
 1018 311 1018 311 1026 311 c 0,51,52
 1066 311 1066 311 1102.5 245 c 128,-1,53
 1139 179 1139 179 1139 145 c 0,0,1
EndSplineSet
Position2: "'cpsp' Capital Spacing lookup 0 subtable" dx=20 dy=0 dh=41 dv=0
EndChar

StartChar: Ccircumflex
Encoding: 264 264 32
Width: 1183
VWidth: 1908
GlyphClass: 2
Flags: MW
HStem: -14 250<604 791> 1100 252<604 807 511 808> 1430 279<464 713 477 713 692 885 692 926>
VStem: 86 301<526 813 526 899>
AnchorPoint: "Anchor-1" 1024 1552 basechar 0
AnchorPoint: "Anchor-0" 713 0 basechar 0
LayerCount: 2
Back
Fore
SplineSet
477 1430 m 2,0,1
 440 1430 440 1430 440 1448 c 0,2,3
 440 1459 440 1459 451 1477 c 2,4,-1
 575 1671 l 2,5,6
 589 1695 589 1695 615.5 1701.5 c 128,-1,7
 642 1708 642 1708 692 1708 c 2,8,-1
 713 1708 l 2,9,10
 762 1708 762 1708 788.5 1701.5 c 128,-1,11
 815 1695 815 1695 829 1671 c 2,12,-1
 952 1477 l 2,13,14
 965 1461 965 1461 965 1448 c 0,15,16
 965 1430 965 1430 926 1430 c 2,17,-1
 885 1430 l 2,18,19
 789 1430 789 1430 754 1475 c 2,20,-1
 700 1552 l 1,21,-1
 647 1477 l 2,22,23
 612 1430 612 1430 520 1430 c 2,24,-1
 477 1430 l 2,0,1
715 -14 m 0,25,26
 393 -14 393 -14 239.5 153 c 128,-1,27
 86 320 86 320 86 672 c 0,28,29
 86 1352 86 1352 723 1352 c 0,30,31
 810 1352 810 1352 900.5 1336 c 128,-1,32
 991 1320 991 1320 1056.5 1288.5 c 128,-1,33
 1122 1257 1122 1257 1122 1219 c 0,34,35
 1122 1176 1122 1176 1077 1107 c 128,-1,36
 1032 1038 1032 1038 997 1038 c 0,37,38
 992 1038 992 1038 958.5 1053.5 c 128,-1,39
 925 1069 925 1069 861 1084.5 c 128,-1,40
 797 1100 797 1100 717 1100 c 0,41,42
 549 1100 549 1100 468 993 c 128,-1,43
 387 886 387 886 387 670 c 0,44,45
 387 236 387 236 715 236 c 0,46,47
 794 236 794 236 865 255 c 128,-1,48
 936 274 936 274 977 292.5 c 128,-1,49
 1018 311 1018 311 1026 311 c 0,50,51
 1066 311 1066 311 1102.5 245 c 128,-1,52
 1139 179 1139 179 1139 145 c 0,53,54
 1139 104 1139 104 1095 72 c 128,-1,55
 1051 40 1051 40 983.5 22 c 128,-1,56
 916 4 916 4 846.5 -5 c 128,-1,57
 777 -14 777 -14 715 -14 c 0,25,26
EndSplineSet
Position2: "'cpsp' Capital Spacing lookup 0 subtable" dx=20 dy=0 dh=41 dv=0
EndChar

StartChar: Cdotaccent
Encoding: 266 266 33
Width: 1183
VWidth: 1908
GlyphClass: 2
Flags: MW
HStem: -14 250<604 791> 1100 252<604 807 511 808> 1442 174<588 742>
VStem: 86 301<526 813 526 899> 588 229<1503 1616 1483 1636>
AnchorPoint: "Anchor-1" 705 1335 basechar 0
AnchorPoint: "Anchor-0" 713 0 basechar 0
LayerCount: 2
Back
Fore
SplineSet
702 1442 m 0,0,1
 588 1442 588 1442 588 1503 c 2,2,-1
 588 1616 l 2,3,4
 588 1677 588 1677 702 1677 c 0,5,6
 817 1677 817 1677 817 1616 c 2,7,-1
 817 1503 l 2,8,9
 817 1442 817 1442 702 1442 c 0,0,1
715 -14 m 0,10,11
 393 -14 393 -14 239.5 153 c 128,-1,12
 86 320 86 320 86 672 c 0,13,14
 86 1352 86 1352 723 1352 c 0,15,16
 810 1352 810 1352 900.5 1336 c 128,-1,17
 991 1320 991 1320 1056.5 1288.5 c 128,-1,18
 1122 1257 1122 1257 1122 1219 c 0,19,20
 1122 1176 1122 1176 1077 1107 c 128,-1,21
 1032 1038 1032 1038 997 1038 c 0,22,23
 992 1038 992 1038 958.5 1053.5 c 128,-1,24
 925 1069 925 1069 861 1084.5 c 128,-1,25
 797 1100 797 1100 717 1100 c 0,26,27
 549 1100 549 1100 468 993 c 128,-1,28
 387 886 387 886 387 670 c 0,29,30
 387 236 387 236 715 236 c 0,31,32
 794 236 794 236 865 255 c 128,-1,33
 936 274 936 274 977 292.5 c 128,-1,34
 1018 311 1018 311 1026 311 c 0,35,36
 1066 311 1066 311 1102.5 245 c 128,-1,37
 1139 179 1139 179 1139 145 c 0,38,39
 1139 104 1139 104 1095 72 c 128,-1,40
 1051 40 1051 40 983.5 22 c 128,-1,41
 916 4 916 4 846.5 -5 c 128,-1,42
 777 -14 777 -14 715 -14 c 0,10,11
EndSplineSet
Position2: "'cpsp' Capital Spacing lookup 0 subtable" dx=20 dy=0 dh=41 dv=0
EndChar

StartChar: D
Encoding: 68 68 34
Width: 1327
VWidth: 1908
GlyphClass: 2
Flags: MW
HStem: 0 250<181 635 428 635 428 635> 1085 250<428 635 428 428>
VStem: 131 297<250 250 250 1085> 944 303<532 804>
AnchorPoint: "Anchor-1" 635 1335 basechar 0
AnchorPoint: "Anchor-0" 631 0 basechar 0
LayerCount: 2
Back
Fore
SplineSet
209 0 m 2,0,1
 168 0 168 0 149.5 18 c 128,-1,2
 131 36 131 36 131 76 c 2,3,-1
 131 1260 l 2,4,5
 131 1300 131 1300 149.5 1317.5 c 128,-1,6
 168 1335 168 1335 209 1335 c 2,7,-1
 635 1335 l 2,8,9
 930 1335 930 1335 1088.5 1163 c 128,-1,10
 1247 991 1247 991 1247 668 c 0,11,12
 1247 346 1247 346 1088.5 173 c 128,-1,13
 930 0 930 0 635 0 c 2,14,-1
 209 0 l 2,0,1
428 250 m 1,15,-1
 635 250 l 2,16,17
 788 250 788 250 866 357 c 128,-1,18
 944 464 944 464 944 668 c 0,19,20
 944 873 944 873 866 979 c 128,-1,21
 788 1085 788 1085 635 1085 c 2,22,-1
 428 1085 l 1,23,-1
 428 250 l 1,15,-1
EndSplineSet
Position2: "'cpsp' Capital Spacing lookup 0 subtable" dx=20 dy=0 dh=41 dv=0
EndChar

StartChar: uni01F1
Encoding: 497 497 35
Width: 2502
VWidth: 1908
GlyphClass: 2
Flags: MW
HStem: 0 250<181 635 428 635 428 635 1794 2378> 1085 250<428 635 428 428 1491 2021>
VStem: 131 297<250 250 250 1085> 944 303<532 804>
AnchorPoint: "Anchor-1" 1917 1335 basechar 0
AnchorPoint: "Anchor-0" 1896 0 basechar 0
LayerCount: 2
Back
Fore
SplineSet
209 0 m 2,0,1
 168 0 168 0 149.5 18 c 128,-1,2
 131 36 131 36 131 76 c 2,3,-1
 131 1260 l 2,4,5
 131 1300 131 1300 149.5 1317.5 c 128,-1,6
 168 1335 168 1335 209 1335 c 2,7,-1
 635 1335 l 2,8,9
 930 1335 930 1335 1088.5 1163 c 128,-1,10
 1247 991 1247 991 1247 668 c 0,11,12
 1247 346 1247 346 1088.5 173 c 128,-1,13
 930 0 930 0 635 0 c 2,14,-1
 209 0 l 2,0,1
1454 0 m 2,15,16
 1431 0 1431 0 1404.5 64 c 128,-1,17
 1378 128 1378 128 1378 170 c 0,18,19
 1378 180 1378 180 1382 188 c 2,20,-1
 2021 1085 l 1,21,-1
 1491 1085 l 2,22,23
 1434 1085 1434 1085 1434 1182 c 2,24,-1
 1434 1241 l 2,25,26
 1434 1335 1434 1335 1491 1335 c 2,27,-1
 2363 1335 l 2,28,29
 2385 1335 2385 1335 2410 1268.5 c 128,-1,30
 2435 1202 2435 1202 2435 1161 c 0,31,32
 2435 1149 2435 1149 2433 1145 c 2,33,-1
 1794 250 l 1,34,-1
 2378 250 l 2,35,36
 2408 250 2408 250 2421.5 227.5 c 128,-1,37
 2435 205 2435 205 2435 154 c 2,38,-1
 2435 96 l 2,39,40
 2435 45 2435 45 2421.5 22.5 c 128,-1,41
 2408 0 2408 0 2378 0 c 2,42,-1
 1454 0 l 2,15,16
428 250 m 1,43,-1
 635 250 l 2,44,45
 788 250 788 250 866 357 c 128,-1,46
 944 464 944 464 944 668 c 0,47,48
 944 873 944 873 866 979 c 128,-1,49
 788 1085 788 1085 635 1085 c 2,50,-1
 428 1085 l 1,51,-1
 428 250 l 1,43,-1
EndSplineSet
Position2: "'cpsp' Capital Spacing lookup 0 subtable" dx=20 dy=0 dh=41 dv=0
EndChar

StartChar: uni01C4
Encoding: 452 452 36
Width: 2502
VWidth: 1908
GlyphClass: 2
Flags: MW
HStem: 0 250<181 635 428 635 428 635 1794 2378> 1085 250<428 635 428 428 1491 2021> 1430 279<1690 1905 1690 1925>
VStem: 131 297<250 250 250 1085> 944 303<532 804>
AnchorPoint: "Anchor-1" 1917 1335 basechar 0
AnchorPoint: "Anchor-0" 1896 0 basechar 0
LayerCount: 2
Back
Fore
SplineSet
1905 1430 m 2,0,1
 1871 1430 1871 1430 1853 1431.5 c 128,-1,2
 1835 1433 1835 1433 1816 1441 c 128,-1,3
 1797 1449 1797 1449 1788 1466 c 2,4,-1
 1663 1661 l 2,5,6
 1653 1678 1653 1678 1653 1690 c 0,7,8
 1653 1708 1653 1708 1690 1708 c 2,9,-1
 1733 1708 l 2,10,11
 1825 1708 1825 1708 1860 1661 c 2,12,-1
 1913 1587 l 1,13,-1
 1966 1663 l 2,14,15
 1999 1708 1999 1708 2097 1708 c 2,16,-1
 2138 1708 l 2,17,18
 2177 1708 2177 1708 2177 1690 c 0,19,20
 2177 1676 2177 1676 2165 1661 c 2,21,-1
 2042 1466 l 2,22,23
 2028 1442 2028 1442 2002 1436 c 128,-1,24
 1976 1430 1976 1430 1925 1430 c 2,25,-1
 1905 1430 l 2,0,1
209 0 m 2,26,27
 168 0 168 0 149.5 18 c 128,-1,28
 131 36 131 36 131 76 c 2,29,-1
 131 1260 l 2,30,31
 131 1300 131 1300 149.5 1317.5 c 128,-1,32
 168 1335 168 1335 209 1335 c 2,33,-1
 635 1335 l 2,34,35
 930 1335 930 1335 1088.5 1163 c 128,-1,36
 1247 991 1247 991 1247 668 c 0,37,38
 1247 346 1247 346 1088.5 173 c 128,-1,39
 930 0 930 0 635 0 c 2,40,-1
 209 0 l 2,26,27
1454 0 m 2,41,42
 1431 0 1431 0 1404.5 64 c 128,-1,43
 1378 128 1378 128 1378 170 c 0,44,45
 1378 180 1378 180 1382 188 c 2,46,-1
 2021 1085 l 1,47,-1
 1491 1085 l 2,48,49
 1434 1085 1434 1085 1434 1182 c 2,50,-1
 1434 1241 l 2,51,52
 1434 1335 1434 1335 1491 1335 c 2,53,-1
 2363 1335 l 2,54,55
 2385 1335 2385 1335 2410 1268.5 c 128,-1,56
 2435 1202 2435 1202 2435 1161 c 0,57,58
 2435 1149 2435 1149 2433 1145 c 2,59,-1
 1794 250 l 1,60,-1
 2378 250 l 2,61,62
 2408 250 2408 250 2421.5 227.5 c 128,-1,63
 2435 205 2435 205 2435 154 c 2,64,-1
 2435 96 l 2,65,66
 2435 45 2435 45 2421.5 22.5 c 128,-1,67
 2408 0 2408 0 2378 0 c 2,68,-1
 1454 0 l 2,41,42
428 250 m 1,69,-1
 635 250 l 2,70,71
 788 250 788 250 866 357 c 128,-1,72
 944 464 944 464 944 668 c 0,73,74
 944 873 944 873 866 979 c 128,-1,75
 788 1085 788 1085 635 1085 c 2,76,-1
 428 1085 l 1,77,-1
 428 250 l 1,69,-1
EndSplineSet
Position2: "'cpsp' Capital Spacing lookup 0 subtable" dx=20 dy=0 dh=41 dv=0
EndChar

StartChar: Eth
Encoding: 208 208 37
Width: 1331
VWidth: 1908
GlyphClass: 2
Flags: MW
HStem: 0 250<184 639 432 639 432 639> 555 248<60 135 80 135 432 545> 1085 250<432 639 432 432>
VStem: 135 297<250 250 250 555 803 1085> 948 301<532 804>
LayerCount: 2
Back
Fore
SplineSet
211 0 m 2,0,1
 171 0 171 0 153 18 c 128,-1,2
 135 36 135 36 135 76 c 2,3,-1
 135 555 l 1,4,-1
 80 555 l 2,5,6
 50 555 50 555 36.5 577.5 c 128,-1,7
 23 600 23 600 23 651 c 2,8,-1
 23 709 l 2,9,10
 23 803 23 803 80 803 c 2,11,-1
 135 803 l 1,12,-1
 135 1260 l 2,13,14
 135 1300 135 1300 153 1317.5 c 128,-1,15
 171 1335 171 1335 211 1335 c 2,16,-1
 639 1335 l 2,17,18
 934 1335 934 1335 1091.5 1163.5 c 128,-1,19
 1249 992 1249 992 1249 668 c 0,20,21
 1249 345 1249 345 1091.5 172.5 c 128,-1,22
 934 0 934 0 639 0 c 2,23,-1
 211 0 l 2,0,1
432 250 m 1,24,-1
 639 250 l 2,25,26
 792 250 792 250 870 357 c 128,-1,27
 948 464 948 464 948 668 c 0,28,29
 948 873 948 873 870 979 c 128,-1,30
 792 1085 792 1085 639 1085 c 2,31,-1
 432 1085 l 1,32,-1
 432 803 l 1,33,-1
 545 803 l 2,34,35
 602 803 602 803 602 709 c 2,36,-1
 602 651 l 2,37,38
 602 600 602 600 588.5 577.5 c 128,-1,39
 575 555 575 555 545 555 c 2,40,-1
 432 555 l 1,41,-1
 432 250 l 1,24,-1
EndSplineSet
Position2: "'cpsp' Capital Spacing lookup 0 subtable" dx=20 dy=0 dh=41 dv=0
EndChar

StartChar: Dcaron
Encoding: 270 270 38
Width: 1327
VWidth: 1908
GlyphClass: 2
Flags: MW
HStem: 0 250<181 635 428 635 428 635> 1085 250<428 635 428 428> 1430 279<410 625 410 645>
VStem: 131 297<250 250 250 1085> 944 303<532 804>
AnchorPoint: "Anchor-1" 635 1335 basechar 0
AnchorPoint: "Anchor-0" 631 0 basechar 0
LayerCount: 2
Back
Fore
SplineSet
625 1430 m 2,0,1
 591 1430 591 1430 573 1431.5 c 128,-1,2
 555 1433 555 1433 536 1441 c 128,-1,3
 517 1449 517 1449 508 1466 c 2,4,-1
 383 1661 l 2,5,6
 373 1678 373 1678 373 1690 c 0,7,8
 373 1708 373 1708 410 1708 c 2,9,-1
 453 1708 l 2,10,11
 545 1708 545 1708 580 1661 c 2,12,-1
 633 1587 l 1,13,-1
 686 1663 l 2,14,15
 719 1708 719 1708 817 1708 c 2,16,-1
 858 1708 l 2,17,18
 897 1708 897 1708 897 1690 c 0,19,20
 897 1676 897 1676 885 1661 c 2,21,-1
 762 1466 l 2,22,23
 748 1442 748 1442 722 1436 c 128,-1,24
 696 1430 696 1430 645 1430 c 2,25,-1
 625 1430 l 2,0,1
209 0 m 2,26,27
 168 0 168 0 149.5 18 c 128,-1,28
 131 36 131 36 131 76 c 2,29,-1
 131 1260 l 2,30,31
 131 1300 131 1300 149.5 1317.5 c 128,-1,32
 168 1335 168 1335 209 1335 c 2,33,-1
 635 1335 l 2,34,35
 930 1335 930 1335 1088.5 1163 c 128,-1,36
 1247 991 1247 991 1247 668 c 0,37,38
 1247 346 1247 346 1088.5 173 c 128,-1,39
 930 0 930 0 635 0 c 2,40,-1
 209 0 l 2,26,27
428 250 m 1,41,-1
 635 250 l 2,42,43
 788 250 788 250 866 357 c 128,-1,44
 944 464 944 464 944 668 c 0,45,46
 944 873 944 873 866 979 c 128,-1,47
 788 1085 788 1085 635 1085 c 2,48,-1
 428 1085 l 1,49,-1
 428 250 l 1,41,-1
EndSplineSet
Position2: "'cpsp' Capital Spacing lookup 0 subtable" dx=20 dy=0 dh=41 dv=0
EndChar

StartChar: Dcroat
Encoding: 272 272 39
Width: 1331
VWidth: 1908
GlyphClass: 2
Flags: MW
HStem: 0 250<184 639 432 639 432 639> 555 248<60 135 80 135 432 545> 1085 250<432 639 432 432>
VStem: 135 297<250 250 250 555 803 1085> 948 301<532 804>
LayerCount: 2
Back
Fore
SplineSet
211 0 m 2,0,1
 171 0 171 0 153 18 c 128,-1,2
 135 36 135 36 135 76 c 2,3,-1
 135 555 l 1,4,-1
 80 555 l 2,5,6
 50 555 50 555 36.5 577.5 c 128,-1,7
 23 600 23 600 23 651 c 2,8,-1
 23 709 l 2,9,10
 23 803 23 803 80 803 c 2,11,-1
 135 803 l 1,12,-1
 135 1260 l 2,13,14
 135 1300 135 1300 153 1317.5 c 128,-1,15
 171 1335 171 1335 211 1335 c 2,16,-1
 639 1335 l 2,17,18
 934 1335 934 1335 1091.5 1163.5 c 128,-1,19
 1249 992 1249 992 1249 668 c 0,20,21
 1249 345 1249 345 1091.5 172.5 c 128,-1,22
 934 0 934 0 639 0 c 2,23,-1
 211 0 l 2,0,1
432 250 m 1,24,-1
 639 250 l 2,25,26
 792 250 792 250 870 357 c 128,-1,27
 948 464 948 464 948 668 c 0,28,29
 948 873 948 873 870 979 c 128,-1,30
 792 1085 792 1085 639 1085 c 2,31,-1
 432 1085 l 1,32,-1
 432 803 l 1,33,-1
 545 803 l 2,34,35
 602 803 602 803 602 709 c 2,36,-1
 602 651 l 2,37,38
 602 600 602 600 588.5 577.5 c 128,-1,39
 575 555 575 555 545 555 c 2,40,-1
 432 555 l 1,41,-1
 432 250 l 1,24,-1
EndSplineSet
Position2: "'cpsp' Capital Spacing lookup 0 subtable" dx=20 dy=0 dh=41 dv=0
EndChar

StartChar: uni1E0C
Encoding: 7692 7692 40
Width: 1327
VWidth: 1908
GlyphClass: 2
Flags: MW
HStem: -389 174<520 675> 0 250<181 635 428 635 428 635> 1085 250<428 635 428 428>
VStem: 131 297<250 250 250 1085> 520 229<-328 -215 -348 -195> 944 303<532 804>
AnchorPoint: "Anchor-1" 635 1335 basechar 0
AnchorPoint: "Anchor-0" 635 -389 basechar 0
LayerCount: 2
Back
Fore
SplineSet
209 0 m 2,0,1
 168 0 168 0 149.5 18 c 128,-1,2
 131 36 131 36 131 76 c 2,3,-1
 131 1260 l 2,4,5
 131 1300 131 1300 149.5 1317.5 c 128,-1,6
 168 1335 168 1335 209 1335 c 2,7,-1
 635 1335 l 2,8,9
 930 1335 930 1335 1088.5 1163 c 128,-1,10
 1247 991 1247 991 1247 668 c 0,11,12
 1247 346 1247 346 1088.5 173 c 128,-1,13
 930 0 930 0 635 0 c 2,14,-1
 209 0 l 2,0,1
428 250 m 1,15,-1
 635 250 l 2,16,17
 788 250 788 250 866 357 c 128,-1,18
 944 464 944 464 944 668 c 0,19,20
 944 873 944 873 866 979 c 128,-1,21
 788 1085 788 1085 635 1085 c 2,22,-1
 428 1085 l 1,23,-1
 428 250 l 1,15,-1
635 -389 m 128,-1,25
 520 -389 520 -389 520 -328 c 2,26,-1
 520 -215 l 2,27,28
 520 -154 520 -154 635 -154 c 128,-1,29
 750 -154 750 -154 750 -215 c 2,30,-1
 750 -328 l 2,31,24
 750 -389 750 -389 635 -389 c 128,-1,25
EndSplineSet
Position2: "'cpsp' Capital Spacing lookup 0 subtable" dx=20 dy=0 dh=41 dv=0
EndChar

StartChar: uni01F2
Encoding: 498 498 41
Width: 2260
VWidth: 1908
GlyphClass: 2
Flags: MW
HStem: 0 223<1757 2148 1757 2148> 0 250<181 635 428 635 428 635> 774 223<1446 2142 1466 1821> 1085 250<428 635 428 428>
VStem: 131 297<250 250 250 1085> 944 303<532 804>
AnchorPoint: "Anchor-1" 1794 999 basechar 0
AnchorPoint: "Anchor-0" 1786 0 basechar 0
LayerCount: 2
Back
Fore
SplineSet
209 0 m 2,0,1
 168 0 168 0 149.5 18 c 128,-1,2
 131 36 131 36 131 76 c 2,3,-1
 131 1260 l 2,4,5
 131 1300 131 1300 149.5 1317.5 c 128,-1,6
 168 1335 168 1335 209 1335 c 2,7,-1
 635 1335 l 2,8,9
 930 1335 930 1335 1088.5 1163 c 128,-1,10
 1247 991 1247 991 1247 668 c 0,11,12
 1247 346 1247 346 1088.5 173 c 128,-1,13
 930 0 930 0 635 0 c 2,14,-1
 209 0 l 2,0,1
428 250 m 1,15,-1
 635 250 l 2,16,17
 788 250 788 250 866 357 c 128,-1,18
 944 464 944 464 944 668 c 0,19,20
 944 873 944 873 866 979 c 128,-1,21
 788 1085 788 1085 635 1085 c 2,22,-1
 428 1085 l 1,23,-1
 428 250 l 1,15,-1
1434 0 m 2,24,25
 1416 0 1416 0 1397 53 c 128,-1,26
 1378 106 1378 106 1378 145 c 0,27,28
 1378 163 1378 163 1384 172 c 2,29,-1
 1821 774 l 1,30,-1
 1466 774 l 2,31,32
 1435 774 1435 774 1422 796.5 c 128,-1,33
 1409 819 1409 819 1409 870 c 2,34,-1
 1409 903 l 2,35,36
 1409 953 1409 953 1422 975 c 128,-1,37
 1435 997 1435 997 1466 997 c 2,38,-1
 2142 997 l 2,39,40
 2157 997 2157 997 2177.5 944.5 c 128,-1,41
 2198 892 2198 892 2198 852 c 0,42,43
 2198 830 2198 830 2191 823 c 2,44,-1
 1757 223 l 1,45,-1
 2148 223 l 2,46,47
 2206 223 2206 223 2206 127 c 2,48,-1
 2206 96 l 2,49,50
 2206 0 2206 0 2148 0 c 2,51,-1
 1434 0 l 2,24,25
EndSplineSet
Position2: "'cpsp' Capital Spacing lookup 0 subtable" dx=20 dy=0 dh=41 dv=0
EndChar

StartChar: uni01C5
Encoding: 453 453 42
Width: 2260
VWidth: 1908
GlyphClass: 2
Flags: MW
HStem: 0 223<1757 2148 1757 2148> 0 250<181 635 428 635 428 635> 774 223<1446 2142 1466 1821> 1085 250<428 635 428 428> 1092 279<1569 1784 1569 1804>
VStem: 131 297<250 250 250 1085> 944 303<532 804>
AnchorPoint: "Anchor-1" 1794 999 basechar 0
AnchorPoint: "Anchor-0" 1786 0 basechar 0
LayerCount: 2
Back
Fore
SplineSet
1784 1092 m 2,0,1
 1750 1092 1750 1092 1732 1093.5 c 128,-1,2
 1714 1095 1714 1095 1695 1103 c 128,-1,3
 1676 1111 1676 1111 1667 1128 c 2,4,-1
 1542 1323 l 2,5,6
 1532 1340 1532 1340 1532 1352 c 0,7,8
 1532 1370 1532 1370 1569 1370 c 2,9,-1
 1612 1370 l 2,10,11
 1704 1370 1704 1370 1739 1323 c 2,12,-1
 1792 1249 l 1,13,-1
 1845 1325 l 2,14,15
 1878 1370 1878 1370 1976 1370 c 2,16,-1
 2017 1370 l 2,17,18
 2056 1370 2056 1370 2056 1352 c 0,19,20
 2056 1338 2056 1338 2044 1323 c 2,21,-1
 1921 1128 l 2,22,23
 1907 1104 1907 1104 1881 1098 c 128,-1,24
 1855 1092 1855 1092 1804 1092 c 2,25,-1
 1784 1092 l 2,0,1
209 0 m 2,26,27
 168 0 168 0 149.5 18 c 128,-1,28
 131 36 131 36 131 76 c 2,29,-1
 131 1260 l 2,30,31
 131 1300 131 1300 149.5 1317.5 c 128,-1,32
 168 1335 168 1335 209 1335 c 2,33,-1
 635 1335 l 2,34,35
 930 1335 930 1335 1088.5 1163 c 128,-1,36
 1247 991 1247 991 1247 668 c 0,37,38
 1247 346 1247 346 1088.5 173 c 128,-1,39
 930 0 930 0 635 0 c 2,40,-1
 209 0 l 2,26,27
428 250 m 1,41,-1
 635 250 l 2,42,43
 788 250 788 250 866 357 c 128,-1,44
 944 464 944 464 944 668 c 0,45,46
 944 873 944 873 866 979 c 128,-1,47
 788 1085 788 1085 635 1085 c 2,48,-1
 428 1085 l 1,49,-1
 428 250 l 1,41,-1
1434 0 m 2,50,51
 1416 0 1416 0 1397 53 c 128,-1,52
 1378 106 1378 106 1378 145 c 0,53,54
 1378 163 1378 163 1384 172 c 2,55,-1
 1821 774 l 1,56,-1
 1466 774 l 2,57,58
 1435 774 1435 774 1422 796.5 c 128,-1,59
 1409 819 1409 819 1409 870 c 2,60,-1
 1409 903 l 2,61,62
 1409 953 1409 953 1422 975 c 128,-1,63
 1435 997 1435 997 1466 997 c 2,64,-1
 2142 997 l 2,65,66
 2157 997 2157 997 2177.5 944.5 c 128,-1,67
 2198 892 2198 892 2198 852 c 0,68,69
 2198 830 2198 830 2191 823 c 2,70,-1
 1757 223 l 1,71,-1
 2148 223 l 2,72,73
 2206 223 2206 223 2206 127 c 2,74,-1
 2206 96 l 2,75,76
 2206 0 2206 0 2148 0 c 2,77,-1
 1434 0 l 2,50,51
EndSplineSet
Position2: "'cpsp' Capital Spacing lookup 0 subtable" dx=20 dy=0 dh=41 dv=0
EndChar

StartChar: E
Encoding: 69 69 43
Width: 1044
VWidth: 1908
GlyphClass: 2
Flags: MW
HStem: 0 250<181 909 426 909 426 909> 559 250<426 856 426 856> 1085 250<426 907 426 426>
VStem: 131 295<250 559 809 1085>
AnchorPoint: "Anchor-1" 565 1335 basechar 0
AnchorPoint: "Anchor-0" 549 0 basechar 0
LayerCount: 2
Back
Fore
SplineSet
209 0 m 2,0,1
 168 0 168 0 149.5 18 c 128,-1,2
 131 36 131 36 131 76 c 2,3,-1
 131 1260 l 2,4,5
 131 1300 131 1300 149.5 1317.5 c 128,-1,6
 168 1335 168 1335 209 1335 c 2,7,-1
 907 1335 l 2,8,9
 965 1335 965 1335 965 1241 c 2,10,-1
 965 1182 l 2,11,12
 965 1085 965 1085 907 1085 c 2,13,-1
 426 1085 l 1,14,-1
 426 809 l 1,15,-1
 856 809 l 2,16,17
 885 809 885 809 898 787 c 128,-1,18
 911 765 911 765 911 715 c 2,19,-1
 911 655 l 2,20,21
 911 604 911 604 898 581.5 c 128,-1,22
 885 559 885 559 856 559 c 2,23,-1
 426 559 l 1,24,-1
 426 250 l 1,25,-1
 909 250 l 2,26,27
 967 250 967 250 967 154 c 2,28,-1
 967 96 l 2,29,30
 967 0 967 0 909 0 c 2,31,-1
 209 0 l 2,0,1
EndSplineSet
Position2: "'cpsp' Capital Spacing lookup 0 subtable" dx=20 dy=0 dh=41 dv=0
EndChar

StartChar: Eacute
Encoding: 201 201 44
Width: 1044
VWidth: 1908
GlyphClass: 2
Flags: MW
HStem: 0 250<181 909 426 909 426 909> 559 250<426 856 426 856> 1085 250<426 907 426 426> 1436 303<465 753>
VStem: 131 295<250 559 809 1085>
AnchorPoint: "Anchor-1" 565 1335 basechar 0
AnchorPoint: "Anchor-0" 549 0 basechar 0
LayerCount: 2
Back
Fore
SplineSet
487 1436 m 0,0,1
 454 1436 454 1436 441 1442.5 c 128,-1,2
 428 1449 428 1449 428 1464 c 0,3,4
 428 1473 428 1473 438.5 1492 c 128,-1,5
 449 1511 449 1511 484 1569.5 c 128,-1,6
 519 1628 519 1628 553 1688 c 0,7,8
 583 1739 583 1739 715 1739 c 0,9,10
 829 1739 829 1739 829 1712 c 0,11,12
 829 1700 829 1700 816 1684 c 128,-1,13
 803 1668 803 1668 756 1617 c 0,14,15
 687 1544 687 1544 631 1483 c 0,16,17
 590 1436 590 1436 487 1436 c 0,0,1
209 0 m 2,18,19
 168 0 168 0 149.5 18 c 128,-1,20
 131 36 131 36 131 76 c 2,21,-1
 131 1260 l 2,22,23
 131 1300 131 1300 149.5 1317.5 c 128,-1,24
 168 1335 168 1335 209 1335 c 2,25,-1
 907 1335 l 2,26,27
 965 1335 965 1335 965 1241 c 2,28,-1
 965 1182 l 2,29,30
 965 1085 965 1085 907 1085 c 2,31,-1
 426 1085 l 1,32,-1
 426 809 l 1,33,-1
 856 809 l 2,34,35
 885 809 885 809 898 787 c 128,-1,36
 911 765 911 765 911 715 c 2,37,-1
 911 655 l 2,38,39
 911 604 911 604 898 581.5 c 128,-1,40
 885 559 885 559 856 559 c 2,41,-1
 426 559 l 1,42,-1
 426 250 l 1,43,-1
 909 250 l 2,44,45
 967 250 967 250 967 154 c 2,46,-1
 967 96 l 2,47,48
 967 0 967 0 909 0 c 2,49,-1
 209 0 l 2,18,19
EndSplineSet
Position2: "'cpsp' Capital Spacing lookup 0 subtable" dx=20 dy=0 dh=41 dv=0
EndChar

StartChar: Ebreve
Encoding: 276 276 45
Width: 1044
VWidth: 1908
GlyphClass: 2
Flags: MW
HStem: 0 250<181 909 426 909 426 909> 559 250<426 856 426 856> 1085 250<426 907 426 426> 1436 174<515 615 515 646>
VStem: 131 295<250 559 809 1085> 283 561<1594 1666>
AnchorPoint: "Anchor-1" 565 1647 basechar 0
AnchorPoint: "Anchor-0" 549 0 basechar 0
LayerCount: 2
Back
Fore
SplineSet
563 1436 m 128,-1,1
 442 1436 442 1436 362.5 1500 c 128,-1,2
 283 1564 283 1564 283 1649 c 0,3,4
 283 1702 283 1702 350 1702 c 0,5,6
 365 1702 365 1702 378 1696.5 c 128,-1,7
 391 1691 391 1691 396 1686.5 c 128,-1,8
 401 1682 401 1682 414 1669 c 0,9,10
 432 1650 432 1650 443.5 1640.5 c 128,-1,11
 455 1631 455 1631 487 1620.5 c 128,-1,12
 519 1610 519 1610 563 1610 c 0,13,14
 600 1610 600 1610 626.5 1615 c 128,-1,15
 653 1620 653 1620 671.5 1631.5 c 128,-1,16
 690 1643 690 1643 697.5 1649 c 128,-1,17
 705 1655 705 1655 719 1671 c 0,18,19
 743 1702 743 1702 778 1702 c 0,20,21
 844 1702 844 1702 844 1649 c 0,22,23
 844 1564 844 1564 764 1500 c 128,-1,0
 684 1436 684 1436 563 1436 c 128,-1,1
209 0 m 2,24,25
 168 0 168 0 149.5 18 c 128,-1,26
 131 36 131 36 131 76 c 2,27,-1
 131 1260 l 2,28,29
 131 1300 131 1300 149.5 1317.5 c 128,-1,30
 168 1335 168 1335 209 1335 c 2,31,-1
 907 1335 l 2,32,33
 965 1335 965 1335 965 1241 c 2,34,-1
 965 1182 l 2,35,36
 965 1085 965 1085 907 1085 c 2,37,-1
 426 1085 l 1,38,-1
 426 809 l 1,39,-1
 856 809 l 2,40,41
 885 809 885 809 898 787 c 128,-1,42
 911 765 911 765 911 715 c 2,43,-1
 911 655 l 2,44,45
 911 604 911 604 898 581.5 c 128,-1,46
 885 559 885 559 856 559 c 2,47,-1
 426 559 l 1,48,-1
 426 250 l 1,49,-1
 909 250 l 2,50,51
 967 250 967 250 967 154 c 2,52,-1
 967 96 l 2,53,54
 967 0 967 0 909 0 c 2,55,-1
 209 0 l 2,24,25
EndSplineSet
Position2: "'cpsp' Capital Spacing lookup 0 subtable" dx=20 dy=0 dh=41 dv=0
EndChar

StartChar: Ecaron
Encoding: 282 282 46
Width: 1044
VWidth: 1908
GlyphClass: 2
Flags: MW
HStem: 0 250<181 909 426 909 426 909> 559 250<426 856 426 856> 1085 250<426 907 426 426> 1430 279<338 553 338 573>
VStem: 131 295<250 559 809 1085>
AnchorPoint: "Anchor-1" 565 1335 basechar 0
AnchorPoint: "Anchor-0" 549 0 basechar 0
LayerCount: 2
Back
Fore
SplineSet
553 1430 m 2,0,1
 519 1430 519 1430 501 1431.5 c 128,-1,2
 483 1433 483 1433 464 1441 c 128,-1,3
 445 1449 445 1449 436 1466 c 2,4,-1
 311 1661 l 2,5,6
 301 1678 301 1678 301 1690 c 0,7,8
 301 1708 301 1708 338 1708 c 2,9,-1
 381 1708 l 2,10,11
 473 1708 473 1708 508 1661 c 2,12,-1
 561 1587 l 1,13,-1
 614 1663 l 2,14,15
 647 1708 647 1708 745 1708 c 2,16,-1
 786 1708 l 2,17,18
 825 1708 825 1708 825 1690 c 0,19,20
 825 1676 825 1676 813 1661 c 2,21,-1
 690 1466 l 2,22,23
 676 1442 676 1442 650 1436 c 128,-1,24
 624 1430 624 1430 573 1430 c 2,25,-1
 553 1430 l 2,0,1
209 0 m 2,26,27
 168 0 168 0 149.5 18 c 128,-1,28
 131 36 131 36 131 76 c 2,29,-1
 131 1260 l 2,30,31
 131 1300 131 1300 149.5 1317.5 c 128,-1,32
 168 1335 168 1335 209 1335 c 2,33,-1
 907 1335 l 2,34,35
 965 1335 965 1335 965 1241 c 2,36,-1
 965 1182 l 2,37,38
 965 1085 965 1085 907 1085 c 2,39,-1
 426 1085 l 1,40,-1
 426 809 l 1,41,-1
 856 809 l 2,42,43
 885 809 885 809 898 787 c 128,-1,44
 911 765 911 765 911 715 c 2,45,-1
 911 655 l 2,46,47
 911 604 911 604 898 581.5 c 128,-1,48
 885 559 885 559 856 559 c 2,49,-1
 426 559 l 1,50,-1
 426 250 l 1,51,-1
 909 250 l 2,52,53
 967 250 967 250 967 154 c 2,54,-1
 967 96 l 2,55,56
 967 0 967 0 909 0 c 2,57,-1
 209 0 l 2,26,27
EndSplineSet
Position2: "'cpsp' Capital Spacing lookup 0 subtable" dx=20 dy=0 dh=41 dv=0
EndChar

StartChar: Ecircumflex
Encoding: 202 202 47
Width: 1044
VWidth: 1908
GlyphClass: 2
Flags: MW
HStem: 0 250<181 909 426 909 426 909> 559 250<426 856 426 856> 1085 250<426 907 426 426> 1430 279<325 573 338 573 553 745 553 786>
VStem: 131 295<250 559 809 1085>
AnchorPoint: "Anchor-1" 885 1552 basechar 0
AnchorPoint: "Anchor-0" 549 0 basechar 0
LayerCount: 2
Back
Fore
SplineSet
338 1430 m 2,0,1
 301 1430 301 1430 301 1448 c 0,2,3
 301 1460 301 1460 311 1477 c 2,4,-1
 436 1671 l 2,5,6
 450 1695 450 1695 476.5 1701.5 c 128,-1,7
 503 1708 503 1708 553 1708 c 2,8,-1
 573 1708 l 2,9,10
 623 1708 623 1708 649.5 1701.5 c 128,-1,11
 676 1695 676 1695 690 1671 c 2,12,-1
 813 1477 l 2,13,14
 825 1462 825 1462 825 1448 c 0,15,16
 825 1430 825 1430 786 1430 c 2,17,-1
 745 1430 l 2,18,19
 649 1430 649 1430 614 1475 c 2,20,-1
 561 1552 l 1,21,-1
 508 1477 l 2,22,23
 473 1430 473 1430 381 1430 c 2,24,-1
 338 1430 l 2,0,1
209 0 m 2,25,26
 168 0 168 0 149.5 18 c 128,-1,27
 131 36 131 36 131 76 c 2,28,-1
 131 1260 l 2,29,30
 131 1300 131 1300 149.5 1317.5 c 128,-1,31
 168 1335 168 1335 209 1335 c 2,32,-1
 907 1335 l 2,33,34
 965 1335 965 1335 965 1241 c 2,35,-1
 965 1182 l 2,36,37
 965 1085 965 1085 907 1085 c 2,38,-1
 426 1085 l 1,39,-1
 426 809 l 1,40,-1
 856 809 l 2,41,42
 885 809 885 809 898 787 c 128,-1,43
 911 765 911 765 911 715 c 2,44,-1
 911 655 l 2,45,46
 911 604 911 604 898 581.5 c 128,-1,47
 885 559 885 559 856 559 c 2,48,-1
 426 559 l 1,49,-1
 426 250 l 1,50,-1
 909 250 l 2,51,52
 967 250 967 250 967 154 c 2,53,-1
 967 96 l 2,54,55
 967 0 967 0 909 0 c 2,56,-1
 209 0 l 2,25,26
EndSplineSet
Position2: "'cpsp' Capital Spacing lookup 0 subtable" dx=20 dy=0 dh=41 dv=0
EndChar

StartChar: uni1EBE
Encoding: 7870 7870 48
Width: 1044
VWidth: 1908
GlyphClass: 2
Flags: MW
HStem: 0 250<181 909 426 909 426 909> 559 250<426 856 426 856> 1085 250<426 907 426 426> 1430 279<325 573 338 573 553 717 553 758> 1575 264<763 973>
VStem: 131 295<250 559 809 1085>
AnchorPoint: "Anchor-1" 819 1581 basechar 0
AnchorPoint: "Anchor-0" 549 0 basechar 0
LayerCount: 2
Back
Fore
SplineSet
778 1575 m 0,0,1
 756 1575 756 1575 747.5 1581.5 c 128,-1,2
 739 1588 739 1588 739 1604 c 0,3,4
 739 1609 739 1609 741 1616.5 c 128,-1,5
 743 1624 743 1624 749 1639.5 c 128,-1,6
 755 1655 755 1655 761.5 1672 c 128,-1,7
 768 1689 768 1689 780.5 1722 c 128,-1,8
 793 1755 793 1755 805 1788 c 1,9,10
 834 1839 834 1839 948 1839 c 0,11,12
 988 1839 988 1839 1006 1829.5 c 128,-1,13
 1024 1820 1024 1820 1024 1794 c 0,14,15
 1024 1781 1024 1781 998.5 1746.5 c 128,-1,16
 973 1712 973 1712 883 1604 c 0,17,18
 858 1575 858 1575 778 1575 c 0,0,1
338 1430 m 2,19,20
 301 1430 301 1430 301 1448 c 0,21,22
 301 1460 301 1460 311 1477 c 2,23,-1
 436 1671 l 2,24,25
 450 1695 450 1695 476.5 1701.5 c 128,-1,26
 503 1708 503 1708 553 1708 c 2,27,-1
 573 1708 l 2,28,29
 614 1708 614 1708 636 1701.5 c 128,-1,30
 658 1695 658 1695 672 1671 c 2,31,-1
 784 1477 l 2,32,33
 797 1461 797 1461 797 1448 c 0,34,35
 797 1430 797 1430 758 1430 c 2,36,-1
 717 1430 l 2,37,38
 602 1430 602 1430 588 1475 c 2,39,-1
 561 1552 l 1,40,-1
 508 1477 l 2,41,42
 473 1430 473 1430 381 1430 c 2,43,-1
 338 1430 l 2,19,20
209 0 m 2,44,45
 168 0 168 0 149.5 18 c 128,-1,46
 131 36 131 36 131 76 c 2,47,-1
 131 1260 l 2,48,49
 131 1300 131 1300 149.5 1317.5 c 128,-1,50
 168 1335 168 1335 209 1335 c 2,51,-1
 907 1335 l 2,52,53
 965 1335 965 1335 965 1241 c 2,54,-1
 965 1182 l 2,55,56
 965 1085 965 1085 907 1085 c 2,57,-1
 426 1085 l 1,58,-1
 426 809 l 1,59,-1
 856 809 l 2,60,61
 885 809 885 809 898 787 c 128,-1,62
 911 765 911 765 911 715 c 2,63,-1
 911 655 l 2,64,65
 911 604 911 604 898 581.5 c 128,-1,66
 885 559 885 559 856 559 c 2,67,-1
 426 559 l 1,68,-1
 426 250 l 1,69,-1
 909 250 l 2,70,71
 967 250 967 250 967 154 c 2,72,-1
 967 96 l 2,73,74
 967 0 967 0 909 0 c 2,75,-1
 209 0 l 2,44,45
EndSplineSet
Position2: "'cpsp' Capital Spacing lookup 0 subtable" dx=20 dy=0 dh=41 dv=0
EndChar

StartChar: uni1EC6
Encoding: 7878 7878 49
Width: 1044
VWidth: 1908
GlyphClass: 2
Flags: MW
HStem: -389 174<436 591> 0 250<181 909 426 909 426 909> 559 250<426 856 426 856> 1085 250<426 907 426 426> 1430 279<325 573 338 573 553 745 553 786>
VStem: 131 295<250 559 809 1085> 436 229<-328 -215 -348 -195>
AnchorPoint: "Anchor-1" 885 1552 basechar 0
AnchorPoint: "Anchor-0" 553 -389 basechar 0
LayerCount: 2
Back
Fore
SplineSet
338 1430 m 2,0,1
 301 1430 301 1430 301 1448 c 0,2,3
 301 1460 301 1460 311 1477 c 2,4,-1
 436 1671 l 2,5,6
 450 1695 450 1695 476.5 1701.5 c 128,-1,7
 503 1708 503 1708 553 1708 c 2,8,-1
 573 1708 l 2,9,10
 623 1708 623 1708 649.5 1701.5 c 128,-1,11
 676 1695 676 1695 690 1671 c 2,12,-1
 813 1477 l 2,13,14
 825 1462 825 1462 825 1448 c 0,15,16
 825 1430 825 1430 786 1430 c 2,17,-1
 745 1430 l 2,18,19
 649 1430 649 1430 614 1475 c 2,20,-1
 561 1552 l 1,21,-1
 508 1477 l 2,22,23
 473 1430 473 1430 381 1430 c 2,24,-1
 338 1430 l 2,0,1
209 0 m 2,25,26
 168 0 168 0 149.5 18 c 128,-1,27
 131 36 131 36 131 76 c 2,28,-1
 131 1260 l 2,29,30
 131 1300 131 1300 149.5 1317.5 c 128,-1,31
 168 1335 168 1335 209 1335 c 2,32,-1
 907 1335 l 2,33,34
 965 1335 965 1335 965 1241 c 2,35,-1
 965 1182 l 2,36,37
 965 1085 965 1085 907 1085 c 2,38,-1
 426 1085 l 1,39,-1
 426 809 l 1,40,-1
 856 809 l 2,41,42
 885 809 885 809 898 787 c 128,-1,43
 911 765 911 765 911 715 c 2,44,-1
 911 655 l 2,45,46
 911 604 911 604 898 581.5 c 128,-1,47
 885 559 885 559 856 559 c 2,48,-1
 426 559 l 1,49,-1
 426 250 l 1,50,-1
 909 250 l 2,51,52
 967 250 967 250 967 154 c 2,53,-1
 967 96 l 2,54,55
 967 0 967 0 909 0 c 2,56,-1
 209 0 l 2,25,26
551 -389 m 128,-1,58
 436 -389 436 -389 436 -328 c 2,59,-1
 436 -215 l 2,60,61
 436 -154 436 -154 551 -154 c 128,-1,62
 666 -154 666 -154 666 -215 c 2,63,-1
 666 -328 l 2,64,57
 666 -389 666 -389 551 -389 c 128,-1,58
EndSplineSet
Position2: "'cpsp' Capital Spacing lookup 0 subtable" dx=20 dy=0 dh=41 dv=0
EndChar

StartChar: uni1EC0
Encoding: 7872 7872 50
Width: 1044
VWidth: 1908
GlyphClass: 2
Flags: MW
HStem: 0 250<181 909 426 909 426 909> 559 250<426 856 426 856> 1085 250<426 907 426 426> 1430 279<325 573 338 573 553 717 553 758> 1573 264<659 878>
VStem: 131 295<250 559 809 1085>
AnchorPoint: "Anchor-1" 819 1581 basechar 0
AnchorPoint: "Anchor-0" 549 0 basechar 0
LayerCount: 2
Back
Fore
SplineSet
854 1573 m 0,0,1
 776 1573 776 1573 735 1620 c 0,2,3
 702 1663 702 1663 657 1721 c 0,4,5
 615 1775 615 1775 606.5 1787.5 c 128,-1,6
 598 1800 598 1800 598 1810 c 0,7,8
 598 1826 598 1826 619.5 1831.5 c 128,-1,9
 641 1837 641 1837 688 1837 c 0,10,11
 830 1837 830 1837 850 1786 c 0,12,13
 913 1634 913 1634 913 1602 c 0,14,15
 913 1586 913 1586 900.5 1579.5 c 128,-1,16
 888 1573 888 1573 854 1573 c 0,0,1
338 1430 m 2,17,18
 301 1430 301 1430 301 1448 c 0,19,20
 301 1460 301 1460 311 1477 c 2,21,-1
 436 1671 l 2,22,23
 450 1695 450 1695 476.5 1701.5 c 128,-1,24
 503 1708 503 1708 553 1708 c 2,25,-1
 573 1708 l 2,26,27
 614 1708 614 1708 636 1701.5 c 128,-1,28
 658 1695 658 1695 672 1671 c 2,29,-1
 784 1477 l 2,30,31
 797 1461 797 1461 797 1448 c 0,32,33
 797 1430 797 1430 758 1430 c 2,34,-1
 717 1430 l 2,35,36
 602 1430 602 1430 588 1475 c 2,37,-1
 561 1552 l 1,38,-1
 508 1477 l 2,39,40
 473 1430 473 1430 381 1430 c 2,41,-1
 338 1430 l 2,17,18
209 0 m 2,42,43
 168 0 168 0 149.5 18 c 128,-1,44
 131 36 131 36 131 76 c 2,45,-1
 131 1260 l 2,46,47
 131 1300 131 1300 149.5 1317.5 c 128,-1,48
 168 1335 168 1335 209 1335 c 2,49,-1
 907 1335 l 2,50,51
 965 1335 965 1335 965 1241 c 2,52,-1
 965 1182 l 2,53,54
 965 1085 965 1085 907 1085 c 2,55,-1
 426 1085 l 1,56,-1
 426 809 l 1,57,-1
 856 809 l 2,58,59
 885 809 885 809 898 787 c 128,-1,60
 911 765 911 765 911 715 c 2,61,-1
 911 655 l 2,62,63
 911 604 911 604 898 581.5 c 128,-1,64
 885 559 885 559 856 559 c 2,65,-1
 426 559 l 1,66,-1
 426 250 l 1,67,-1
 909 250 l 2,68,69
 967 250 967 250 967 154 c 2,70,-1
 967 96 l 2,71,72
 967 0 967 0 909 0 c 2,73,-1
 209 0 l 2,42,43
EndSplineSet
Position2: "'cpsp' Capital Spacing lookup 0 subtable" dx=20 dy=0 dh=41 dv=0
EndChar

StartChar: uni1EC2
Encoding: 7874 7874 51
Width: 1044
VWidth: 1908
GlyphClass: 2
Flags: MW
HStem: 0 250<181 909 426 909 426 909> 559 250<426 856 426 856> 1085 250<426 907 426 426> 1430 279<325 573 338 573 689 703 553 717 553 758> 1708 135<687 846>
VStem: 131 295<250 559 809 1085> 836 133<1701 1719>
AnchorPoint: "Anchor-1" 819 1847 basechar 0
AnchorPoint: "Anchor-0" 549 0 basechar 0
LayerCount: 2
Back
Fore
SplineSet
825 1585 m 0,0,1
 788 1585 788 1585 764.5 1596.5 c 128,-1,2
 741 1608 741 1608 741 1624 c 0,3,4
 741 1630 741 1630 751.5 1639.5 c 128,-1,5
 762 1649 762 1649 776 1655 c 0,6,7
 780 1657 780 1657 788 1660.5 c 128,-1,8
 796 1664 796 1664 799 1665.5 c 128,-1,9
 802 1667 802 1667 808 1670.5 c 128,-1,10
 814 1674 814 1674 816.5 1675.5 c 128,-1,11
 819 1677 819 1677 823 1680.5 c 128,-1,12
 827 1684 827 1684 828.5 1686.5 c 128,-1,13
 830 1689 830 1689 832.5 1692.5 c 128,-1,14
 835 1696 835 1696 835.5 1700 c 128,-1,15
 836 1704 836 1704 836 1708 c 0,16,17
 836 1724 836 1724 824 1732.5 c 128,-1,18
 812 1741 812 1741 797 1741 c 0,19,20
 760 1741 760 1741 728.5 1724.5 c 128,-1,21
 697 1708 697 1708 694 1708 c 0,22,23
 682 1708 682 1708 659.5 1738 c 128,-1,24
 637 1768 637 1768 637 1788 c 128,-1,25
 637 1808 637 1808 688 1825.5 c 128,-1,26
 739 1843 739 1843 791 1843 c 0,27,28
 873 1843 873 1843 921 1808.5 c 128,-1,29
 969 1774 969 1774 969 1716 c 0,30,31
 969 1667 969 1667 918 1626 c 0,32,33
 865 1585 865 1585 825 1585 c 0,0,1
338 1430 m 2,34,35
 301 1430 301 1430 301 1448 c 0,36,37
 301 1460 301 1460 311 1477 c 2,38,-1
 436 1671 l 2,39,40
 450 1695 450 1695 476.5 1701.5 c 128,-1,41
 503 1708 503 1708 553 1708 c 2,42,-1
 573 1708 l 2,43,44
 614 1708 614 1708 636 1701.5 c 128,-1,45
 658 1695 658 1695 672 1671 c 2,46,-1
 784 1477 l 2,47,48
 797 1461 797 1461 797 1448 c 0,49,50
 797 1430 797 1430 758 1430 c 2,51,-1
 717 1430 l 2,52,53
 602 1430 602 1430 588 1475 c 2,54,-1
 561 1552 l 1,55,-1
 508 1477 l 2,56,57
 473 1430 473 1430 381 1430 c 2,58,-1
 338 1430 l 2,34,35
209 0 m 2,59,60
 168 0 168 0 149.5 18 c 128,-1,61
 131 36 131 36 131 76 c 2,62,-1
 131 1260 l 2,63,64
 131 1300 131 1300 149.5 1317.5 c 128,-1,65
 168 1335 168 1335 209 1335 c 2,66,-1
 907 1335 l 2,67,68
 965 1335 965 1335 965 1241 c 2,69,-1
 965 1182 l 2,70,71
 965 1085 965 1085 907 1085 c 2,72,-1
 426 1085 l 1,73,-1
 426 809 l 1,74,-1
 856 809 l 2,75,76
 885 809 885 809 898 787 c 128,-1,77
 911 765 911 765 911 715 c 2,78,-1
 911 655 l 2,79,80
 911 604 911 604 898 581.5 c 128,-1,81
 885 559 885 559 856 559 c 2,82,-1
 426 559 l 1,83,-1
 426 250 l 1,84,-1
 909 250 l 2,85,86
 967 250 967 250 967 154 c 2,87,-1
 967 96 l 2,88,89
 967 0 967 0 909 0 c 2,90,-1
 209 0 l 2,59,60
EndSplineSet
Position2: "'cpsp' Capital Spacing lookup 0 subtable" dx=20 dy=0 dh=41 dv=0
EndChar

StartChar: uni1EC4
Encoding: 7876 7876 52
Width: 1044
VWidth: 1908
GlyphClass: 2
Flags: MW
HStem: 0 250<181 909 426 909 426 909> 559 250<426 856 426 856> 1085 250<426 907 426 426> 1430 233<325 573 338 573 553 745 553 786> 1724 160<680 687 680 722> 1780 160<421 428>
VStem: 131 295<250 559 809 1085>
AnchorPoint: "Anchor-1" 565 1335 basechar 0
AnchorPoint: "Anchor-0" 549 0 basechar 0
LayerCount: 2
Back
Fore
SplineSet
301 1722 m 1,0,-1
 281 1726 l 1,1,2
 242 1739 242 1739 242 1780 c 0,3,4
 242 1790 242 1790 246 1806 c 0,5,6
 267 1862 267 1862 316.5 1900.5 c 128,-1,7
 366 1939 366 1939 436 1939 c 0,8,9
 468 1939 468 1939 561 1912.5 c 128,-1,10
 654 1886 654 1886 680 1884 c 0,11,12
 714 1884 714 1884 737 1915 c 0,13,14
 761 1948 761 1948 786 1948 c 0,15,16
 795 1948 795 1948 807 1944 c 2,17,-1
 827 1937 l 2,18,19
 866 1924 866 1924 866 1886 c 0,20,21
 866 1872 866 1872 862 1860 c 0,22,23
 841 1802 841 1802 791.5 1763 c 128,-1,24
 742 1724 742 1724 672 1724 c 0,25,26
 641 1724 641 1724 548 1751.5 c 128,-1,27
 455 1779 455 1779 428 1780 c 0,28,29
 392 1780 392 1780 371 1751 c 0,30,31
 349 1718 349 1718 322 1718 c 0,32,33
 307 1718 307 1718 301 1722 c 1,0,-1
338 1430 m 2,34,35
 301 1430 301 1430 301 1448 c 0,36,37
 301 1460 301 1460 311 1477 c 2,38,-1
 436 1626 l 2,39,40
 457 1648 457 1648 483 1655.5 c 128,-1,41
 509 1663 509 1663 553 1663 c 2,42,-1
 573 1663 l 2,43,44
 617 1663 617 1663 643 1655.5 c 128,-1,45
 669 1648 669 1648 690 1626 c 2,46,-1
 813 1477 l 2,47,48
 825 1462 825 1462 825 1448 c 0,49,50
 825 1430 825 1430 786 1430 c 2,51,-1
 745 1430 l 2,52,53
 708 1430 708 1430 680 1441 c 128,-1,54
 652 1452 652 1452 614 1475 c 1,55,-1
 561 1528 l 1,56,-1
 508 1477 l 2,57,58
 505 1475 505 1475 492.5 1467.5 c 128,-1,59
 480 1460 480 1460 476.5 1458 c 128,-1,60
 473 1456 473 1456 462.5 1450.5 c 128,-1,61
 452 1445 452 1445 447.5 1443.5 c 128,-1,62
 443 1442 443 1442 433.5 1438 c 128,-1,63
 424 1434 424 1434 417 1433 c 128,-1,64
 410 1432 410 1432 400.5 1431 c 128,-1,65
 391 1430 391 1430 381 1430 c 2,66,-1
 338 1430 l 2,34,35
209 0 m 2,67,68
 168 0 168 0 149.5 18 c 128,-1,69
 131 36 131 36 131 76 c 2,70,-1
 131 1260 l 2,71,72
 131 1300 131 1300 149.5 1317.5 c 128,-1,73
 168 1335 168 1335 209 1335 c 2,74,-1
 907 1335 l 2,75,76
 965 1335 965 1335 965 1241 c 2,77,-1
 965 1182 l 2,78,79
 965 1085 965 1085 907 1085 c 2,80,-1
 426 1085 l 1,81,-1
 426 809 l 1,82,-1
 856 809 l 2,83,84
 885 809 885 809 898 787 c 128,-1,85
 911 765 911 765 911 715 c 2,86,-1
 911 655 l 2,87,88
 911 604 911 604 898 581.5 c 128,-1,89
 885 559 885 559 856 559 c 2,90,-1
 426 559 l 1,91,-1
 426 250 l 1,92,-1
 909 250 l 2,93,94
 967 250 967 250 967 154 c 2,95,-1
 967 96 l 2,96,97
 967 0 967 0 909 0 c 2,98,-1
 209 0 l 2,67,68
EndSplineSet
Position2: "'cpsp' Capital Spacing lookup 0 subtable" dx=20 dy=0 dh=41 dv=0
EndChar

StartChar: Edieresis
Encoding: 203 203 53
Width: 1044
VWidth: 1908
GlyphClass: 2
Flags: MW
HStem: 0 250<181 909 426 909 426 909> 559 250<426 856 426 856> 1085 250<426 907 426 426> 1442 174<276 431>
VStem: 131 295<250 559 809 1085> 276 229<1503 1616 1483 1636> 621 229<1503 1616 1483 1636>
AnchorPoint: "Anchor-1" 565 1335 basechar 0
AnchorPoint: "Anchor-0" 549 0 basechar 0
LayerCount: 2
Back
Fore
SplineSet
391 1442 m 128,-1,1
 276 1442 276 1442 276 1503 c 2,2,-1
 276 1616 l 2,3,4
 276 1677 276 1677 391 1677 c 128,-1,5
 506 1677 506 1677 506 1616 c 2,6,-1
 506 1503 l 2,7,0
 506 1442 506 1442 391 1442 c 128,-1,1
735 1442 m 0,8,9
 621 1442 621 1442 621 1503 c 2,10,-1
 621 1616 l 2,11,12
 621 1677 621 1677 735 1677 c 0,13,14
 850 1677 850 1677 850 1616 c 2,15,-1
 850 1503 l 2,16,17
 850 1442 850 1442 735 1442 c 0,8,9
209 0 m 2,18,19
 168 0 168 0 149.5 18 c 128,-1,20
 131 36 131 36 131 76 c 2,21,-1
 131 1260 l 2,22,23
 131 1300 131 1300 149.5 1317.5 c 128,-1,24
 168 1335 168 1335 209 1335 c 2,25,-1
 907 1335 l 2,26,27
 965 1335 965 1335 965 1241 c 2,28,-1
 965 1182 l 2,29,30
 965 1085 965 1085 907 1085 c 2,31,-1
 426 1085 l 1,32,-1
 426 809 l 1,33,-1
 856 809 l 2,34,35
 885 809 885 809 898 787 c 128,-1,36
 911 765 911 765 911 715 c 2,37,-1
 911 655 l 2,38,39
 911 604 911 604 898 581.5 c 128,-1,40
 885 559 885 559 856 559 c 2,41,-1
 426 559 l 1,42,-1
 426 250 l 1,43,-1
 909 250 l 2,44,45
 967 250 967 250 967 154 c 2,46,-1
 967 96 l 2,47,48
 967 0 967 0 909 0 c 2,49,-1
 209 0 l 2,18,19
EndSplineSet
Position2: "'cpsp' Capital Spacing lookup 0 subtable" dx=20 dy=0 dh=41 dv=0
EndChar

StartChar: Edotaccent
Encoding: 278 278 54
Width: 1044
VWidth: 1908
GlyphClass: 2
Flags: MW
HStem: 0 250<181 909 426 909 426 909> 559 250<426 856 426 856> 1085 250<426 907 426 426> 1442 174<449 603>
VStem: 131 295<250 559 809 1085> 449 229<1503 1616 1483 1636>
AnchorPoint: "Anchor-1" 565 1335 basechar 0
AnchorPoint: "Anchor-0" 549 0 basechar 0
LayerCount: 2
Back
Fore
SplineSet
563 1442 m 0,0,1
 449 1442 449 1442 449 1503 c 2,2,-1
 449 1616 l 2,3,4
 449 1677 449 1677 563 1677 c 0,5,6
 678 1677 678 1677 678 1616 c 2,7,-1
 678 1503 l 2,8,9
 678 1442 678 1442 563 1442 c 0,0,1
209 0 m 2,10,11
 168 0 168 0 149.5 18 c 128,-1,12
 131 36 131 36 131 76 c 2,13,-1
 131 1260 l 2,14,15
 131 1300 131 1300 149.5 1317.5 c 128,-1,16
 168 1335 168 1335 209 1335 c 2,17,-1
 907 1335 l 2,18,19
 965 1335 965 1335 965 1241 c 2,20,-1
 965 1182 l 2,21,22
 965 1085 965 1085 907 1085 c 2,23,-1
 426 1085 l 1,24,-1
 426 809 l 1,25,-1
 856 809 l 2,26,27
 885 809 885 809 898 787 c 128,-1,28
 911 765 911 765 911 715 c 2,29,-1
 911 655 l 2,30,31
 911 604 911 604 898 581.5 c 128,-1,32
 885 559 885 559 856 559 c 2,33,-1
 426 559 l 1,34,-1
 426 250 l 1,35,-1
 909 250 l 2,36,37
 967 250 967 250 967 154 c 2,38,-1
 967 96 l 2,39,40
 967 0 967 0 909 0 c 2,41,-1
 209 0 l 2,10,11
EndSplineSet
Position2: "'cpsp' Capital Spacing lookup 0 subtable" dx=20 dy=0 dh=41 dv=0
EndChar

StartChar: uni1EB8
Encoding: 7864 7864 55
Width: 1044
VWidth: 1908
GlyphClass: 2
Flags: MW
HStem: -389 174<436 591> 0 250<181 909 426 909 426 909> 559 250<426 856 426 856> 1085 250<426 907 426 426>
VStem: 131 295<250 559 809 1085> 436 229<-328 -215 -348 -195>
AnchorPoint: "Anchor-1" 565 1335 basechar 0
AnchorPoint: "Anchor-0" 553 -389 basechar 0
LayerCount: 2
Back
Fore
SplineSet
209 0 m 2,0,1
 168 0 168 0 149.5 18 c 128,-1,2
 131 36 131 36 131 76 c 2,3,-1
 131 1260 l 2,4,5
 131 1300 131 1300 149.5 1317.5 c 128,-1,6
 168 1335 168 1335 209 1335 c 2,7,-1
 907 1335 l 2,8,9
 965 1335 965 1335 965 1241 c 2,10,-1
 965 1182 l 2,11,12
 965 1085 965 1085 907 1085 c 2,13,-1
 426 1085 l 1,14,-1
 426 809 l 1,15,-1
 856 809 l 2,16,17
 885 809 885 809 898 787 c 128,-1,18
 911 765 911 765 911 715 c 2,19,-1
 911 655 l 2,20,21
 911 604 911 604 898 581.5 c 128,-1,22
 885 559 885 559 856 559 c 2,23,-1
 426 559 l 1,24,-1
 426 250 l 1,25,-1
 909 250 l 2,26,27
 967 250 967 250 967 154 c 2,28,-1
 967 96 l 2,29,30
 967 0 967 0 909 0 c 2,31,-1
 209 0 l 2,0,1
551 -389 m 128,-1,33
 436 -389 436 -389 436 -328 c 2,34,-1
 436 -215 l 2,35,36
 436 -154 436 -154 551 -154 c 128,-1,37
 666 -154 666 -154 666 -215 c 2,38,-1
 666 -328 l 2,39,32
 666 -389 666 -389 551 -389 c 128,-1,33
EndSplineSet
Position2: "'cpsp' Capital Spacing lookup 0 subtable" dx=20 dy=0 dh=41 dv=0
EndChar

StartChar: Egrave
Encoding: 200 200 56
Width: 1044
VWidth: 1908
GlyphClass: 2
Flags: MW
HStem: 0 250<181 909 426 909 426 909> 559 250<426 856 426 856> 1085 250<426 907 426 426> 1436 303<384 673>
VStem: 131 295<250 559 809 1085>
AnchorPoint: "Anchor-1" 565 1335 basechar 0
AnchorPoint: "Anchor-0" 549 0 basechar 0
LayerCount: 2
Back
Fore
SplineSet
649 1436 m 0,0,1
 589 1436 589 1436 558.5 1448.5 c 128,-1,2
 528 1461 528 1461 506 1483 c 0,3,4
 440 1556 440 1556 366 1635 c 0,5,6
 325 1678 325 1678 316 1689.5 c 128,-1,7
 307 1701 307 1701 307 1712 c 0,8,9
 307 1739 307 1739 422 1739 c 0,10,11
 554 1739 554 1739 584 1688 c 0,12,13
 607 1647 607 1647 630.5 1607.5 c 128,-1,14
 654 1568 654 1568 666.5 1547 c 128,-1,15
 679 1526 679 1526 690 1507.5 c 128,-1,16
 701 1489 701 1489 705 1479.5 c 128,-1,17
 709 1470 709 1470 709 1464 c 0,18,19
 709 1449 709 1449 696 1442.5 c 128,-1,20
 683 1436 683 1436 649 1436 c 0,0,1
209 0 m 2,21,22
 168 0 168 0 149.5 18 c 128,-1,23
 131 36 131 36 131 76 c 2,24,-1
 131 1260 l 2,25,26
 131 1300 131 1300 149.5 1317.5 c 128,-1,27
 168 1335 168 1335 209 1335 c 2,28,-1
 907 1335 l 2,29,30
 965 1335 965 1335 965 1241 c 2,31,-1
 965 1182 l 2,32,33
 965 1085 965 1085 907 1085 c 2,34,-1
 426 1085 l 1,35,-1
 426 809 l 1,36,-1
 856 809 l 2,37,38
 885 809 885 809 898 787 c 128,-1,39
 911 765 911 765 911 715 c 2,40,-1
 911 655 l 2,41,42
 911 604 911 604 898 581.5 c 128,-1,43
 885 559 885 559 856 559 c 2,44,-1
 426 559 l 1,45,-1
 426 250 l 1,46,-1
 909 250 l 2,47,48
 967 250 967 250 967 154 c 2,49,-1
 967 96 l 2,50,51
 967 0 967 0 909 0 c 2,52,-1
 209 0 l 2,21,22
EndSplineSet
Position2: "'cpsp' Capital Spacing lookup 0 subtable" dx=20 dy=0 dh=41 dv=0
EndChar

StartChar: uni1EBA
Encoding: 7866 7866 57
Width: 1044
VWidth: 1908
GlyphClass: 2
Flags: MW
HStem: 0 250<181 909 426 909 426 909> 559 250<426 856 426 856> 1085 250<426 907 426 426> 1655 117<554 589>
VStem: 131 295<250 559 809 1085> 633 168<1585 1627>
AnchorPoint: "Anchor-1" 565 1675 basechar 0
AnchorPoint: "Anchor-0" 549 0 basechar 0
LayerCount: 2
Back
Fore
SplineSet
608 1425 m 0,0,1
 576 1425 576 1425 541 1441 c 128,-1,2
 506 1457 506 1457 506 1470 c 128,-1,3
 506 1483 506 1483 538 1507.5 c 128,-1,4
 570 1532 570 1532 601.5 1561 c 128,-1,5
 633 1590 633 1590 633 1614 c 0,6,7
 633 1633 633 1633 615.5 1644 c 128,-1,8
 598 1655 598 1655 573 1655 c 128,-1,9
 548 1655 548 1655 523.5 1643.5 c 128,-1,10
 499 1632 499 1632 494 1632 c 0,11,12
 481 1632 481 1632 458.5 1661.5 c 128,-1,13
 436 1691 436 1691 436 1712 c 0,14,15
 436 1731 436 1731 487 1751.5 c 128,-1,16
 538 1772 538 1772 588 1772 c 0,17,18
 690 1772 690 1772 745.5 1731.5 c 128,-1,19
 801 1691 801 1691 801 1620 c 0,20,21
 801 1574 801 1574 759.5 1526.5 c 128,-1,22
 718 1479 718 1479 673 1452 c 128,-1,23
 628 1425 628 1425 608 1425 c 0,0,1
209 0 m 2,24,25
 168 0 168 0 149.5 18 c 128,-1,26
 131 36 131 36 131 76 c 2,27,-1
 131 1260 l 2,28,29
 131 1300 131 1300 149.5 1317.5 c 128,-1,30
 168 1335 168 1335 209 1335 c 2,31,-1
 907 1335 l 2,32,33
 965 1335 965 1335 965 1241 c 2,34,-1
 965 1182 l 2,35,36
 965 1085 965 1085 907 1085 c 2,37,-1
 426 1085 l 1,38,-1
 426 809 l 1,39,-1
 856 809 l 2,40,41
 885 809 885 809 898 787 c 128,-1,42
 911 765 911 765 911 715 c 2,43,-1
 911 655 l 2,44,45
 911 604 911 604 898 581.5 c 128,-1,46
 885 559 885 559 856 559 c 2,47,-1
 426 559 l 1,48,-1
 426 250 l 1,49,-1
 909 250 l 2,50,51
 967 250 967 250 967 154 c 2,52,-1
 967 96 l 2,53,54
 967 0 967 0 909 0 c 2,55,-1
 209 0 l 2,24,25
EndSplineSet
Position2: "'cpsp' Capital Spacing lookup 0 subtable" dx=20 dy=0 dh=41 dv=0
EndChar

StartChar: Emacron
Encoding: 274 274 58
Width: 1044
VWidth: 1908
GlyphClass: 2
Flags: MW
HStem: 0 250<181 909 426 909 426 909> 559 250<426 856 426 856> 1085 250<426 907 426 426> 1477 182<338 768 358 768>
VStem: 131 295<250 559 809 1085> 301 524<1554 1583 1528 1610>
AnchorPoint: "Anchor-1" 565 1335 basechar 0
AnchorPoint: "Anchor-0" 549 0 basechar 0
LayerCount: 2
Back
Fore
SplineSet
358 1477 m 2,0,1
 328 1477 328 1477 314.5 1495.5 c 128,-1,2
 301 1514 301 1514 301 1554 c 2,3,-1
 301 1583 l 2,4,5
 301 1623 301 1623 314 1641 c 128,-1,6
 327 1659 327 1659 358 1659 c 2,7,-1
 768 1659 l 2,8,9
 825 1659 825 1659 825 1583 c 2,10,-1
 825 1554 l 2,11,12
 825 1477 825 1477 768 1477 c 2,13,-1
 358 1477 l 2,0,1
209 0 m 2,14,15
 168 0 168 0 149.5 18 c 128,-1,16
 131 36 131 36 131 76 c 2,17,-1
 131 1260 l 2,18,19
 131 1300 131 1300 149.5 1317.5 c 128,-1,20
 168 1335 168 1335 209 1335 c 2,21,-1
 907 1335 l 2,22,23
 965 1335 965 1335 965 1241 c 2,24,-1
 965 1182 l 2,25,26
 965 1085 965 1085 907 1085 c 2,27,-1
 426 1085 l 1,28,-1
 426 809 l 1,29,-1
 856 809 l 2,30,31
 885 809 885 809 898 787 c 128,-1,32
 911 765 911 765 911 715 c 2,33,-1
 911 655 l 2,34,35
 911 604 911 604 898 581.5 c 128,-1,36
 885 559 885 559 856 559 c 2,37,-1
 426 559 l 1,38,-1
 426 250 l 1,39,-1
 909 250 l 2,40,41
 967 250 967 250 967 154 c 2,42,-1
 967 96 l 2,43,44
 967 0 967 0 909 0 c 2,45,-1
 209 0 l 2,14,15
EndSplineSet
Position2: "'cpsp' Capital Spacing lookup 0 subtable" dx=20 dy=0 dh=41 dv=0
EndChar

StartChar: Eogonek
Encoding: 280 280 59
Width: 1044
VWidth: 1908
GlyphClass: 2
Flags: MW
HStem: -350 135<979 1016> 0 250<181 909 426 803 903 903 903 909> 559 250<426 856 426 856> 1085 250<426 907 426 426>
VStem: 131 295<250 559 809 1085> 754 129<-165 -138>
AnchorPoint: "Anchor-1" 565 1335 basechar 0
AnchorPoint: "Anchor-0" 549 0 basechar 0
LayerCount: 2
Back
Fore
SplineSet
1094 -201 m 0,0,1
 1137 -201 1137 -201 1137 -254 c 0,2,3
 1137 -350 1137 -350 979 -350 c 0,4,5
 921 -350 921 -350 878 -334.5 c 128,-1,6
 835 -319 835 -319 812 -297.5 c 128,-1,7
 789 -276 789 -276 775 -247 c 128,-1,8
 761 -218 761 -218 757.5 -196.5 c 128,-1,9
 754 -175 754 -175 754 -154 c 0,10,11
 754 -119 754 -119 765 -73.5 c 128,-1,12
 776 -28 776 -28 803 0 c 1,13,-1
 209 0 l 2,14,15
 168 0 168 0 149.5 18 c 128,-1,16
 131 36 131 36 131 76 c 2,17,-1
 131 1260 l 2,18,19
 131 1300 131 1300 149.5 1317.5 c 128,-1,20
 168 1335 168 1335 209 1335 c 2,21,-1
 907 1335 l 2,22,23
 965 1335 965 1335 965 1241 c 2,24,-1
 965 1182 l 2,25,26
 965 1085 965 1085 907 1085 c 2,27,-1
 426 1085 l 1,28,-1
 426 809 l 1,29,-1
 856 809 l 2,30,31
 885 809 885 809 898 787 c 128,-1,32
 911 765 911 765 911 715 c 2,33,-1
 911 655 l 2,34,35
 911 604 911 604 898 581.5 c 128,-1,36
 885 559 885 559 856 559 c 2,37,-1
 426 559 l 1,38,-1
 426 250 l 1,39,-1
 909 250 l 2,40,41
 967 250 967 250 967 154 c 2,42,-1
 967 96 l 2,43,44
 967 0 967 0 909 0 c 2,45,-1
 903 0 l 1,46,-1
 903 -10 l 2,47,48
 903 -21 903 -21 893 -54.5 c 128,-1,49
 883 -88 883 -88 883 -119 c 0,50,51
 883 -151 883 -151 894 -172 c 128,-1,52
 905 -193 905 -193 926 -201.5 c 128,-1,53
 947 -210 947 -210 963 -212.5 c 128,-1,54
 979 -215 979 -215 1001 -215 c 0,55,56
 1026 -215 1026 -215 1052 -208 c 128,-1,57
 1078 -201 1078 -201 1094 -201 c 0,0,1
EndSplineSet
Position2: "'cpsp' Capital Spacing lookup 0 subtable" dx=20 dy=0 dh=41 dv=0
EndChar

StartChar: uni1EBC
Encoding: 7868 7868 60
Width: 1044
VWidth: 1908
GlyphClass: 2
Flags: MW
HStem: 0 250<181 909 426 909 426 909> 559 250<426 856 426 856> 1085 250<426 907 426 426> 1448 160<680 688 680 726> 1503 160<395 403>
VStem: 131 295<250 559 809 1085>
AnchorPoint: "Anchor-1" 565 1335 basechar 0
AnchorPoint: "Anchor-0" 549 0 basechar 0
LayerCount: 2
Back
Fore
SplineSet
262 1446 m 1,0,-1
 240 1450 l 1,1,2
 199 1463 199 1463 199 1503 c 0,3,4
 199 1514 199 1514 203 1530 c 0,5,6
 225 1586 225 1586 279.5 1624.5 c 128,-1,7
 334 1663 334 1663 412 1663 c 0,8,9
 447 1663 447 1663 549.5 1636.5 c 128,-1,10
 652 1610 652 1610 680 1608 c 0,11,12
 717 1608 717 1608 743 1638 c 0,13,14
 769 1671 769 1671 797 1671 c 0,15,16
 807 1671 807 1671 819 1667 c 2,17,-1
 842 1661 l 2,18,19
 885 1648 885 1648 885 1610 c 0,20,21
 885 1595 885 1595 881 1583 c 0,22,23
 859 1526 859 1526 804 1487 c 128,-1,24
 749 1448 749 1448 672 1448 c 0,25,26
 637 1448 637 1448 534.5 1475 c 128,-1,27
 432 1502 432 1502 403 1503 c 0,28,29
 364 1503 364 1503 340 1475 c 0,30,31
 316 1442 316 1442 285 1442 c 0,32,33
 270 1442 270 1442 262 1446 c 1,0,-1
209 0 m 2,34,35
 168 0 168 0 149.5 18 c 128,-1,36
 131 36 131 36 131 76 c 2,37,-1
 131 1260 l 2,38,39
 131 1300 131 1300 149.5 1317.5 c 128,-1,40
 168 1335 168 1335 209 1335 c 2,41,-1
 907 1335 l 2,42,43
 965 1335 965 1335 965 1241 c 2,44,-1
 965 1182 l 2,45,46
 965 1085 965 1085 907 1085 c 2,47,-1
 426 1085 l 1,48,-1
 426 809 l 1,49,-1
 856 809 l 2,50,51
 885 809 885 809 898 787 c 128,-1,52
 911 765 911 765 911 715 c 2,53,-1
 911 655 l 2,54,55
 911 604 911 604 898 581.5 c 128,-1,56
 885 559 885 559 856 559 c 2,57,-1
 426 559 l 1,58,-1
 426 250 l 1,59,-1
 909 250 l 2,60,61
 967 250 967 250 967 154 c 2,62,-1
 967 96 l 2,63,64
 967 0 967 0 909 0 c 2,65,-1
 209 0 l 2,34,35
EndSplineSet
Position2: "'cpsp' Capital Spacing lookup 0 subtable" dx=20 dy=0 dh=41 dv=0
EndChar

StartChar: F
Encoding: 70 70 61
Width: 962
VWidth: 1908
GlyphClass: 2
Flags: MW
HStem: -4 86G<206 246 246 311> 557 250<426 831 426 831> 1085 250<426 846 426 426>
VStem: 131 295<57 557 807 1085>
LayerCount: 2
Back
Fore
SplineSet
246 -4 m 2,0,1
 131 -4 131 -4 131 57 c 2,2,-1
 131 1260 l 2,3,4
 131 1300 131 1300 149.5 1317.5 c 128,-1,5
 168 1335 168 1335 209 1335 c 2,6,-1
 846 1335 l 2,7,8
 903 1335 903 1335 903 1241 c 2,9,-1
 903 1182 l 2,10,11
 903 1085 903 1085 846 1085 c 2,12,-1
 426 1085 l 1,13,-1
 426 807 l 1,14,-1
 831 807 l 2,15,16
 862 807 862 807 875.5 785 c 128,-1,17
 889 763 889 763 889 713 c 2,18,-1
 889 653 l 2,19,20
 889 602 889 602 875.5 579.5 c 128,-1,21
 862 557 862 557 831 557 c 2,22,-1
 426 557 l 1,23,-1
 426 57 l 2,24,25
 426 -4 426 -4 311 -4 c 2,26,-1
 246 -4 l 2,0,1
EndSplineSet
Position2: "'cpsp' Capital Spacing lookup 0 subtable" dx=20 dy=0 dh=41 dv=0
EndChar

StartChar: G
Encoding: 71 71 62
Width: 1282
VWidth: 1908
GlyphClass: 2
Flags: MW
HStem: -14 250<604 741 604 782> 492 252<675 1081 694 862> 1100 252<604 807 511 808>
VStem: 86 301<526 813 526 899> 862 297<248 492 492 492>
AnchorPoint: "Anchor-1" 668 1335 basechar 0
AnchorPoint: "Anchor-0" 680 0 basechar 0
LayerCount: 2
Back
Fore
SplineSet
715 -14 m 0,0,1
 393 -14 393 -14 239.5 153 c 128,-1,2
 86 320 86 320 86 672 c 0,3,4
 86 1352 86 1352 723 1352 c 0,5,6
 810 1352 810 1352 903 1336 c 128,-1,7
 996 1320 996 1320 1064.5 1288.5 c 128,-1,8
 1133 1257 1133 1257 1133 1219 c 0,9,10
 1133 1177 1133 1177 1087.5 1107.5 c 128,-1,11
 1042 1038 1042 1038 1008 1038 c 0,12,13
 1003 1038 1003 1038 967 1053.5 c 128,-1,14
 931 1069 931 1069 864 1084.5 c 128,-1,15
 797 1100 797 1100 717 1100 c 0,16,17
 549 1100 549 1100 468 993 c 128,-1,18
 387 886 387 886 387 670 c 0,19,20
 387 236 387 236 715 236 c 0,21,22
 801 236 801 236 862 248 c 1,23,-1
 862 492 l 1,24,-1
 694 492 l 2,25,26
 637 492 637 492 637 586 c 2,27,-1
 637 647 l 2,28,29
 637 698 637 698 650.5 720.5 c 128,-1,30
 664 743 664 743 694 743 c 2,31,-1
 1081 743 l 2,32,33
 1122 743 1122 743 1140.5 724.5 c 128,-1,34
 1159 706 1159 706 1159 666 c 2,35,-1
 1159 135 l 2,36,37
 1159 98 1159 98 1125 69.5 c 128,-1,38
 1091 41 1091 41 1042.5 25.5 c 128,-1,39
 994 10 994 10 929 0.5 c 128,-1,40
 864 -9 864 -9 814 -11.5 c 128,-1,41
 764 -14 764 -14 715 -14 c 0,0,1
EndSplineSet
Position2: "'cpsp' Capital Spacing lookup 0 subtable" dx=20 dy=0 dh=41 dv=0
EndChar

StartChar: Gbreve
Encoding: 286 286 63
Width: 1282
VWidth: 1908
GlyphClass: 2
Flags: MW
HStem: -14 250<604 741 604 782> 492 252<675 1081 694 862> 1100 252<604 807 511 808> 1436 174<620 720 620 751>
VStem: 86 301<526 813 526 899> 387 561<1594 1666> 862 297<248 492 492 492>
AnchorPoint: "Anchor-1" 668 1647 basechar 0
AnchorPoint: "Anchor-0" 680 0 basechar 0
LayerCount: 2
Back
Fore
SplineSet
668 1436 m 128,-1,1
 547 1436 547 1436 467 1500 c 128,-1,2
 387 1564 387 1564 387 1649 c 0,3,4
 387 1702 387 1702 455 1702 c 0,5,6
 470 1702 470 1702 483 1696.5 c 128,-1,7
 496 1691 496 1691 500 1687 c 128,-1,8
 504 1683 504 1683 518 1669 c 0,9,10
 535 1650 535 1650 547 1640.5 c 128,-1,11
 559 1631 559 1631 591 1620.5 c 128,-1,12
 623 1610 623 1610 668 1610 c 0,13,14
 716 1610 716 1610 750 1621.5 c 128,-1,15
 784 1633 784 1633 794 1641.5 c 128,-1,16
 804 1650 804 1650 823 1671 c 0,17,18
 847 1702 847 1702 883 1702 c 0,19,20
 948 1702 948 1702 948 1649 c 0,21,22
 948 1564 948 1564 868.5 1500 c 128,-1,0
 789 1436 789 1436 668 1436 c 128,-1,1
715 -14 m 0,23,24
 393 -14 393 -14 239.5 153 c 128,-1,25
 86 320 86 320 86 672 c 0,26,27
 86 1352 86 1352 723 1352 c 0,28,29
 810 1352 810 1352 903 1336 c 128,-1,30
 996 1320 996 1320 1064.5 1288.5 c 128,-1,31
 1133 1257 1133 1257 1133 1219 c 0,32,33
 1133 1177 1133 1177 1087.5 1107.5 c 128,-1,34
 1042 1038 1042 1038 1008 1038 c 0,35,36
 1003 1038 1003 1038 967 1053.5 c 128,-1,37
 931 1069 931 1069 864 1084.5 c 128,-1,38
 797 1100 797 1100 717 1100 c 0,39,40
 549 1100 549 1100 468 993 c 128,-1,41
 387 886 387 886 387 670 c 0,42,43
 387 236 387 236 715 236 c 0,44,45
 801 236 801 236 862 248 c 1,46,-1
 862 492 l 1,47,-1
 694 492 l 2,48,49
 637 492 637 492 637 586 c 2,50,-1
 637 647 l 2,51,52
 637 698 637 698 650.5 720.5 c 128,-1,53
 664 743 664 743 694 743 c 2,54,-1
 1081 743 l 2,55,56
 1122 743 1122 743 1140.5 724.5 c 128,-1,57
 1159 706 1159 706 1159 666 c 2,58,-1
 1159 135 l 2,59,60
 1159 98 1159 98 1125 69.5 c 128,-1,61
 1091 41 1091 41 1042.5 25.5 c 128,-1,62
 994 10 994 10 929 0.5 c 128,-1,63
 864 -9 864 -9 814 -11.5 c 128,-1,64
 764 -14 764 -14 715 -14 c 0,23,24
EndSplineSet
Position2: "'cpsp' Capital Spacing lookup 0 subtable" dx=20 dy=0 dh=41 dv=0
EndChar

StartChar: Gcircumflex
Encoding: 284 284 64
Width: 1282
VWidth: 1908
GlyphClass: 2
Flags: MW
HStem: -14 250<604 741 604 782> 492 252<675 1081 694 862> 1100 252<604 807 511 808> 1430 279<429 678 442 678 657 850 657 891>
VStem: 86 301<526 813 526 899> 862 297<248 492 492 492>
AnchorPoint: "Anchor-1" 987 1552 basechar 0
AnchorPoint: "Anchor-0" 680 0 basechar 0
LayerCount: 2
Back
Fore
SplineSet
442 1430 m 2,0,1
 406 1430 406 1430 406 1448 c 0,2,3
 406 1460 406 1460 416 1477 c 2,4,-1
 541 1671 l 2,5,6
 555 1695 555 1695 581.5 1701.5 c 128,-1,7
 608 1708 608 1708 657 1708 c 2,8,-1
 678 1708 l 2,9,10
 728 1708 728 1708 754.5 1701.5 c 128,-1,11
 781 1695 781 1695 795 1671 c 2,12,-1
 918 1477 l 2,13,14
 930 1462 930 1462 930 1448 c 0,15,16
 930 1430 930 1430 891 1430 c 2,17,-1
 850 1430 l 2,18,19
 754 1430 754 1430 719 1475 c 2,20,-1
 666 1552 l 1,21,-1
 612 1477 l 2,22,23
 577 1430 577 1430 485 1430 c 2,24,-1
 442 1430 l 2,0,1
715 -14 m 0,25,26
 393 -14 393 -14 239.5 153 c 128,-1,27
 86 320 86 320 86 672 c 0,28,29
 86 1352 86 1352 723 1352 c 0,30,31
 810 1352 810 1352 903 1336 c 128,-1,32
 996 1320 996 1320 1064.5 1288.5 c 128,-1,33
 1133 1257 1133 1257 1133 1219 c 0,34,35
 1133 1177 1133 1177 1087.5 1107.5 c 128,-1,36
 1042 1038 1042 1038 1008 1038 c 0,37,38
 1003 1038 1003 1038 967 1053.5 c 128,-1,39
 931 1069 931 1069 864 1084.5 c 128,-1,40
 797 1100 797 1100 717 1100 c 0,41,42
 549 1100 549 1100 468 993 c 128,-1,43
 387 886 387 886 387 670 c 0,44,45
 387 236 387 236 715 236 c 0,46,47
 801 236 801 236 862 248 c 1,48,-1
 862 492 l 1,49,-1
 694 492 l 2,50,51
 637 492 637 492 637 586 c 2,52,-1
 637 647 l 2,53,54
 637 698 637 698 650.5 720.5 c 128,-1,55
 664 743 664 743 694 743 c 2,56,-1
 1081 743 l 2,57,58
 1122 743 1122 743 1140.5 724.5 c 128,-1,59
 1159 706 1159 706 1159 666 c 2,60,-1
 1159 135 l 2,61,62
 1159 98 1159 98 1125 69.5 c 128,-1,63
 1091 41 1091 41 1042.5 25.5 c 128,-1,64
 994 10 994 10 929 0.5 c 128,-1,65
 864 -9 864 -9 814 -11.5 c 128,-1,66
 764 -14 764 -14 715 -14 c 0,25,26
EndSplineSet
Position2: "'cpsp' Capital Spacing lookup 0 subtable" dx=20 dy=0 dh=41 dv=0
EndChar

StartChar: Gcommaaccent
Encoding: 290 290 65
Width: 1282
VWidth: 1908
GlyphClass: 2
Flags: MW
HStem: -459 86G<572 624> -459 360<572 700> -14 250<604 741 604 782> 492 252<675 1081 694 862> 1100 252<604 807 511 808>
VStem: 86 301<526 813 526 899> 551 246<-246 -158 -246 -156> 862 297<248 492 492 492>
AnchorPoint: "Anchor-1" 668 1335 basechar 0
AnchorPoint: "Anchor-0" 680 -389 basechar 0
LayerCount: 2
Back
Fore
SplineSet
715 -14 m 0,0,1
 393 -14 393 -14 239.5 153 c 128,-1,2
 86 320 86 320 86 672 c 0,3,4
 86 1352 86 1352 723 1352 c 0,5,6
 810 1352 810 1352 903 1336 c 128,-1,7
 996 1320 996 1320 1064.5 1288.5 c 128,-1,8
 1133 1257 1133 1257 1133 1219 c 0,9,10
 1133 1177 1133 1177 1087.5 1107.5 c 128,-1,11
 1042 1038 1042 1038 1008 1038 c 0,12,13
 1003 1038 1003 1038 967 1053.5 c 128,-1,14
 931 1069 931 1069 864 1084.5 c 128,-1,15
 797 1100 797 1100 717 1100 c 0,16,17
 549 1100 549 1100 468 993 c 128,-1,18
 387 886 387 886 387 670 c 0,19,20
 387 236 387 236 715 236 c 0,21,22
 801 236 801 236 862 248 c 1,23,-1
 862 492 l 1,24,-1
 694 492 l 2,25,26
 637 492 637 492 637 586 c 2,27,-1
 637 647 l 2,28,29
 637 698 637 698 650.5 720.5 c 128,-1,30
 664 743 664 743 694 743 c 2,31,-1
 1081 743 l 2,32,33
 1122 743 1122 743 1140.5 724.5 c 128,-1,34
 1159 706 1159 706 1159 666 c 2,35,-1
 1159 135 l 2,36,37
 1159 98 1159 98 1125 69.5 c 128,-1,38
 1091 41 1091 41 1042.5 25.5 c 128,-1,39
 994 10 994 10 929 0.5 c 128,-1,40
 864 -9 864 -9 814 -11.5 c 128,-1,41
 764 -14 764 -14 715 -14 c 0,0,1
590 -459 m 0,42,43
 558 -459 558 -459 531 -448 c 128,-1,44
 504 -437 504 -437 504 -416 c 0,45,46
 504 -405 504 -405 516 -377 c 128,-1,47
 528 -349 528 -349 539.5 -299 c 128,-1,48
 551 -249 551 -249 551 -182 c 0,49,50
 551 -98 551 -98 664 -98 c 2,51,-1
 700 -98 l 2,52,53
 749 -98 749 -98 773 -120.5 c 128,-1,54
 797 -143 797 -143 797 -182 c 0,55,56
 797 -242 797 -242 759.5 -308.5 c 128,-1,57
 722 -375 722 -375 673 -417 c 128,-1,58
 624 -459 624 -459 590 -459 c 0,42,43
EndSplineSet
Position2: "'cpsp' Capital Spacing lookup 0 subtable" dx=20 dy=0 dh=41 dv=0
EndChar

StartChar: Gdotaccent
Encoding: 288 288 66
Width: 1282
VWidth: 1908
GlyphClass: 2
Flags: MW
HStem: -14 250<604 741 604 782> 492 252<675 1081 694 862> 1100 252<604 807 511 808> 1442 174<553 708>
VStem: 86 301<526 813 526 899> 553 229<1503 1616 1483 1636> 862 297<248 492 492 492>
AnchorPoint: "Anchor-1" 668 1335 basechar 0
AnchorPoint: "Anchor-0" 680 0 basechar 0
LayerCount: 2
Back
Fore
SplineSet
668 1442 m 0,0,1
 553 1442 553 1442 553 1503 c 2,2,-1
 553 1616 l 2,3,4
 553 1677 553 1677 668 1677 c 0,5,6
 782 1677 782 1677 782 1616 c 2,7,-1
 782 1503 l 2,8,9
 782 1442 782 1442 668 1442 c 0,0,1
715 -14 m 0,10,11
 393 -14 393 -14 239.5 153 c 128,-1,12
 86 320 86 320 86 672 c 0,13,14
 86 1352 86 1352 723 1352 c 0,15,16
 810 1352 810 1352 903 1336 c 128,-1,17
 996 1320 996 1320 1064.5 1288.5 c 128,-1,18
 1133 1257 1133 1257 1133 1219 c 0,19,20
 1133 1177 1133 1177 1087.5 1107.5 c 128,-1,21
 1042 1038 1042 1038 1008 1038 c 0,22,23
 1003 1038 1003 1038 967 1053.5 c 128,-1,24
 931 1069 931 1069 864 1084.5 c 128,-1,25
 797 1100 797 1100 717 1100 c 0,26,27
 549 1100 549 1100 468 993 c 128,-1,28
 387 886 387 886 387 670 c 0,29,30
 387 236 387 236 715 236 c 0,31,32
 801 236 801 236 862 248 c 1,33,-1
 862 492 l 1,34,-1
 694 492 l 2,35,36
 637 492 637 492 637 586 c 2,37,-1
 637 647 l 2,38,39
 637 698 637 698 650.5 720.5 c 128,-1,40
 664 743 664 743 694 743 c 2,41,-1
 1081 743 l 2,42,43
 1122 743 1122 743 1140.5 724.5 c 128,-1,44
 1159 706 1159 706 1159 666 c 2,45,-1
 1159 135 l 2,46,47
 1159 98 1159 98 1125 69.5 c 128,-1,48
 1091 41 1091 41 1042.5 25.5 c 128,-1,49
 994 10 994 10 929 0.5 c 128,-1,50
 864 -9 864 -9 814 -11.5 c 128,-1,51
 764 -14 764 -14 715 -14 c 0,10,11
EndSplineSet
Position2: "'cpsp' Capital Spacing lookup 0 subtable" dx=20 dy=0 dh=41 dv=0
EndChar

StartChar: H
Encoding: 72 72 67
Width: 1400
VWidth: 1908
GlyphClass: 2
Flags: MW
HStem: -4 86G<234 274 274 342 1046 1085 1085 1153> 555 252<457 971 457 971> 1257 82G<274 342 342 382 1085 1153 1153 1193>
VStem: 160 297<57 555 807 1278> 971 297<57 555 555 555 807 1278>
AnchorPoint: "Anchor-1" 700 1335 basechar 0
AnchorPoint: "Anchor-0" 729 0 basechar 0
LayerCount: 2
Back
Fore
SplineSet
274 -4 m 2,0,1
 160 -4 160 -4 160 57 c 2,2,-1
 160 1278 l 2,3,4
 160 1339 160 1339 274 1339 c 2,5,-1
 342 1339 l 2,6,7
 457 1339 457 1339 457 1278 c 2,8,-1
 457 807 l 1,9,-1
 971 807 l 1,10,-1
 971 1278 l 2,11,12
 971 1339 971 1339 1085 1339 c 2,13,-1
 1153 1339 l 2,14,15
 1268 1339 1268 1339 1268 1278 c 2,16,-1
 1268 57 l 2,17,18
 1268 -4 1268 -4 1153 -4 c 2,19,-1
 1085 -4 l 2,20,21
 971 -4 971 -4 971 57 c 2,22,-1
 971 555 l 1,23,-1
 457 555 l 1,24,-1
 457 57 l 2,25,26
 457 -4 457 -4 342 -4 c 2,27,-1
 274 -4 l 2,0,1
EndSplineSet
Position2: "'cpsp' Capital Spacing lookup 0 subtable" dx=20 dy=0 dh=41 dv=0
EndChar

StartChar: Hbar
Encoding: 294 294 68
Width: 1400
VWidth: 1908
GlyphClass: 2
Flags: MW
HStem: -4 86G<234 274 274 342 1046 1085 1085 1153> 555 252<457 971 457 971> 909 180<93 160 113 160 457 971 1268 1288> 909 430<93 342 113 342 274 457 274 971>
VStem: 160 297<57 555 807 909 1090 1278> 971 297<57 555 555 555 807 909 1090 1278>
AnchorPoint: "Anchor-1" 700 1335 basechar 0
AnchorPoint: "Anchor-0" 729 0 basechar 0
LayerCount: 2
Back
Fore
SplineSet
1288 1090 m 2,0,1
 1317 1090 1317 1090 1330 1072 c 128,-1,2
 1343 1054 1343 1054 1343 1014 c 2,3,-1
 1343 985 l 2,4,5
 1343 945 1343 945 1330 927 c 128,-1,6
 1317 909 1317 909 1288 909 c 2,7,-1
 1268 909 l 1,8,-1
 1268 57 l 2,9,10
 1268 -4 1268 -4 1153 -4 c 2,11,-1
 1085 -4 l 2,12,13
 971 -4 971 -4 971 57 c 2,14,-1
 971 555 l 1,15,-1
 457 555 l 1,16,-1
 457 57 l 2,17,18
 457 -4 457 -4 342 -4 c 2,19,-1
 274 -4 l 2,20,21
 160 -4 160 -4 160 57 c 2,22,-1
 160 909 l 1,23,-1
 113 909 l 2,24,25
 55 909 55 909 55 985 c 2,26,-1
 55 1014 l 2,27,28
 55 1090 55 1090 113 1090 c 2,29,-1
 160 1090 l 1,30,-1
 160 1278 l 2,31,32
 160 1339 160 1339 274 1339 c 2,33,-1
 342 1339 l 2,34,35
 457 1339 457 1339 457 1278 c 2,36,-1
 457 1090 l 1,37,-1
 971 1090 l 1,38,-1
 971 1278 l 2,39,40
 971 1339 971 1339 1085 1339 c 2,41,-1
 1153 1339 l 2,42,43
 1268 1339 1268 1339 1268 1278 c 2,44,-1
 1268 1090 l 1,45,-1
 1288 1090 l 2,0,1
971 807 m 1,46,-1
 971 909 l 1,47,-1
 457 909 l 1,48,-1
 457 807 l 1,49,-1
 971 807 l 1,46,-1
EndSplineSet
Position2: "'cpsp' Capital Spacing lookup 0 subtable" dx=20 dy=0 dh=41 dv=0
EndChar

StartChar: Hcircumflex
Encoding: 292 292 69
Width: 1400
VWidth: 1908
GlyphClass: 2
Flags: MW
HStem: -4 86G<234 274 274 342 1046 1085 1085 1153> 555 252<457 971 457 971> 1257 82G<274 342 342 382 1085 1153 1153 1193> 1430 279<462 711 475 711 690 883 690 924>
VStem: 160 297<57 555 807 1278> 971 297<57 555 555 555 807 1278>
AnchorPoint: "Anchor-1" 1020 1552 basechar 0
AnchorPoint: "Anchor-0" 729 0 basechar 0
LayerCount: 2
Back
Fore
SplineSet
475 1430 m 2,0,1
 438 1430 438 1430 438 1448 c 0,2,3
 438 1459 438 1459 449 1477 c 2,4,-1
 573 1671 l 2,5,6
 587 1695 587 1695 613.5 1701.5 c 128,-1,7
 640 1708 640 1708 690 1708 c 2,8,-1
 711 1708 l 2,9,10
 760 1708 760 1708 786.5 1701.5 c 128,-1,11
 813 1695 813 1695 827 1671 c 2,12,-1
 950 1477 l 2,13,14
 963 1461 963 1461 963 1448 c 0,15,16
 963 1430 963 1430 924 1430 c 2,17,-1
 883 1430 l 2,18,19
 787 1430 787 1430 752 1475 c 2,20,-1
 698 1552 l 1,21,-1
 645 1477 l 2,22,23
 610 1430 610 1430 518 1430 c 2,24,-1
 475 1430 l 2,0,1
274 -4 m 2,25,26
 160 -4 160 -4 160 57 c 2,27,-1
 160 1278 l 2,28,29
 160 1339 160 1339 274 1339 c 2,30,-1
 342 1339 l 2,31,32
 457 1339 457 1339 457 1278 c 2,33,-1
 457 807 l 1,34,-1
 971 807 l 1,35,-1
 971 1278 l 2,36,37
 971 1339 971 1339 1085 1339 c 2,38,-1
 1153 1339 l 2,39,40
 1268 1339 1268 1339 1268 1278 c 2,41,-1
 1268 57 l 2,42,43
 1268 -4 1268 -4 1153 -4 c 2,44,-1
 1085 -4 l 2,45,46
 971 -4 971 -4 971 57 c 2,47,-1
 971 555 l 1,48,-1
 457 555 l 1,49,-1
 457 57 l 2,50,51
 457 -4 457 -4 342 -4 c 2,52,-1
 274 -4 l 2,25,26
EndSplineSet
Position2: "'cpsp' Capital Spacing lookup 0 subtable" dx=20 dy=0 dh=41 dv=0
EndChar

StartChar: uni1E24
Encoding: 7716 7716 70
Width: 1400
VWidth: 1908
GlyphClass: 2
Flags: MW
HStem: -389 174<616 771> -4 86G<234 274 274 342 1046 1085 1085 1153> 555 252<457 971 457 971> 1257 82G<274 342 342 382 1085 1153 1153 1193>
VStem: 160 297<57 555 807 1278> 616 229<-328 -215 -348 -195> 971 297<57 555 555 555 807 1278>
AnchorPoint: "Anchor-1" 700 1335 basechar 0
AnchorPoint: "Anchor-0" 733 -389 basechar 0
LayerCount: 2
Back
Fore
SplineSet
274 -4 m 2,0,1
 160 -4 160 -4 160 57 c 2,2,-1
 160 1278 l 2,3,4
 160 1339 160 1339 274 1339 c 2,5,-1
 342 1339 l 2,6,7
 457 1339 457 1339 457 1278 c 2,8,-1
 457 807 l 1,9,-1
 971 807 l 1,10,-1
 971 1278 l 2,11,12
 971 1339 971 1339 1085 1339 c 2,13,-1
 1153 1339 l 2,14,15
 1268 1339 1268 1339 1268 1278 c 2,16,-1
 1268 57 l 2,17,18
 1268 -4 1268 -4 1153 -4 c 2,19,-1
 1085 -4 l 2,20,21
 971 -4 971 -4 971 57 c 2,22,-1
 971 555 l 1,23,-1
 457 555 l 1,24,-1
 457 57 l 2,25,26
 457 -4 457 -4 342 -4 c 2,27,-1
 274 -4 l 2,0,1
731 -389 m 128,-1,29
 616 -389 616 -389 616 -328 c 2,30,-1
 616 -215 l 2,31,32
 616 -154 616 -154 731 -154 c 128,-1,33
 846 -154 846 -154 846 -215 c 2,34,-1
 846 -328 l 2,35,28
 846 -389 846 -389 731 -389 c 128,-1,29
EndSplineSet
Position2: "'cpsp' Capital Spacing lookup 0 subtable" dx=20 dy=0 dh=41 dv=0
EndChar

StartChar: I
Encoding: 73 73 71
Width: 540
VWidth: 1908
GlyphClass: 2
Flags: MW
HStem: -6 86G<195 236 236 301> 1260 82G<236 301 301 341>
VStem: 121 295<57 1278>
AnchorPoint: "Anchor-1" 270 1335 basechar 0
AnchorPoint: "Anchor-0" 270 0 basechar 0
LayerCount: 2
Back
Fore
SplineSet
236 -6 m 2,0,1
 121 -6 121 -6 121 57 c 2,2,-1
 121 1278 l 2,3,4
 121 1341 121 1341 236 1341 c 2,5,-1
 301 1341 l 2,6,7
 416 1341 416 1341 416 1278 c 2,8,-1
 416 57 l 2,9,10
 416 -6 416 -6 301 -6 c 2,11,-1
 236 -6 l 2,0,1
EndSplineSet
Position2: "'cpsp' Capital Spacing lookup 0 subtable" dx=20 dy=0 dh=41 dv=0
EndChar

StartChar: IJ
Encoding: 306 306 72
Width: 1306
VWidth: 1908
GlyphClass: 2
Flags: MW
HStem: -14 250<753 780 693 918> 1260 82G<236 301 301 341 999 1065 1065 1105>
VStem: 121 295<57 1278> 885 295<434 1278>
AnchorPoint: "Anchor-1" 1036 1335 basechar 0
AnchorPoint: "Anchor-0" 270 0 basechar 0
LayerCount: 2
Back
Fore
SplineSet
236 -6 m 2,0,1
 121 -6 121 -6 121 57 c 2,2,-1
 121 1278 l 2,3,4
 121 1341 121 1341 236 1341 c 2,5,-1
 301 1341 l 2,6,7
 416 1341 416 1341 416 1278 c 2,8,-1
 416 57 l 2,9,10
 416 -6 416 -6 301 -6 c 2,11,-1
 236 -6 l 2,0,1
776 -14 m 0,12,13
 755 -14 755 -14 732.5 -13 c 128,-1,14
 710 -12 710 -12 673 -7 c 128,-1,15
 636 -2 636 -2 608.5 6.5 c 128,-1,16
 581 15 581 15 560 32 c 128,-1,17
 539 49 539 49 539 72 c 0,18,19
 539 118 539 118 558.5 182 c 128,-1,20
 578 246 578 246 616 250 c 0,21,22
 621 250 621 250 655 243 c 128,-1,23
 689 236 689 236 723 236 c 0,24,25
 809 236 809 236 847 282.5 c 128,-1,26
 885 329 885 329 885 434 c 2,27,-1
 885 1278 l 2,28,29
 885 1341 885 1341 999 1341 c 2,30,-1
 1065 1341 l 2,31,32
 1180 1341 1180 1341 1180 1278 c 2,33,-1
 1180 385 l 2,34,35
 1180 196 1180 196 1080.5 91 c 128,-1,36
 981 -14 981 -14 776 -14 c 0,12,13
EndSplineSet
Position2: "'cpsp' Capital Spacing lookup 0 subtable" dx=20 dy=0 dh=41 dv=0
EndChar

StartChar: Iacute
Encoding: 205 205 73
Width: 540
VWidth: 1908
GlyphClass: 2
Flags: MW
HStem: -6 86G<195 236 236 301> 1260 82G<236 301 301 341> 1436 303<170 458>
VStem: 121 295<57 1278>
AnchorPoint: "Anchor-1" 270 1335 basechar 0
AnchorPoint: "Anchor-0" 270 0 basechar 0
LayerCount: 2
Back
Fore
SplineSet
193 1436 m 0,0,1
 160 1436 160 1436 146.5 1442.5 c 128,-1,2
 133 1449 133 1449 133 1464 c 0,3,4
 133 1473 133 1473 143.5 1492 c 128,-1,5
 154 1511 154 1511 189 1569.5 c 128,-1,6
 224 1628 224 1628 258 1688 c 0,7,8
 288 1739 288 1739 420 1739 c 0,9,10
 535 1739 535 1739 535 1712 c 0,11,12
 535 1701 535 1701 525 1688 c 128,-1,13
 515 1675 515 1675 467 1624 c 0,14,15
 396 1548 396 1548 336 1483 c 0,16,17
 295 1436 295 1436 193 1436 c 0,0,1
236 -6 m 2,18,19
 121 -6 121 -6 121 57 c 2,20,-1
 121 1278 l 2,21,22
 121 1341 121 1341 236 1341 c 2,23,-1
 301 1341 l 2,24,25
 416 1341 416 1341 416 1278 c 2,26,-1
 416 57 l 2,27,28
 416 -6 416 -6 301 -6 c 2,29,-1
 236 -6 l 2,18,19
EndSplineSet
Position2: "'cpsp' Capital Spacing lookup 0 subtable" dx=20 dy=0 dh=41 dv=0
EndChar

StartChar: Ibreve
Encoding: 300 300 74
Width: 540
VWidth: 1908
GlyphClass: 2
Flags: MW
HStem: -6 86G<195 236 236 301> 1260 82G<236 301 301 341> 1436 174<220 321 220 351>
VStem: 121 295<57 1278>
AnchorPoint: "Anchor-1" 270 1647 basechar 0
AnchorPoint: "Anchor-0" 270 0 basechar 0
LayerCount: 2
Back
Fore
SplineSet
268 1436 m 128,-1,1
 147 1436 147 1436 67.5 1500 c 128,-1,2
 -12 1564 -12 1564 -12 1649 c 0,3,4
 -12 1702 -12 1702 55 1702 c 0,5,6
 70 1702 70 1702 83 1696.5 c 128,-1,7
 96 1691 96 1691 101 1686.5 c 128,-1,8
 106 1682 106 1682 119 1669 c 0,9,10
 137 1650 137 1650 148.5 1640.5 c 128,-1,11
 160 1631 160 1631 192 1620.5 c 128,-1,12
 224 1610 224 1610 268 1610 c 0,13,14
 305 1610 305 1610 331.5 1615 c 128,-1,15
 358 1620 358 1620 376.5 1631.5 c 128,-1,16
 395 1643 395 1643 402.5 1649 c 128,-1,17
 410 1655 410 1655 424 1671 c 0,18,19
 448 1702 448 1702 483 1702 c 0,20,21
 549 1702 549 1702 549 1649 c 0,22,23
 549 1564 549 1564 469 1500 c 128,-1,0
 389 1436 389 1436 268 1436 c 128,-1,1
236 -6 m 2,24,25
 121 -6 121 -6 121 57 c 2,26,-1
 121 1278 l 2,27,28
 121 1341 121 1341 236 1341 c 2,29,-1
 301 1341 l 2,30,31
 416 1341 416 1341 416 1278 c 2,32,-1
 416 57 l 2,33,34
 416 -6 416 -6 301 -6 c 2,35,-1
 236 -6 l 2,24,25
EndSplineSet
Position2: "'cpsp' Capital Spacing lookup 0 subtable" dx=20 dy=0 dh=41 dv=0
EndChar

StartChar: Icircumflex
Encoding: 206 206 75
Width: 540
VWidth: 1908
GlyphClass: 2
Flags: MW
HStem: -6 86G<195 236 236 301> 1260 82G<236 301 301 341> 1430 279<30 279 43 279 258 451 258 492>
VStem: 121 295<57 1278>
AnchorPoint: "Anchor-1" 590 1552 basechar 0
AnchorPoint: "Anchor-0" 270 0 basechar 0
LayerCount: 2
Back
Fore
SplineSet
43 1430 m 2,0,1
 6 1430 6 1430 6 1448 c 0,2,3
 6 1460 6 1460 16 1477 c 2,4,-1
 141 1671 l 2,5,6
 155 1695 155 1695 181.5 1701.5 c 128,-1,7
 208 1708 208 1708 258 1708 c 2,8,-1
 279 1708 l 2,9,10
 328 1708 328 1708 354.5 1701.5 c 128,-1,11
 381 1695 381 1695 395 1671 c 2,12,-1
 518 1477 l 2,13,14
 530 1462 530 1462 530 1448 c 0,15,16
 530 1430 530 1430 492 1430 c 2,17,-1
 451 1430 l 2,18,19
 354 1430 354 1430 319 1475 c 2,20,-1
 266 1552 l 1,21,-1
 213 1477 l 2,22,23
 178 1430 178 1430 86 1430 c 2,24,-1
 43 1430 l 2,0,1
236 -6 m 2,25,26
 121 -6 121 -6 121 57 c 2,27,-1
 121 1278 l 2,28,29
 121 1341 121 1341 236 1341 c 2,30,-1
 301 1341 l 2,31,32
 416 1341 416 1341 416 1278 c 2,33,-1
 416 57 l 2,34,35
 416 -6 416 -6 301 -6 c 2,36,-1
 236 -6 l 2,25,26
EndSplineSet
Position2: "'cpsp' Capital Spacing lookup 0 subtable" dx=20 dy=0 dh=41 dv=0
EndChar

StartChar: Idieresis
Encoding: 207 207 76
Width: 540
VWidth: 1908
GlyphClass: 2
Flags: MW
HStem: -6 86G<195 236 236 301> 1260 82G<236 301 301 341> 1442 174<-18 136>
VStem: -18 229<1503 1616 1483 1636> 121 295<57 1278> 326 229<1503 1616 1483 1636>
AnchorPoint: "Anchor-1" 270 1335 basechar 0
AnchorPoint: "Anchor-0" 270 0 basechar 0
LayerCount: 2
Back
Fore
SplineSet
96 1442 m 0,0,1
 -18 1442 -18 1442 -18 1503 c 2,2,-1
 -18 1616 l 2,3,4
 -18 1677 -18 1677 96 1677 c 0,5,6
 211 1677 211 1677 211 1616 c 2,7,-1
 211 1503 l 2,8,9
 211 1442 211 1442 96 1442 c 0,0,1
440 1442 m 0,10,11
 326 1442 326 1442 326 1503 c 2,12,-1
 326 1616 l 2,13,14
 326 1677 326 1677 440 1677 c 0,15,16
 555 1677 555 1677 555 1616 c 2,17,-1
 555 1503 l 2,18,19
 555 1442 555 1442 440 1442 c 0,10,11
236 -6 m 2,20,21
 121 -6 121 -6 121 57 c 2,22,-1
 121 1278 l 2,23,24
 121 1341 121 1341 236 1341 c 2,25,-1
 301 1341 l 2,26,27
 416 1341 416 1341 416 1278 c 2,28,-1
 416 57 l 2,29,30
 416 -6 416 -6 301 -6 c 2,31,-1
 236 -6 l 2,20,21
EndSplineSet
Position2: "'cpsp' Capital Spacing lookup 0 subtable" dx=20 dy=0 dh=41 dv=0
EndChar

StartChar: Idotaccent
Encoding: 304 304 77
Width: 540
VWidth: 1908
GlyphClass: 2
Flags: MW
HStem: -6 86G<195 236 236 301> 1260 82G<236 301 301 341> 1442 174<154 308>
VStem: 121 295<57 1278>
AnchorPoint: "Anchor-1" 270 1335 basechar 0
AnchorPoint: "Anchor-0" 270 0 basechar 0
LayerCount: 2
Back
Fore
SplineSet
268 1442 m 0,0,1
 154 1442 154 1442 154 1503 c 2,2,-1
 154 1616 l 2,3,4
 154 1677 154 1677 268 1677 c 0,5,6
 383 1677 383 1677 383 1616 c 2,7,-1
 383 1503 l 2,8,9
 383 1442 383 1442 268 1442 c 0,0,1
236 -6 m 2,10,11
 121 -6 121 -6 121 57 c 2,12,-1
 121 1278 l 2,13,14
 121 1341 121 1341 236 1341 c 2,15,-1
 301 1341 l 2,16,17
 416 1341 416 1341 416 1278 c 2,18,-1
 416 57 l 2,19,20
 416 -6 416 -6 301 -6 c 2,21,-1
 236 -6 l 2,10,11
EndSplineSet
Position2: "'cpsp' Capital Spacing lookup 0 subtable" dx=20 dy=0 dh=41 dv=0
EndChar

StartChar: uni1ECA
Encoding: 7882 7882 78
Width: 540
VWidth: 1908
GlyphClass: 2
Flags: MW
HStem: -389 174<158 312> -6 86G<195 236 236 301> 1260 82G<236 301 301 341>
VStem: 121 295<57 1278> 158 229<-328 -215 -348 -195>
AnchorPoint: "Anchor-1" 270 1335 basechar 0
AnchorPoint: "Anchor-0" 274 -389 basechar 0
LayerCount: 2
Back
Fore
SplineSet
236 -6 m 2,0,1
 121 -6 121 -6 121 57 c 2,2,-1
 121 1278 l 2,3,4
 121 1341 121 1341 236 1341 c 2,5,-1
 301 1341 l 2,6,7
 416 1341 416 1341 416 1278 c 2,8,-1
 416 57 l 2,9,10
 416 -6 416 -6 301 -6 c 2,11,-1
 236 -6 l 2,0,1
272 -389 m 0,12,13
 158 -389 158 -389 158 -328 c 2,14,-1
 158 -215 l 2,15,16
 158 -154 158 -154 272 -154 c 0,17,18
 387 -154 387 -154 387 -215 c 2,19,-1
 387 -328 l 2,20,21
 387 -389 387 -389 272 -389 c 0,12,13
EndSplineSet
Position2: "'cpsp' Capital Spacing lookup 0 subtable" dx=20 dy=0 dh=41 dv=0
EndChar

StartChar: Igrave
Encoding: 204 204 79
Width: 540
VWidth: 1908
GlyphClass: 2
Flags: MW
HStem: -6 86G<195 236 236 301> 1260 82G<236 301 301 341> 1436 303<89 378>
VStem: 121 295<57 1278>
AnchorPoint: "Anchor-1" 270 1335 basechar 0
AnchorPoint: "Anchor-0" 270 0 basechar 0
LayerCount: 2
Back
Fore
SplineSet
354 1436 m 0,0,1
 294 1436 294 1436 263.5 1448.5 c 128,-1,2
 233 1461 233 1461 211 1483 c 0,3,4
 145 1556 145 1556 71 1635 c 0,5,6
 30 1678 30 1678 21 1689.5 c 128,-1,7
 12 1701 12 1701 12 1712 c 0,8,9
 12 1739 12 1739 127 1739 c 0,10,11
 259 1739 259 1739 289 1688 c 0,12,13
 312 1647 312 1647 335.5 1607.5 c 128,-1,14
 359 1568 359 1568 371.5 1547 c 128,-1,15
 384 1526 384 1526 395 1507.5 c 128,-1,16
 406 1489 406 1489 410 1479.5 c 128,-1,17
 414 1470 414 1470 414 1464 c 0,18,19
 414 1449 414 1449 401 1442.5 c 128,-1,20
 388 1436 388 1436 354 1436 c 0,0,1
236 -6 m 2,21,22
 121 -6 121 -6 121 57 c 2,23,-1
 121 1278 l 2,24,25
 121 1341 121 1341 236 1341 c 2,26,-1
 301 1341 l 2,27,28
 416 1341 416 1341 416 1278 c 2,29,-1
 416 57 l 2,30,31
 416 -6 416 -6 301 -6 c 2,32,-1
 236 -6 l 2,21,22
EndSplineSet
Position2: "'cpsp' Capital Spacing lookup 0 subtable" dx=20 dy=0 dh=41 dv=0
EndChar

StartChar: uni1EC8
Encoding: 7880 7880 80
Width: 540
VWidth: 1908
GlyphClass: 2
Flags: MW
HStem: -6 86G<195 236 236 301> 1260 82G<236 301 301 341> 1655 117<259 294>
VStem: 121 295<57 1278> 338 168<1585 1627>
AnchorPoint: "Anchor-1" 270 1675 basechar 0
AnchorPoint: "Anchor-0" 270 0 basechar 0
LayerCount: 2
Back
Fore
SplineSet
313 1425 m 0,0,1
 281 1425 281 1425 246 1441 c 128,-1,2
 211 1457 211 1457 211 1470 c 0,3,4
 211 1481 211 1481 231 1498.5 c 128,-1,5
 251 1516 251 1516 274.5 1533 c 128,-1,6
 298 1550 298 1550 318 1572.5 c 128,-1,7
 338 1595 338 1595 338 1614 c 128,-1,8
 338 1633 338 1633 321 1644 c 128,-1,9
 304 1655 304 1655 279 1655 c 128,-1,10
 254 1655 254 1655 229 1643.5 c 128,-1,11
 204 1632 204 1632 199 1632 c 0,12,13
 186 1632 186 1632 163.5 1661.5 c 128,-1,14
 141 1691 141 1691 141 1712 c 0,15,16
 141 1731 141 1731 192 1751.5 c 128,-1,17
 243 1772 243 1772 293 1772 c 0,18,19
 395 1772 395 1772 450.5 1731.5 c 128,-1,20
 506 1691 506 1691 506 1620 c 0,21,22
 506 1574 506 1574 464.5 1526.5 c 128,-1,23
 423 1479 423 1479 378 1452 c 128,-1,24
 333 1425 333 1425 313 1425 c 0,0,1
236 -6 m 2,25,26
 121 -6 121 -6 121 57 c 2,27,-1
 121 1278 l 2,28,29
 121 1341 121 1341 236 1341 c 2,30,-1
 301 1341 l 2,31,32
 416 1341 416 1341 416 1278 c 2,33,-1
 416 57 l 2,34,35
 416 -6 416 -6 301 -6 c 2,36,-1
 236 -6 l 2,25,26
EndSplineSet
Position2: "'cpsp' Capital Spacing lookup 0 subtable" dx=20 dy=0 dh=41 dv=0
EndChar

StartChar: Imacron
Encoding: 298 298 81
Width: 540
VWidth: 1908
GlyphClass: 2
Flags: MW
HStem: -6 86G<195 236 236 301> 1260 82G<236 301 301 341> 1477 182<43 473 63 473>
VStem: 121 295<57 1278>
AnchorPoint: "Anchor-1" 270 1335 basechar 0
AnchorPoint: "Anchor-0" 270 0 basechar 0
LayerCount: 2
Back
Fore
SplineSet
63 1477 m 2,0,1
 33 1477 33 1477 19.5 1495.5 c 128,-1,2
 6 1514 6 1514 6 1554 c 2,3,-1
 6 1583 l 2,4,5
 6 1623 6 1623 19 1641 c 128,-1,6
 32 1659 32 1659 63 1659 c 2,7,-1
 473 1659 l 2,8,9
 530 1659 530 1659 530 1583 c 2,10,-1
 530 1554 l 2,11,12
 530 1477 530 1477 473 1477 c 2,13,-1
 63 1477 l 2,0,1
236 -6 m 2,14,15
 121 -6 121 -6 121 57 c 2,16,-1
 121 1278 l 2,17,18
 121 1341 121 1341 236 1341 c 2,19,-1
 301 1341 l 2,20,21
 416 1341 416 1341 416 1278 c 2,22,-1
 416 57 l 2,23,24
 416 -6 416 -6 301 -6 c 2,25,-1
 236 -6 l 2,14,15
EndSplineSet
Position2: "'cpsp' Capital Spacing lookup 0 subtable" dx=20 dy=0 dh=41 dv=0
EndChar

StartChar: Iogonek
Encoding: 302 302 82
Width: 540
VWidth: 1908
GlyphClass: 2
Flags: MW
HStem: -350 135<424 461> -6 86G<195 236 236 242> -2 86G<348 348> 1260 82G<236 301 301 341>
VStem: 121 295<57 1278>
AnchorPoint: "Anchor-1" 270 1335 basechar 0
AnchorPoint: "Anchor-0" 270 0 basechar 0
LayerCount: 2
Back
Fore
SplineSet
539 -201 m 0,0,1
 582 -201 582 -201 582 -254 c 0,2,3
 582 -350 582 -350 424 -350 c 0,4,5
 366 -350 366 -350 323 -334.5 c 128,-1,6
 280 -319 280 -319 257 -297.5 c 128,-1,7
 234 -276 234 -276 220 -247 c 128,-1,8
 206 -218 206 -218 202.5 -196.5 c 128,-1,9
 199 -175 199 -175 199 -154 c 0,10,11
 199 -122 199 -122 209 -78 c 128,-1,12
 219 -34 219 -34 242 -6 c 1,13,-1
 236 -6 l 2,14,15
 121 -6 121 -6 121 57 c 2,16,-1
 121 1278 l 2,17,18
 121 1341 121 1341 236 1341 c 2,19,-1
 301 1341 l 2,20,21
 416 1341 416 1341 416 1278 c 2,22,-1
 416 57 l 2,23,24
 416 7 416 7 348 -2 c 1,25,-1
 348 -10 l 2,26,27
 348 -21 348 -21 338 -54.5 c 128,-1,28
 328 -88 328 -88 328 -119 c 0,29,30
 328 -151 328 -151 339 -172 c 128,-1,31
 350 -193 350 -193 371 -201.5 c 128,-1,32
 392 -210 392 -210 408 -212.5 c 128,-1,33
 424 -215 424 -215 446 -215 c 0,34,35
 471 -215 471 -215 497 -208 c 128,-1,36
 523 -201 523 -201 539 -201 c 0,0,1
EndSplineSet
Position2: "'cpsp' Capital Spacing lookup 0 subtable" dx=20 dy=0 dh=41 dv=0
EndChar

StartChar: Itilde
Encoding: 296 296 83
Width: 540
VWidth: 1908
GlyphClass: 2
Flags: MW
HStem: -6 86G<195 236 236 301> 1260 82G<236 301 301 341>
VStem: 121 295<57 1278>
AnchorPoint: "Anchor-1" 270 1335 basechar 0
AnchorPoint: "Anchor-0" 270 0 basechar 0
LayerCount: 2
Back
Fore
SplineSet
301 1341 m 2,0,1
 416 1341 416 1341 416 1278 c 2,2,-1
 416 57 l 2,3,4
 416 -6 416 -6 301 -6 c 2,5,-1
 236 -6 l 2,6,7
 121 -6 121 -6 121 57 c 2,8,-1
 121 1278 l 2,9,10
 121 1341 121 1341 236 1341 c 2,11,-1
 301 1341 l 2,0,1
EndSplineSet
Position2: "'cpsp' Capital Spacing lookup 0 subtable" dx=20 dy=0 dh=41 dv=0
EndChar

StartChar: J
Encoding: 74 74 84
Width: 770
VWidth: 1908
GlyphClass: 2
Flags: MW
HStem: -14 250<214 242 155 379> 1260 82G<461 526 526 566>
VStem: 346 295<434 1278>
AnchorPoint: "Anchor-1" 500 1335 basechar 0
AnchorPoint: "Anchor-0" 0 0 basechar 0
LayerCount: 2
Back
Fore
SplineSet
238 -14 m 0,0,1
 217 -14 217 -14 194.5 -13 c 128,-1,2
 172 -12 172 -12 134.5 -7 c 128,-1,3
 97 -2 97 -2 69.5 6.5 c 128,-1,4
 42 15 42 15 21 32 c 128,-1,5
 0 49 0 49 0 72 c 0,6,7
 0 117 0 117 20 181.5 c 128,-1,8
 40 246 40 246 78 250 c 0,9,10
 83 250 83 250 116.5 243 c 128,-1,11
 150 236 150 236 184 236 c 0,12,13
 270 236 270 236 308 282.5 c 128,-1,14
 346 329 346 329 346 434 c 2,15,-1
 346 1278 l 2,16,17
 346 1341 346 1341 461 1341 c 2,18,-1
 526 1341 l 2,19,20
 641 1341 641 1341 641 1278 c 2,21,-1
 641 385 l 2,22,23
 641 196 641 196 542 91 c 128,-1,24
 443 -14 443 -14 238 -14 c 0,0,1
EndSplineSet
Position2: "'cpsp' Capital Spacing lookup 0 subtable" dx=20 dy=0 dh=41 dv=0
EndChar

StartChar: Jcircumflex
Encoding: 308 308 85
Width: 770
VWidth: 1908
GlyphClass: 2
Flags: MW
HStem: -14 250<214 242 155 379> 1260 82G<461 526 526 566> 1430 279<259 508 272 508 487 680 487 721>
VStem: 346 295<434 1278>
AnchorPoint: "Anchor-1" 819 1552 basechar 0
AnchorPoint: "Anchor-0" 0 0 basechar 0
LayerCount: 2
Back
Fore
SplineSet
272 1430 m 2,0,1
 236 1430 236 1430 236 1448 c 0,2,3
 236 1460 236 1460 246 1477 c 2,4,-1
 371 1671 l 2,5,6
 385 1695 385 1695 411.5 1701.5 c 128,-1,7
 438 1708 438 1708 487 1708 c 2,8,-1
 508 1708 l 2,9,10
 558 1708 558 1708 584.5 1701.5 c 128,-1,11
 611 1695 611 1695 625 1671 c 2,12,-1
 748 1477 l 2,13,14
 760 1462 760 1462 760 1448 c 0,15,16
 760 1430 760 1430 721 1430 c 2,17,-1
 680 1430 l 2,18,19
 584 1430 584 1430 549 1475 c 2,20,-1
 496 1552 l 1,21,-1
 442 1477 l 2,22,23
 407 1430 407 1430 315 1430 c 2,24,-1
 272 1430 l 2,0,1
238 -14 m 0,25,26
 217 -14 217 -14 194.5 -13 c 128,-1,27
 172 -12 172 -12 134.5 -7 c 128,-1,28
 97 -2 97 -2 69.5 6.5 c 128,-1,29
 42 15 42 15 21 32 c 128,-1,30
 0 49 0 49 0 72 c 0,31,32
 0 117 0 117 20 181.5 c 128,-1,33
 40 246 40 246 78 250 c 0,34,35
 83 250 83 250 116.5 243 c 128,-1,36
 150 236 150 236 184 236 c 0,37,38
 270 236 270 236 308 282.5 c 128,-1,39
 346 329 346 329 346 434 c 2,40,-1
 346 1278 l 2,41,42
 346 1341 346 1341 461 1341 c 2,43,-1
 526 1341 l 2,44,45
 641 1341 641 1341 641 1278 c 2,46,-1
 641 385 l 2,47,48
 641 196 641 196 542 91 c 128,-1,49
 443 -14 443 -14 238 -14 c 0,25,26
EndSplineSet
Position2: "'cpsp' Capital Spacing lookup 0 subtable" dx=20 dy=0 dh=41 dv=0
EndChar

StartChar: K
Encoding: 75 75 86
Width: 1101
VWidth: 1908
GlyphClass: 2
Flags: MW
HStem: -4 86G<206 246 246 313 884 911 911 1022> 1257 82G<246 313 313 353 883 971 971 1009>
VStem: 131 297<57 610 768 1278>
AnchorPoint: "Anchor-1" 590 1335 basechar 0
AnchorPoint: "Anchor-0" 569 0 basechar 0
LayerCount: 2
Back
Fore
SplineSet
246 -4 m 2,0,1
 131 -4 131 -4 131 57 c 2,2,-1
 131 1278 l 2,3,4
 131 1339 131 1339 246 1339 c 2,5,-1
 313 1339 l 2,6,7
 428 1339 428 1339 428 1278 c 2,8,-1
 428 768 l 1,9,-1
 434 766 l 1,10,-1
 768 1305 l 2,11,12
 787 1339 787 1339 883 1339 c 2,13,-1
 971 1339 l 2,14,15
 1079 1339 1079 1339 1079 1311 c 0,16,17
 1079 1293 1079 1293 1063 1272 c 2,18,-1
 694 707 l 1,19,-1
 1112 66 l 2,20,21
 1128 42 1128 42 1128 25 c 0,22,23
 1128 -4 1128 -4 1022 -4 c 2,24,-1
 911 -4 l 2,25,26
 815 -4 815 -4 795 33 c 2,27,-1
 434 612 l 1,28,-1
 428 610 l 1,29,-1
 428 57 l 2,30,31
 428 -4 428 -4 313 -4 c 2,32,-1
 246 -4 l 2,0,1
EndSplineSet
Position2: "'cpsp' Capital Spacing lookup 0 subtable" dx=20 dy=0 dh=41 dv=0
EndChar

StartChar: Kcommaaccent
Encoding: 310 310 87
Width: 1101
VWidth: 1908
GlyphClass: 2
Flags: MW
HStem: -459 86G<464 515> -459 360<464 592> -4 86G<206 246 246 313 884 911 911 1022> 1257 82G<246 313 313 353 883 971 971 1009>
VStem: 131 297<57 610 768 1278> 442 246<-246 -158 -246 -156>
AnchorPoint: "Anchor-1" 590 1335 basechar 0
AnchorPoint: "Anchor-0" 569 -389 basechar 0
LayerCount: 2
Back
Fore
SplineSet
246 -4 m 2,0,1
 131 -4 131 -4 131 57 c 2,2,-1
 131 1278 l 2,3,4
 131 1339 131 1339 246 1339 c 2,5,-1
 313 1339 l 2,6,7
 428 1339 428 1339 428 1278 c 2,8,-1
 428 768 l 1,9,-1
 434 766 l 1,10,-1
 768 1305 l 2,11,12
 787 1339 787 1339 883 1339 c 2,13,-1
 971 1339 l 2,14,15
 1079 1339 1079 1339 1079 1311 c 0,16,17
 1079 1293 1079 1293 1063 1272 c 2,18,-1
 694 707 l 1,19,-1
 1112 66 l 2,20,21
 1128 42 1128 42 1128 25 c 0,22,23
 1128 -4 1128 -4 1022 -4 c 2,24,-1
 911 -4 l 2,25,26
 815 -4 815 -4 795 33 c 2,27,-1
 434 612 l 1,28,-1
 428 610 l 1,29,-1
 428 57 l 2,30,31
 428 -4 428 -4 313 -4 c 2,32,-1
 246 -4 l 2,0,1
481 -459 m 0,33,34
 449 -459 449 -459 422 -448 c 128,-1,35
 395 -437 395 -437 395 -416 c 0,36,37
 395 -405 395 -405 406.5 -377 c 128,-1,38
 418 -349 418 -349 430 -299 c 128,-1,39
 442 -249 442 -249 442 -182 c 0,40,41
 442 -98 442 -98 555 -98 c 2,42,-1
 592 -98 l 2,43,44
 641 -98 641 -98 664.5 -120.5 c 128,-1,45
 688 -143 688 -143 688 -182 c 0,46,47
 688 -242 688 -242 650.5 -308.5 c 128,-1,48
 613 -375 613 -375 564 -417 c 128,-1,49
 515 -459 515 -459 481 -459 c 0,33,34
EndSplineSet
Position2: "'cpsp' Capital Spacing lookup 0 subtable" dx=20 dy=0 dh=41 dv=0
EndChar

StartChar: L
Encoding: 76 76 88
Width: 925
VWidth: 1908
GlyphClass: 2
Flags: MW
HStem: 0 250<181 852 426 852 426 852> 1257 82G<246 311 311 351>
VStem: 131 295<250 1278 250 1278 250 1298>
AnchorPoint: "Anchor-1" 287 1335 basechar 0
AnchorPoint: "Anchor-0" 463 0 basechar 0
LayerCount: 2
Back
Fore
SplineSet
209 0 m 2,0,1
 168 0 168 0 149.5 18 c 128,-1,2
 131 36 131 36 131 76 c 2,3,-1
 131 1278 l 2,4,5
 131 1339 131 1339 246 1339 c 2,6,-1
 311 1339 l 2,7,8
 426 1339 426 1339 426 1278 c 2,9,-1
 426 250 l 1,10,-1
 852 250 l 2,11,12
 882 250 882 250 895.5 227.5 c 128,-1,13
 909 205 909 205 909 154 c 2,14,-1
 909 96 l 2,15,16
 909 45 909 45 895.5 22.5 c 128,-1,17
 882 0 882 0 852 0 c 2,18,-1
 209 0 l 2,0,1
EndSplineSet
Position2: "'cpsp' Capital Spacing lookup 0 subtable" dx=20 dy=0 dh=41 dv=0
EndChar

StartChar: uni01C7
Encoding: 455 455 89
Width: 1372
VWidth: 1908
GlyphClass: 2
Flags: MW
HStem: -346 250<833 860 773 997> 0 250<181 717 426 717 426 717> 1257 82G<246 311 311 351> 1260 82G<1079 1145 1145 1185>
VStem: 131 295<250 1278 250 1278 250 1298> 965 295<102 1278>
LayerCount: 2
Back
Fore
SplineSet
856 -346 m 0,0,1
 828 -346 828 -346 797 -343.5 c 128,-1,2
 766 -341 766 -341 721 -333 c 128,-1,3
 676 -325 676 -325 647 -306 c 128,-1,4
 618 -287 618 -287 618 -258 c 0,5,6
 618 -213 618 -213 638 -148.5 c 128,-1,7
 658 -84 658 -84 696 -80 c 0,8,9
 700 -80 700 -80 734 -88 c 128,-1,10
 768 -96 768 -96 803 -96 c 0,11,12
 889 -96 889 -96 927 -49.5 c 128,-1,13
 965 -3 965 -3 965 102 c 2,14,-1
 965 1278 l 2,15,16
 965 1341 965 1341 1079 1341 c 2,17,-1
 1145 1341 l 2,18,19
 1260 1341 1260 1341 1260 1278 c 2,20,-1
 1260 80 l 2,21,22
 1260 -112 1260 -112 1159.5 -229 c 128,-1,23
 1059 -346 1059 -346 856 -346 c 0,0,1
209 0 m 2,24,25
 168 0 168 0 149.5 18 c 128,-1,26
 131 36 131 36 131 76 c 2,27,-1
 131 1278 l 2,28,29
 131 1339 131 1339 246 1339 c 2,30,-1
 311 1339 l 2,31,32
 426 1339 426 1339 426 1278 c 2,33,-1
 426 250 l 1,34,-1
 717 250 l 2,35,36
 748 250 748 250 761 227.5 c 128,-1,37
 774 205 774 205 774 154 c 2,38,-1
 774 96 l 2,39,40
 774 45 774 45 761 22.5 c 128,-1,41
 748 0 748 0 717 0 c 2,42,-1
 209 0 l 2,24,25
EndSplineSet
Position2: "'cpsp' Capital Spacing lookup 0 subtable" dx=20 dy=0 dh=41 dv=0
EndChar

StartChar: Lacute
Encoding: 313 313 90
Width: 925
VWidth: 1908
GlyphClass: 2
Flags: MW
HStem: 0 250<181 852 426 852 426 852> 1257 82G<246 311 311 351> 1436 303<188 476>
VStem: 131 295<250 1278 250 1278 250 1298>
AnchorPoint: "Anchor-1" 287 1335 basechar 0
AnchorPoint: "Anchor-0" 463 0 basechar 0
LayerCount: 2
Back
Fore
SplineSet
211 1436 m 0,0,1
 178 1436 178 1436 165 1442.5 c 128,-1,2
 152 1449 152 1449 152 1464 c 0,3,4
 152 1470 152 1470 156 1479.5 c 128,-1,5
 160 1489 160 1489 170.5 1507.5 c 128,-1,6
 181 1526 181 1526 193.5 1547 c 128,-1,7
 206 1568 206 1568 229.5 1607.5 c 128,-1,8
 253 1647 253 1647 276 1688 c 0,9,10
 306 1739 306 1739 438 1739 c 0,11,12
 553 1739 553 1739 553 1712 c 0,13,14
 553 1701 553 1701 543 1688 c 128,-1,15
 533 1675 533 1675 485 1624 c 0,16,17
 414 1548 414 1548 354 1483 c 0,18,19
 313 1436 313 1436 211 1436 c 0,0,1
209 0 m 2,20,21
 168 0 168 0 149.5 18 c 128,-1,22
 131 36 131 36 131 76 c 2,23,-1
 131 1278 l 2,24,25
 131 1339 131 1339 246 1339 c 2,26,-1
 311 1339 l 2,27,28
 426 1339 426 1339 426 1278 c 2,29,-1
 426 250 l 1,30,-1
 852 250 l 2,31,32
 882 250 882 250 895.5 227.5 c 128,-1,33
 909 205 909 205 909 154 c 2,34,-1
 909 96 l 2,35,36
 909 45 909 45 895.5 22.5 c 128,-1,37
 882 0 882 0 852 0 c 2,38,-1
 209 0 l 2,20,21
EndSplineSet
Position2: "'cpsp' Capital Spacing lookup 0 subtable" dx=20 dy=0 dh=41 dv=0
EndChar

StartChar: Lcaron
Encoding: 317 317 91
Width: 925
VWidth: 1908
GlyphClass: 2
Flags: MW
HStem: 0 250<181 852 426 852 426 852> 975 360<669 758> 1257 82G<246 311 311 351>
VStem: 131 295<250 1278 250 1278 250 1298> 608 246<1219 1276 1188 1278>
AnchorPoint: "Anchor-1" 287 1335 basechar 0
AnchorPoint: "Anchor-0" 463 0 basechar 0
LayerCount: 2
Back
Fore
SplineSet
209 0 m 2,0,1
 168 0 168 0 149.5 18 c 128,-1,2
 131 36 131 36 131 76 c 2,3,-1
 131 1278 l 2,4,5
 131 1339 131 1339 246 1339 c 2,6,-1
 311 1339 l 2,7,8
 426 1339 426 1339 426 1278 c 2,9,-1
 426 250 l 1,10,-1
 852 250 l 2,11,12
 882 250 882 250 895.5 227.5 c 128,-1,13
 909 205 909 205 909 154 c 2,14,-1
 909 96 l 2,15,16
 909 45 909 45 895.5 22.5 c 128,-1,17
 882 0 882 0 852 0 c 2,18,-1
 209 0 l 2,0,1
686 975 m 0,19,20
 654 975 654 975 627 986 c 128,-1,21
 600 997 600 997 600 1018 c 0,22,23
 600 1070 600 1070 604 1146 c 128,-1,24
 608 1222 608 1222 608 1251 c 0,25,26
 608 1335 608 1335 723 1335 c 2,27,-1
 758 1335 l 2,28,29
 807 1335 807 1335 830.5 1312.5 c 128,-1,30
 854 1290 854 1290 854 1251 c 0,31,32
 854 1191 854 1191 823.5 1125.5 c 128,-1,33
 793 1060 793 1060 753.5 1018.5 c 128,-1,34
 714 977 714 977 686 975 c 0,19,20
EndSplineSet
Position2: "'cpsp' Capital Spacing lookup 0 subtable" dx=20 dy=0 dh=41 dv=0
EndChar

StartChar: Lcommaaccent
Encoding: 315 315 92
Width: 925
VWidth: 1908
GlyphClass: 2
Flags: MW
HStem: -459 86G<357 409> -459 360<357 485> 0 250<181 852 426 852 426 852> 1257 82G<246 311 311 351>
VStem: 131 295<250 1278 250 1278 250 1298> 336 246<-246 -158 -246 -156>
AnchorPoint: "Anchor-1" 287 1335 basechar 0
AnchorPoint: "Anchor-0" 463 -389 basechar 0
LayerCount: 2
Back
Fore
SplineSet
209 0 m 2,0,1
 168 0 168 0 149.5 18 c 128,-1,2
 131 36 131 36 131 76 c 2,3,-1
 131 1278 l 2,4,5
 131 1339 131 1339 246 1339 c 2,6,-1
 311 1339 l 2,7,8
 426 1339 426 1339 426 1278 c 2,9,-1
 426 250 l 1,10,-1
 852 250 l 2,11,12
 882 250 882 250 895.5 227.5 c 128,-1,13
 909 205 909 205 909 154 c 2,14,-1
 909 96 l 2,15,16
 909 45 909 45 895.5 22.5 c 128,-1,17
 882 0 882 0 852 0 c 2,18,-1
 209 0 l 2,0,1
375 -459 m 0,19,20
 343 -459 343 -459 316 -448 c 128,-1,21
 289 -437 289 -437 289 -416 c 0,22,23
 289 -405 289 -405 300.5 -377 c 128,-1,24
 312 -349 312 -349 324 -299 c 128,-1,25
 336 -249 336 -249 336 -182 c 0,26,27
 336 -98 336 -98 449 -98 c 2,28,-1
 485 -98 l 2,29,30
 534 -98 534 -98 558 -120.5 c 128,-1,31
 582 -143 582 -143 582 -182 c 0,32,33
 582 -242 582 -242 544.5 -308.5 c 128,-1,34
 507 -375 507 -375 458 -417 c 128,-1,35
 409 -459 409 -459 375 -459 c 0,19,20
EndSplineSet
Position2: "'cpsp' Capital Spacing lookup 0 subtable" dx=20 dy=0 dh=41 dv=0
EndChar

StartChar: Ldot
Encoding: 319 319 93
Width: 925
VWidth: 1908
GlyphClass: 2
Flags: MW
HStem: 0 250<181 852 426 852 426 852> 551 268<596 671> 1257 82G<246 311 311 351>
VStem: 131 295<250 1278 250 1278 250 1298> 500 268<648 723>
AnchorPoint: "Anchor-1" 287 1335 basechar 0
AnchorPoint: "Anchor-0" 463 0 basechar 0
LayerCount: 2
Back
Fore
SplineSet
209 0 m 2,0,1
 168 0 168 0 149.5 18 c 128,-1,2
 131 36 131 36 131 76 c 2,3,-1
 131 1278 l 2,4,5
 131 1339 131 1339 246 1339 c 2,6,-1
 311 1339 l 2,7,8
 426 1339 426 1339 426 1278 c 2,9,-1
 426 250 l 1,10,-1
 852 250 l 2,11,12
 882 250 882 250 895.5 227.5 c 128,-1,13
 909 205 909 205 909 154 c 2,14,-1
 909 96 l 2,15,16
 909 45 909 45 895.5 22.5 c 128,-1,17
 882 0 882 0 852 0 c 2,18,-1
 209 0 l 2,0,1
633 551 m 0,19,20
 577 551 577 551 538.5 590 c 128,-1,21
 500 629 500 629 500 686 c 0,22,23
 500 742 500 742 539 780.5 c 128,-1,24
 578 819 578 819 633 819 c 0,25,26
 690 819 690 819 729 780.5 c 128,-1,27
 768 742 768 742 768 686 c 0,28,29
 768 629 768 629 729 590 c 128,-1,30
 690 551 690 551 633 551 c 0,19,20
EndSplineSet
Ligature2: "Ligature Substitution lookup 48 subtable" L periodcentered
Position2: "'cpsp' Capital Spacing lookup 0 subtable" dx=20 dy=0 dh=41 dv=0
EndChar

StartChar: uni01C8
Encoding: 456 456 94
Width: 1449
VWidth: 1908
GlyphClass: 2
Flags: MW
HStem: -406 223<985 1014 978 1140> 0 250<181 852 426 852 426 852> 920 82G<1171 1225 1225 1265> 1163 276<1132 1225 1171 1225> 1257 82G<246 311 311 351>
VStem: 131 295<250 1278 250 1278 250 1298> 1057 283<-98 -96 -96 940 1223 1378>
AnchorPoint: "Anchor-1" 287 1335 basechar 0
AnchorPoint: "Anchor-0" 463 0 basechar 0
LayerCount: 2
Back
Fore
SplineSet
1171 1163 m 2,0,1
 1057 1163 1057 1163 1057 1223 c 2,2,-1
 1057 1378 l 2,3,4
 1057 1440 1057 1440 1171 1440 c 2,5,-1
 1225 1440 l 2,6,7
 1339 1440 1339 1440 1339 1378 c 2,8,-1
 1339 1223 l 2,9,10
 1339 1163 1339 1163 1225 1163 c 2,11,-1
 1171 1163 l 2,0,1
209 0 m 2,12,13
 168 0 168 0 149.5 18 c 128,-1,14
 131 36 131 36 131 76 c 2,15,-1
 131 1278 l 2,16,17
 131 1339 131 1339 246 1339 c 2,18,-1
 311 1339 l 2,19,20
 426 1339 426 1339 426 1278 c 2,21,-1
 426 250 l 1,22,-1
 852 250 l 2,23,24
 882 250 882 250 895.5 227.5 c 128,-1,25
 909 205 909 205 909 154 c 2,26,-1
 909 96 l 2,27,28
 909 45 909 45 895.5 22.5 c 128,-1,29
 882 0 882 0 852 0 c 2,30,-1
 209 0 l 2,12,13
1061 -406 m 0,31,32
 948 -406 948 -406 905 -383.5 c 128,-1,33
 862 -361 862 -361 862 -305 c 0,34,35
 862 -267 862 -267 883 -220.5 c 128,-1,36
 904 -174 904 -174 932 -174 c 0,37,38
 935 -174 935 -174 955.5 -178 c 128,-1,39
 976 -182 976 -182 989 -182 c 0,40,41
 1025 -182 1025 -182 1041 -161.5 c 128,-1,42
 1057 -141 1057 -141 1057 -98 c 2,43,-1
 1057 940 l 2,44,45
 1057 1001 1057 1001 1171 1001 c 2,46,-1
 1225 1001 l 2,47,48
 1339 1001 1339 1001 1339 940 c 2,49,-1
 1339 -96 l 2,50,51
 1339 -246 1339 -246 1262 -326 c 128,-1,52
 1185 -406 1185 -406 1061 -406 c 0,31,32
EndSplineSet
Position2: "'cpsp' Capital Spacing lookup 0 subtable" dx=20 dy=0 dh=41 dv=0
EndChar

StartChar: Lslash
Encoding: 321 321 95
Width: 929
VWidth: 1908
GlyphClass: 2
Flags: MW
HStem: 0 250<184 856 430 856 430 856> 938 82G<621 631> 1257 82G<250 315 315 355>
VStem: 135 295<250 575 575 575 727 754 907 1278>
LayerCount: 2
Back
Fore
SplineSet
211 0 m 2,0,1
 171 0 171 0 153 18 c 128,-1,2
 135 36 135 36 135 76 c 2,3,-1
 135 575 l 1,4,-1
 98 551 l 2,5,6
 85 543 85 543 70 543 c 0,7,8
 49 543 49 543 49 580 c 2,9,-1
 49 618 l 2,10,11
 49 675 49 675 98 705 c 2,12,-1
 135 727 l 1,13,-1
 135 1278 l 2,14,15
 135 1339 135 1339 250 1339 c 2,16,-1
 315 1339 l 2,17,18
 430 1339 430 1339 430 1278 c 2,19,-1
 430 907 l 1,20,-1
 596 1008 l 2,21,22
 611 1020 611 1020 625 1020 c 0,23,24
 645 1020 645 1020 645 981 c 2,25,-1
 645 942 l 2,26,27
 645 884 645 884 596 856 c 2,28,-1
 430 754 l 1,29,-1
 430 250 l 1,30,-1
 856 250 l 2,31,32
 885 250 885 250 898 227.5 c 128,-1,33
 911 205 911 205 911 154 c 2,34,-1
 911 96 l 2,35,36
 911 45 911 45 898 22.5 c 128,-1,37
 885 0 885 0 856 0 c 2,38,-1
 211 0 l 2,0,1
EndSplineSet
Position2: "'cpsp' Capital Spacing lookup 0 subtable" dx=20 dy=0 dh=41 dv=0
EndChar

StartChar: M
Encoding: 77 77 96
Width: 1609
VWidth: 1908
GlyphClass: 2
Flags: MW
HStem: -4 86G<206 246 246 301 1267 1307 1307 1362> 1257 82G<246 348 348 376 1264 1362 1362 1403>
VStem: 131 285<57 848> 1192 285<57 848 848 848>
LayerCount: 2
Back
Fore
SplineSet
246 -4 m 2,0,1
 131 -4 131 -4 131 57 c 2,2,-1
 131 1278 l 2,3,4
 131 1339 131 1339 246 1339 c 2,5,-1
 348 1339 l 2,6,7
 441 1339 441 1339 467 1288 c 2,8,-1
 788 717 l 1,9,-1
 803 690 l 1,10,-1
 821 723 l 1,11,-1
 1143 1288 l 2,12,13
 1173 1339 1173 1339 1264 1339 c 2,14,-1
 1362 1339 l 2,15,16
 1477 1339 1477 1339 1477 1278 c 2,17,-1
 1477 57 l 2,18,19
 1477 -4 1477 -4 1362 -4 c 2,20,-1
 1307 -4 l 2,21,22
 1192 -4 1192 -4 1192 57 c 2,23,-1
 1192 848 l 1,24,-1
 1186 850 l 1,25,-1
 909 354 l 1,26,27
 882 319 882 319 831 319 c 2,28,-1
 776 319 l 2,29,30
 724 319 724 319 700 354 c 2,31,-1
 424 850 l 1,32,-1
 416 848 l 1,33,-1
 416 57 l 2,34,35
 416 -4 416 -4 301 -4 c 2,36,-1
 246 -4 l 2,0,1
EndSplineSet
Position2: "'cpsp' Capital Spacing lookup 0 subtable" dx=20 dy=0 dh=41 dv=0
EndChar

StartChar: N
Encoding: 78 78 97
Width: 1372
VWidth: 1908
GlyphClass: 2
Flags: MW
HStem: -4 86G<206 246 246 301 1025 1053 1053 1126> 1257 82G<246 328 328 355 1071 1126 1126 1166>
VStem: 131 285<57 829> 956 285<516 1278>
AnchorPoint: "Anchor-1" 688 1335 basechar 0
AnchorPoint: "Anchor-0" 688 0 basechar 0
LayerCount: 2
Back
Fore
SplineSet
246 -4 m 2,0,1
 131 -4 131 -4 131 57 c 2,2,-1
 131 1278 l 2,3,4
 131 1339 131 1339 246 1339 c 2,5,-1
 328 1339 l 2,6,7
 376 1339 376 1339 405.5 1329 c 128,-1,8
 435 1319 435 1319 455 1288 c 2,9,-1
 905 594 l 1,10,-1
 956 516 l 1,11,-1
 956 1278 l 2,12,13
 956 1339 956 1339 1071 1339 c 2,14,-1
 1126 1339 l 2,15,16
 1241 1339 1241 1339 1241 1278 c 2,17,-1
 1241 57 l 2,18,19
 1241 -4 1241 -4 1126 -4 c 2,20,-1
 1053 -4 l 2,21,22
 1007 -4 1007 -4 977.5 6.5 c 128,-1,23
 948 17 948 17 928 47 c 2,24,-1
 457 770 l 1,25,-1
 416 829 l 1,26,-1
 416 57 l 2,27,28
 416 -4 416 -4 301 -4 c 2,29,-1
 246 -4 l 2,0,1
EndSplineSet
Position2: "'cpsp' Capital Spacing lookup 0 subtable" dx=20 dy=0 dh=41 dv=0
EndChar

StartChar: uni01CA
Encoding: 458 458 98
Width: 2142
VWidth: 1908
GlyphClass: 2
Flags: MW
HStem: -14 250<1586 1614 1527 1751> -4 86G<206 246 246 301 1025 1053 1053 1126> 1257 82G<246 328 328 355 1071 1126 1126 1166> 1260 82G<1833 1898 1898 1938>
VStem: 131 285<57 829> 956 285<516 1278> 1718 295<434 1278>
AnchorPoint: "Anchor-1" 1872 1335 basechar 0
AnchorPoint: "Anchor-0" 688 0 basechar 0
LayerCount: 2
Back
Fore
SplineSet
1610 -14 m 0,0,1
 1589 -14 1589 -14 1566.5 -13 c 128,-1,2
 1544 -12 1544 -12 1506.5 -7 c 128,-1,3
 1469 -2 1469 -2 1441.5 6.5 c 128,-1,4
 1414 15 1414 15 1393 32 c 128,-1,5
 1372 49 1372 49 1372 72 c 0,6,7
 1372 117 1372 117 1392 181.5 c 128,-1,8
 1412 246 1412 246 1450 250 c 0,9,10
 1455 250 1455 250 1488.5 243 c 128,-1,11
 1522 236 1522 236 1556 236 c 0,12,13
 1642 236 1642 236 1680 282.5 c 128,-1,14
 1718 329 1718 329 1718 434 c 2,15,-1
 1718 1278 l 2,16,17
 1718 1341 1718 1341 1833 1341 c 2,18,-1
 1898 1341 l 2,19,20
 2013 1341 2013 1341 2013 1278 c 2,21,-1
 2013 385 l 2,22,23
 2013 196 2013 196 1914 91 c 128,-1,24
 1815 -14 1815 -14 1610 -14 c 0,0,1
246 -4 m 2,25,26
 131 -4 131 -4 131 57 c 2,27,-1
 131 1278 l 2,28,29
 131 1339 131 1339 246 1339 c 2,30,-1
 328 1339 l 2,31,32
 376 1339 376 1339 405.5 1329 c 128,-1,33
 435 1319 435 1319 455 1288 c 2,34,-1
 905 594 l 1,35,-1
 956 516 l 1,36,-1
 956 1278 l 2,37,38
 956 1339 956 1339 1071 1339 c 2,39,-1
 1126 1339 l 2,40,41
 1241 1339 1241 1339 1241 1278 c 2,42,-1
 1241 57 l 2,43,44
 1241 -4 1241 -4 1126 -4 c 2,45,-1
 1053 -4 l 2,46,47
 1007 -4 1007 -4 977.5 6.5 c 128,-1,48
 948 17 948 17 928 47 c 2,49,-1
 457 770 l 1,50,-1
 416 829 l 1,51,-1
 416 57 l 2,52,53
 416 -4 416 -4 301 -4 c 2,54,-1
 246 -4 l 2,25,26
EndSplineSet
Position2: "'cpsp' Capital Spacing lookup 0 subtable" dx=20 dy=0 dh=41 dv=0
EndChar

StartChar: Nacute
Encoding: 323 323 99
Width: 1372
VWidth: 1908
GlyphClass: 2
Flags: MW
HStem: -4 86G<206 246 246 301 1025 1053 1053 1126> 1257 82G<246 328 328 355 1071 1126 1126 1166> 1436 303<590 878>
VStem: 131 285<57 829> 956 285<516 1278>
AnchorPoint: "Anchor-1" 688 1335 basechar 0
AnchorPoint: "Anchor-0" 688 0 basechar 0
LayerCount: 2
Back
Fore
SplineSet
612 1436 m 0,0,1
 579 1436 579 1436 566 1442.5 c 128,-1,2
 553 1449 553 1449 553 1464 c 0,3,4
 553 1473 553 1473 563.5 1492 c 128,-1,5
 574 1511 574 1511 609 1569.5 c 128,-1,6
 644 1628 644 1628 678 1688 c 0,7,8
 708 1739 708 1739 840 1739 c 0,9,10
 954 1739 954 1739 954 1712 c 0,11,12
 954 1700 954 1700 941 1684 c 128,-1,13
 928 1668 928 1668 881 1617 c 0,14,15
 812 1544 812 1544 756 1483 c 0,16,17
 715 1436 715 1436 612 1436 c 0,0,1
246 -4 m 2,18,19
 131 -4 131 -4 131 57 c 2,20,-1
 131 1278 l 2,21,22
 131 1339 131 1339 246 1339 c 2,23,-1
 328 1339 l 2,24,25
 376 1339 376 1339 405.5 1329 c 128,-1,26
 435 1319 435 1319 455 1288 c 2,27,-1
 905 594 l 1,28,-1
 956 516 l 1,29,-1
 956 1278 l 2,30,31
 956 1339 956 1339 1071 1339 c 2,32,-1
 1126 1339 l 2,33,34
 1241 1339 1241 1339 1241 1278 c 2,35,-1
 1241 57 l 2,36,37
 1241 -4 1241 -4 1126 -4 c 2,38,-1
 1053 -4 l 2,39,40
 1007 -4 1007 -4 977.5 6.5 c 128,-1,41
 948 17 948 17 928 47 c 2,42,-1
 457 770 l 1,43,-1
 416 829 l 1,44,-1
 416 57 l 2,45,46
 416 -4 416 -4 301 -4 c 2,47,-1
 246 -4 l 2,18,19
EndSplineSet
Substitution2: "'locl' Localized Forms in Latin lookup 14 subtable" Nacute.loclPLK
Substitution2: "'aalt' Access All Alternates lookup 0 subtable" Nacute.loclPLK
Position2: "'cpsp' Capital Spacing lookup 0 subtable" dx=20 dy=0 dh=41 dv=0
EndChar

StartChar: Ncaron
Encoding: 327 327 100
Width: 1372
VWidth: 1908
GlyphClass: 2
Flags: MW
HStem: -4 86G<206 246 246 301 1025 1053 1053 1126> 1257 82G<246 328 328 355 1071 1126 1126 1166> 1430 279<463 678 463 698>
VStem: 131 285<57 829> 956 285<516 1278>
AnchorPoint: "Anchor-1" 688 1335 basechar 0
AnchorPoint: "Anchor-0" 688 0 basechar 0
LayerCount: 2
Back
Fore
SplineSet
678 1430 m 2,0,1
 644 1430 644 1430 626 1431.5 c 128,-1,2
 608 1433 608 1433 589 1441 c 128,-1,3
 570 1449 570 1449 561 1466 c 2,4,-1
 436 1661 l 2,5,6
 426 1678 426 1678 426 1690 c 0,7,8
 426 1708 426 1708 463 1708 c 2,9,-1
 506 1708 l 2,10,11
 598 1708 598 1708 633 1661 c 2,12,-1
 686 1587 l 1,13,-1
 739 1663 l 2,14,15
 772 1708 772 1708 870 1708 c 2,16,-1
 911 1708 l 2,17,18
 950 1708 950 1708 950 1690 c 0,19,20
 950 1676 950 1676 938 1661 c 2,21,-1
 815 1466 l 2,22,23
 801 1442 801 1442 775 1436 c 128,-1,24
 749 1430 749 1430 698 1430 c 2,25,-1
 678 1430 l 2,0,1
246 -4 m 2,26,27
 131 -4 131 -4 131 57 c 2,28,-1
 131 1278 l 2,29,30
 131 1339 131 1339 246 1339 c 2,31,-1
 328 1339 l 2,32,33
 376 1339 376 1339 405.5 1329 c 128,-1,34
 435 1319 435 1319 455 1288 c 2,35,-1
 905 594 l 1,36,-1
 956 516 l 1,37,-1
 956 1278 l 2,38,39
 956 1339 956 1339 1071 1339 c 2,40,-1
 1126 1339 l 2,41,42
 1241 1339 1241 1339 1241 1278 c 2,43,-1
 1241 57 l 2,44,45
 1241 -4 1241 -4 1126 -4 c 2,46,-1
 1053 -4 l 2,47,48
 1007 -4 1007 -4 977.5 6.5 c 128,-1,49
 948 17 948 17 928 47 c 2,50,-1
 457 770 l 1,51,-1
 416 829 l 1,52,-1
 416 57 l 2,53,54
 416 -4 416 -4 301 -4 c 2,55,-1
 246 -4 l 2,26,27
EndSplineSet
Position2: "'cpsp' Capital Spacing lookup 0 subtable" dx=20 dy=0 dh=41 dv=0
EndChar

StartChar: Ncommaaccent
Encoding: 325 325 101
Width: 1372
VWidth: 1908
GlyphClass: 2
Flags: MW
HStem: -459 86G<583 634> -459 360<583 711> -4 86G<206 246 246 301 1025 1053 1053 1126> 1257 82G<246 328 328 355 1071 1126 1126 1166>
VStem: 131 285<57 829> 561 246<-246 -158 -246 -156> 956 285<516 1278>
AnchorPoint: "Anchor-1" 688 1335 basechar 0
AnchorPoint: "Anchor-0" 688 -389 basechar 0
LayerCount: 2
Back
Fore
SplineSet
246 -4 m 2,0,1
 131 -4 131 -4 131 57 c 2,2,-1
 131 1278 l 2,3,4
 131 1339 131 1339 246 1339 c 2,5,-1
 328 1339 l 2,6,7
 376 1339 376 1339 405.5 1329 c 128,-1,8
 435 1319 435 1319 455 1288 c 2,9,-1
 905 594 l 1,10,-1
 956 516 l 1,11,-1
 956 1278 l 2,12,13
 956 1339 956 1339 1071 1339 c 2,14,-1
 1126 1339 l 2,15,16
 1241 1339 1241 1339 1241 1278 c 2,17,-1
 1241 57 l 2,18,19
 1241 -4 1241 -4 1126 -4 c 2,20,-1
 1053 -4 l 2,21,22
 1007 -4 1007 -4 977.5 6.5 c 128,-1,23
 948 17 948 17 928 47 c 2,24,-1
 457 770 l 1,25,-1
 416 829 l 1,26,-1
 416 57 l 2,27,28
 416 -4 416 -4 301 -4 c 2,29,-1
 246 -4 l 2,0,1
600 -459 m 0,30,31
 568 -459 568 -459 541 -448 c 128,-1,32
 514 -437 514 -437 514 -416 c 0,33,34
 514 -405 514 -405 526 -377 c 128,-1,35
 538 -349 538 -349 549.5 -299 c 128,-1,36
 561 -249 561 -249 561 -182 c 0,37,38
 561 -98 561 -98 674 -98 c 2,39,-1
 711 -98 l 2,40,41
 760 -98 760 -98 783.5 -120.5 c 128,-1,42
 807 -143 807 -143 807 -182 c 0,43,44
 807 -242 807 -242 769.5 -308.5 c 128,-1,45
 732 -375 732 -375 683 -417 c 128,-1,46
 634 -459 634 -459 600 -459 c 0,30,31
EndSplineSet
Position2: "'cpsp' Capital Spacing lookup 0 subtable" dx=20 dy=0 dh=41 dv=0
EndChar

StartChar: uni1E44
Encoding: 7748 7748 102
Width: 1372
VWidth: 1908
GlyphClass: 2
Flags: MW
HStem: -4 86G<206 246 246 301 1025 1053 1053 1126> 1257 82G<246 328 328 355 1071 1126 1126 1166> 1442 174<573 728>
VStem: 131 285<57 829> 573 229<1503 1616 1483 1636> 956 285<516 1278>
AnchorPoint: "Anchor-1" 688 1335 basechar 0
AnchorPoint: "Anchor-0" 688 0 basechar 0
LayerCount: 2
Back
Fore
SplineSet
688 1442 m 128,-1,1
 573 1442 573 1442 573 1503 c 2,2,-1
 573 1616 l 2,3,4
 573 1677 573 1677 688 1677 c 128,-1,5
 803 1677 803 1677 803 1616 c 2,6,-1
 803 1503 l 2,7,0
 803 1442 803 1442 688 1442 c 128,-1,1
246 -4 m 2,8,9
 131 -4 131 -4 131 57 c 2,10,-1
 131 1278 l 2,11,12
 131 1339 131 1339 246 1339 c 2,13,-1
 328 1339 l 2,14,15
 376 1339 376 1339 405.5 1329 c 128,-1,16
 435 1319 435 1319 455 1288 c 2,17,-1
 905 594 l 1,18,-1
 956 516 l 1,19,-1
 956 1278 l 2,20,21
 956 1339 956 1339 1071 1339 c 2,22,-1
 1126 1339 l 2,23,24
 1241 1339 1241 1339 1241 1278 c 2,25,-1
 1241 57 l 2,26,27
 1241 -4 1241 -4 1126 -4 c 2,28,-1
 1053 -4 l 2,29,30
 1007 -4 1007 -4 977.5 6.5 c 128,-1,31
 948 17 948 17 928 47 c 2,32,-1
 457 770 l 1,33,-1
 416 829 l 1,34,-1
 416 57 l 2,35,36
 416 -4 416 -4 301 -4 c 2,37,-1
 246 -4 l 2,8,9
EndSplineSet
Position2: "'cpsp' Capital Spacing lookup 0 subtable" dx=20 dy=0 dh=41 dv=0
EndChar

StartChar: Eng
Encoding: 330 330 103
Width: 1372
VWidth: 1908
GlyphClass: 2
Flags: MW
HStem: -406 223<887 915 880 1041> -4 86G<206 246 246 301> 1257 82G<246 328 328 355 1071 1126 1126 1166>
VStem: 131 285<57 829> 956 285<516 1278>
AnchorPoint: "Anchor-1" 1098 999 basechar 0
AnchorPoint: "Anchor-0" 0 0 basechar 0
LayerCount: 2
Back
Fore
SplineSet
1126 1339 m 2,0,1
 1241 1339 1241 1339 1241 1278 c 2,2,-1
 1241 -96 l 2,3,4
 1241 -246 1241 -246 1164 -326 c 128,-1,5
 1087 -406 1087 -406 963 -406 c 0,6,7
 850 -406 850 -406 807 -383.5 c 128,-1,8
 764 -361 764 -361 764 -305 c 0,9,10
 764 -267 764 -267 785 -220.5 c 128,-1,11
 806 -174 806 -174 834 -174 c 0,12,13
 837 -174 837 -174 857.5 -178 c 128,-1,14
 878 -182 878 -182 891 -182 c 0,15,16
 927 -182 927 -182 942.5 -162 c 128,-1,17
 958 -142 958 -142 958 -98 c 2,18,-1
 958 4 l 1,19,-1
 463 756 l 1,20,-1
 416 829 l 1,21,-1
 416 57 l 2,22,23
 416 -4 416 -4 301 -4 c 2,24,-1
 246 -4 l 2,25,26
 131 -4 131 -4 131 57 c 2,27,-1
 131 1278 l 2,28,29
 131 1339 131 1339 246 1339 c 2,30,-1
 328 1339 l 2,31,32
 376 1339 376 1339 405.5 1329 c 128,-1,33
 435 1319 435 1319 455 1288 c 2,34,-1
 956 516 l 1,35,-1
 956 1278 l 2,36,37
 956 1339 956 1339 1071 1339 c 2,38,-1
 1126 1339 l 2,0,1
EndSplineSet
Position2: "'cpsp' Capital Spacing lookup 0 subtable" dx=20 dy=0 dh=41 dv=0
EndChar

StartChar: uni01CB
Encoding: 459 459 104
Width: 1900
VWidth: 1908
GlyphClass: 2
Flags: MW
HStem: -406 223<1434 1462 1426 1588> -4 86G<206 246 246 301 1025 1053 1053 1126> 920 82G<1620 1673 1673 1713> 1163 276<1580 1673 1620 1673> 1257 82G<246 328 328 355 1071 1126 1126 1166>
VStem: 131 285<57 829> 956 285<516 1278> 1505 283<-98 -96 -96 940 1223 1378>
AnchorPoint: "Anchor-1" 688 1335 basechar 0
AnchorPoint: "Anchor-0" 688 0 basechar 0
LayerCount: 2
Back
Fore
SplineSet
1620 1163 m 2,0,1
 1505 1163 1505 1163 1505 1223 c 2,2,-1
 1505 1378 l 2,3,4
 1505 1440 1505 1440 1620 1440 c 2,5,-1
 1673 1440 l 2,6,7
 1788 1440 1788 1440 1788 1378 c 2,8,-1
 1788 1223 l 2,9,10
 1788 1163 1788 1163 1673 1163 c 2,11,-1
 1620 1163 l 2,0,1
246 -4 m 2,12,13
 131 -4 131 -4 131 57 c 2,14,-1
 131 1278 l 2,15,16
 131 1339 131 1339 246 1339 c 2,17,-1
 328 1339 l 2,18,19
 376 1339 376 1339 405.5 1329 c 128,-1,20
 435 1319 435 1319 455 1288 c 2,21,-1
 905 594 l 1,22,-1
 956 516 l 1,23,-1
 956 1278 l 2,24,25
 956 1339 956 1339 1071 1339 c 2,26,-1
 1126 1339 l 2,27,28
 1241 1339 1241 1339 1241 1278 c 2,29,-1
 1241 57 l 2,30,31
 1241 -4 1241 -4 1126 -4 c 2,32,-1
 1053 -4 l 2,33,34
 1007 -4 1007 -4 977.5 6.5 c 128,-1,35
 948 17 948 17 928 47 c 2,36,-1
 457 770 l 1,37,-1
 416 829 l 1,38,-1
 416 57 l 2,39,40
 416 -4 416 -4 301 -4 c 2,41,-1
 246 -4 l 2,12,13
1509 -406 m 0,42,43
 1396 -406 1396 -406 1353.5 -383.5 c 128,-1,44
 1311 -361 1311 -361 1311 -305 c 0,45,46
 1311 -267 1311 -267 1331.5 -220.5 c 128,-1,47
 1352 -174 1352 -174 1380 -174 c 0,48,49
 1383 -174 1383 -174 1404 -178 c 128,-1,50
 1425 -182 1425 -182 1438 -182 c 0,51,52
 1474 -182 1474 -182 1489.5 -162 c 128,-1,53
 1505 -142 1505 -142 1505 -98 c 2,54,-1
 1505 940 l 2,55,56
 1505 1001 1505 1001 1620 1001 c 2,57,-1
 1673 1001 l 2,58,59
 1788 1001 1788 1001 1788 940 c 2,60,-1
 1788 -96 l 2,61,62
 1788 -246 1788 -246 1710.5 -326 c 128,-1,63
 1633 -406 1633 -406 1509 -406 c 0,42,43
EndSplineSet
Position2: "'cpsp' Capital Spacing lookup 0 subtable" dx=20 dy=0 dh=41 dv=0
EndChar

StartChar: Ntilde
Encoding: 209 209 105
Width: 1372
VWidth: 1908
GlyphClass: 2
Flags: MW
HStem: -4 86G<206 246 246 301 1025 1053 1053 1126> 1257 82G<246 328 328 355 1071 1126 1126 1166> 1448 160<805 813 805 851> 1503 160<520 528>
VStem: 131 285<57 829> 956 285<516 1278>
AnchorPoint: "Anchor-1" 688 1335 basechar 0
AnchorPoint: "Anchor-0" 688 0 basechar 0
LayerCount: 2
Back
Fore
SplineSet
387 1446 m 1,0,-1
 365 1450 l 1,1,2
 324 1463 324 1463 324 1503 c 0,3,4
 324 1514 324 1514 328 1530 c 0,5,6
 350 1586 350 1586 404.5 1624.5 c 128,-1,7
 459 1663 459 1663 537 1663 c 0,8,9
 572 1663 572 1663 674.5 1636.5 c 128,-1,10
 777 1610 777 1610 805 1608 c 0,11,12
 842 1608 842 1608 868 1638 c 0,13,14
 894 1671 894 1671 922 1671 c 0,15,16
 932 1671 932 1671 944 1667 c 2,17,-1
 967 1661 l 2,18,19
 1010 1648 1010 1648 1010 1610 c 0,20,21
 1010 1595 1010 1595 1006 1583 c 0,22,23
 984 1526 984 1526 929 1487 c 128,-1,24
 874 1448 874 1448 797 1448 c 0,25,26
 762 1448 762 1448 659.5 1475 c 128,-1,27
 557 1502 557 1502 528 1503 c 0,28,29
 489 1503 489 1503 465 1475 c 0,30,31
 441 1442 441 1442 410 1442 c 0,32,33
 395 1442 395 1442 387 1446 c 1,0,-1
246 -4 m 2,34,35
 131 -4 131 -4 131 57 c 2,36,-1
 131 1278 l 2,37,38
 131 1339 131 1339 246 1339 c 2,39,-1
 328 1339 l 2,40,41
 376 1339 376 1339 405.5 1329 c 128,-1,42
 435 1319 435 1319 455 1288 c 2,43,-1
 905 594 l 1,44,-1
 956 516 l 1,45,-1
 956 1278 l 2,46,47
 956 1339 956 1339 1071 1339 c 2,48,-1
 1126 1339 l 2,49,50
 1241 1339 1241 1339 1241 1278 c 2,51,-1
 1241 57 l 2,52,53
 1241 -4 1241 -4 1126 -4 c 2,54,-1
 1053 -4 l 2,55,56
 1007 -4 1007 -4 977.5 6.5 c 128,-1,57
 948 17 948 17 928 47 c 2,58,-1
 457 770 l 1,59,-1
 416 829 l 1,60,-1
 416 57 l 2,61,62
 416 -4 416 -4 301 -4 c 2,63,-1
 246 -4 l 2,34,35
EndSplineSet
Position2: "'cpsp' Capital Spacing lookup 0 subtable" dx=20 dy=0 dh=41 dv=0
EndChar

StartChar: O
Encoding: 79 79 106
Width: 1396
VWidth: 1908
GlyphClass: 2
Flags: MW
HStem: -14 250<596 801 596 895> 1100 252<596 801>
VStem: 86 301<527 808 527 888> 1008 301<527 808>
AnchorPoint: "Anchor-1" 700 1335 basechar 0
AnchorPoint: "Anchor-0" 700 0 basechar 0
LayerCount: 2
Back
Fore
SplineSet
698 -14 m 128,-1,1
 403 -14 403 -14 244.5 162 c 128,-1,2
 86 338 86 338 86 668 c 128,-1,3
 86 998 86 998 244.5 1175 c 128,-1,4
 403 1352 403 1352 698 1352 c 128,-1,5
 993 1352 993 1352 1151 1175 c 128,-1,6
 1309 998 1309 998 1309 668 c 128,-1,7
 1309 338 1309 338 1151 162 c 128,-1,0
 993 -14 993 -14 698 -14 c 128,-1,1
698 236 m 128,-1,9
 851 236 851 236 929.5 346 c 128,-1,10
 1008 456 1008 456 1008 668 c 128,-1,11
 1008 880 1008 880 929.5 990 c 128,-1,12
 851 1100 851 1100 698 1100 c 128,-1,13
 545 1100 545 1100 466 989.5 c 128,-1,14
 387 879 387 879 387 668 c 128,-1,15
 387 457 387 457 466 346.5 c 128,-1,8
 545 236 545 236 698 236 c 128,-1,9
EndSplineSet
Substitution2: "Single Substitution lookup 49 subtable" ordmasculine
Substitution2: "'aalt' Access All Alternates lookup 0 subtable" ordmasculine
Position2: "'cpsp' Capital Spacing lookup 0 subtable" dx=20 dy=0 dh=41 dv=0
EndChar

StartChar: Oacute
Encoding: 211 211 107
Width: 1396
VWidth: 1908
GlyphClass: 2
Flags: MW
HStem: -14 250<596 801 596 895> 1100 252<596 801> 1436 303<600 888>
VStem: 86 301<527 808 527 888> 1008 301<527 808>
AnchorPoint: "Anchor-1" 700 1335 basechar 0
AnchorPoint: "Anchor-0" 700 0 basechar 0
LayerCount: 2
Back
Fore
SplineSet
623 1436 m 0,0,1
 590 1436 590 1436 576.5 1442.5 c 128,-1,2
 563 1449 563 1449 563 1464 c 0,3,4
 563 1473 563 1473 573.5 1492 c 128,-1,5
 584 1511 584 1511 619 1569.5 c 128,-1,6
 654 1628 654 1628 688 1688 c 0,7,8
 718 1739 718 1739 850 1739 c 0,9,10
 965 1739 965 1739 965 1712 c 0,11,12
 965 1701 965 1701 955 1688 c 128,-1,13
 945 1675 945 1675 897 1624 c 0,14,15
 876 1601 876 1601 862 1586.5 c 128,-1,16
 848 1572 848 1572 820.5 1542.5 c 128,-1,17
 793 1513 793 1513 766 1483 c 0,18,19
 725 1436 725 1436 623 1436 c 0,0,1
698 -14 m 128,-1,21
 403 -14 403 -14 244.5 162 c 128,-1,22
 86 338 86 338 86 668 c 128,-1,23
 86 998 86 998 244.5 1175 c 128,-1,24
 403 1352 403 1352 698 1352 c 128,-1,25
 993 1352 993 1352 1151 1175 c 128,-1,26
 1309 998 1309 998 1309 668 c 128,-1,27
 1309 338 1309 338 1151 162 c 128,-1,20
 993 -14 993 -14 698 -14 c 128,-1,21
698 236 m 128,-1,29
 851 236 851 236 929.5 346 c 128,-1,30
 1008 456 1008 456 1008 668 c 128,-1,31
 1008 880 1008 880 929.5 990 c 128,-1,32
 851 1100 851 1100 698 1100 c 128,-1,33
 545 1100 545 1100 466 989.5 c 128,-1,34
 387 879 387 879 387 668 c 128,-1,35
 387 457 387 457 466 346.5 c 128,-1,28
 545 236 545 236 698 236 c 128,-1,29
EndSplineSet
Substitution2: "'locl' Localized Forms in Latin lookup 14 subtable" Oacute.loclPLK
Substitution2: "'aalt' Access All Alternates lookup 0 subtable" Oacute.loclPLK
Position2: "'cpsp' Capital Spacing lookup 0 subtable" dx=20 dy=0 dh=41 dv=0
EndChar

StartChar: Obreve
Encoding: 334 334 108
Width: 1396
VWidth: 1908
GlyphClass: 2
Flags: MW
HStem: -14 250<596 801 596 895> 1100 252<596 801> 1436 174<650 751 650 781>
VStem: 86 301<527 808 527 888> 418 561<1594 1666> 1008 301<527 808>
AnchorPoint: "Anchor-1" 700 1647 basechar 0
AnchorPoint: "Anchor-0" 700 0 basechar 0
LayerCount: 2
Back
Fore
SplineSet
698 1436 m 128,-1,1
 577 1436 577 1436 497.5 1500 c 128,-1,2
 418 1564 418 1564 418 1649 c 0,3,4
 418 1702 418 1702 485 1702 c 0,5,6
 500 1702 500 1702 513 1696.5 c 128,-1,7
 526 1691 526 1691 531 1686.5 c 128,-1,8
 536 1682 536 1682 549 1669 c 0,9,10
 567 1650 567 1650 578.5 1640.5 c 128,-1,11
 590 1631 590 1631 622 1620.5 c 128,-1,12
 654 1610 654 1610 698 1610 c 0,13,14
 735 1610 735 1610 761.5 1615 c 128,-1,15
 788 1620 788 1620 806.5 1631.5 c 128,-1,16
 825 1643 825 1643 832.5 1649 c 128,-1,17
 840 1655 840 1655 854 1671 c 0,18,19
 878 1702 878 1702 913 1702 c 0,20,21
 979 1702 979 1702 979 1649 c 0,22,23
 979 1564 979 1564 899 1500 c 128,-1,0
 819 1436 819 1436 698 1436 c 128,-1,1
698 -14 m 128,-1,25
 403 -14 403 -14 244.5 162 c 128,-1,26
 86 338 86 338 86 668 c 128,-1,27
 86 998 86 998 244.5 1175 c 128,-1,28
 403 1352 403 1352 698 1352 c 128,-1,29
 993 1352 993 1352 1151 1175 c 128,-1,30
 1309 998 1309 998 1309 668 c 128,-1,31
 1309 338 1309 338 1151 162 c 128,-1,24
 993 -14 993 -14 698 -14 c 128,-1,25
698 236 m 128,-1,33
 851 236 851 236 929.5 346 c 128,-1,34
 1008 456 1008 456 1008 668 c 128,-1,35
 1008 880 1008 880 929.5 990 c 128,-1,36
 851 1100 851 1100 698 1100 c 128,-1,37
 545 1100 545 1100 466 989.5 c 128,-1,38
 387 879 387 879 387 668 c 128,-1,39
 387 457 387 457 466 346.5 c 128,-1,32
 545 236 545 236 698 236 c 128,-1,33
EndSplineSet
Position2: "'cpsp' Capital Spacing lookup 0 subtable" dx=20 dy=0 dh=41 dv=0
EndChar

StartChar: Ocircumflex
Encoding: 212 212 109
Width: 1396
VWidth: 1908
GlyphClass: 2
Flags: MW
HStem: -14 250<596 801 596 895> 1100 252<596 801> 1430 279<460 709 473 709 688 881 688 922>
VStem: 86 301<527 808 527 888> 1008 301<527 808>
AnchorPoint: "Anchor-1" 1020 1552 basechar 0
AnchorPoint: "Anchor-0" 700 0 basechar 0
LayerCount: 2
Back
Fore
SplineSet
473 1430 m 2,0,1
 436 1430 436 1430 436 1448 c 0,2,3
 436 1460 436 1460 446 1477 c 2,4,-1
 571 1671 l 2,5,6
 585 1695 585 1695 611.5 1701.5 c 128,-1,7
 638 1708 638 1708 688 1708 c 2,8,-1
 709 1708 l 2,9,10
 758 1708 758 1708 784.5 1701.5 c 128,-1,11
 811 1695 811 1695 825 1671 c 2,12,-1
 948 1477 l 2,13,14
 961 1461 961 1461 961 1448 c 0,15,16
 961 1430 961 1430 922 1430 c 2,17,-1
 881 1430 l 2,18,19
 785 1430 785 1430 750 1475 c 2,20,-1
 696 1552 l 1,21,-1
 643 1477 l 2,22,23
 608 1430 608 1430 516 1430 c 2,24,-1
 473 1430 l 2,0,1
698 -14 m 128,-1,26
 403 -14 403 -14 244.5 162 c 128,-1,27
 86 338 86 338 86 668 c 128,-1,28
 86 998 86 998 244.5 1175 c 128,-1,29
 403 1352 403 1352 698 1352 c 128,-1,30
 993 1352 993 1352 1151 1175 c 128,-1,31
 1309 998 1309 998 1309 668 c 128,-1,32
 1309 338 1309 338 1151 162 c 128,-1,25
 993 -14 993 -14 698 -14 c 128,-1,26
698 236 m 128,-1,34
 851 236 851 236 929.5 346 c 128,-1,35
 1008 456 1008 456 1008 668 c 128,-1,36
 1008 880 1008 880 929.5 990 c 128,-1,37
 851 1100 851 1100 698 1100 c 128,-1,38
 545 1100 545 1100 466 989.5 c 128,-1,39
 387 879 387 879 387 668 c 128,-1,40
 387 457 387 457 466 346.5 c 128,-1,33
 545 236 545 236 698 236 c 128,-1,34
EndSplineSet
Position2: "'cpsp' Capital Spacing lookup 0 subtable" dx=20 dy=0 dh=41 dv=0
EndChar

StartChar: uni1ED0
Encoding: 7888 7888 110
Width: 1396
VWidth: 1908
GlyphClass: 2
Flags: MW
HStem: -14 250<596 801 596 895> 1100 252<596 801> 1430 279<460 709 473 709 688 852 688 893> 1575 264<898 1108>
VStem: 86 301<527 808 527 888> 1008 301<527 808>
AnchorPoint: "Anchor-1" 954 1581 basechar 0
AnchorPoint: "Anchor-0" 700 0 basechar 0
LayerCount: 2
Back
Fore
SplineSet
913 1575 m 0,0,1
 891 1575 891 1575 882.5 1581.5 c 128,-1,2
 874 1588 874 1588 874 1604 c 0,3,4
 874 1609 874 1609 876 1616.5 c 128,-1,5
 878 1624 878 1624 884 1639.5 c 128,-1,6
 890 1655 890 1655 896.5 1672 c 128,-1,7
 903 1689 903 1689 915.5 1722 c 128,-1,8
 928 1755 928 1755 940 1788 c 1,9,10
 969 1839 969 1839 1083 1839 c 0,11,12
 1123 1839 1123 1839 1141 1829.5 c 128,-1,13
 1159 1820 1159 1820 1159 1794 c 0,14,15
 1159 1781 1159 1781 1133.5 1746.5 c 128,-1,16
 1108 1712 1108 1712 1018 1604 c 0,17,18
 993 1575 993 1575 913 1575 c 0,0,1
473 1430 m 2,19,20
 436 1430 436 1430 436 1448 c 0,21,22
 436 1460 436 1460 446 1477 c 2,23,-1
 571 1671 l 2,24,25
 585 1695 585 1695 611.5 1701.5 c 128,-1,26
 638 1708 638 1708 688 1708 c 2,27,-1
 709 1708 l 2,28,29
 749 1708 749 1708 771 1701.5 c 128,-1,30
 793 1695 793 1695 807 1671 c 2,31,-1
 920 1477 l 2,32,33
 932 1462 932 1462 932 1448 c 0,34,35
 932 1430 932 1430 893 1430 c 2,36,-1
 852 1430 l 2,37,38
 737 1430 737 1430 723 1475 c 2,39,-1
 696 1552 l 1,40,-1
 643 1477 l 2,41,42
 608 1430 608 1430 516 1430 c 2,43,-1
 473 1430 l 2,19,20
698 -14 m 128,-1,45
 403 -14 403 -14 244.5 162 c 128,-1,46
 86 338 86 338 86 668 c 128,-1,47
 86 998 86 998 244.5 1175 c 128,-1,48
 403 1352 403 1352 698 1352 c 128,-1,49
 993 1352 993 1352 1151 1175 c 128,-1,50
 1309 998 1309 998 1309 668 c 128,-1,51
 1309 338 1309 338 1151 162 c 128,-1,44
 993 -14 993 -14 698 -14 c 128,-1,45
698 236 m 128,-1,53
 851 236 851 236 929.5 346 c 128,-1,54
 1008 456 1008 456 1008 668 c 128,-1,55
 1008 880 1008 880 929.5 990 c 128,-1,56
 851 1100 851 1100 698 1100 c 128,-1,57
 545 1100 545 1100 466 989.5 c 128,-1,58
 387 879 387 879 387 668 c 128,-1,59
 387 457 387 457 466 346.5 c 128,-1,52
 545 236 545 236 698 236 c 128,-1,53
EndSplineSet
Position2: "'cpsp' Capital Spacing lookup 0 subtable" dx=20 dy=0 dh=41 dv=0
EndChar

StartChar: uni1ED8
Encoding: 7896 7896 111
Width: 1396
VWidth: 1908
GlyphClass: 2
Flags: MW
HStem: -389 174<590 744> -14 250<596 801 596 895> 1100 252<596 801> 1430 279<460 709 473 709 688 881 688 922>
VStem: 86 301<527 808 527 888> 590 229<-328 -215 -348 -195> 1008 301<527 808>
AnchorPoint: "Anchor-1" 1020 1552 basechar 0
AnchorPoint: "Anchor-0" 705 -389 basechar 0
LayerCount: 2
Back
Fore
SplineSet
473 1430 m 2,0,1
 436 1430 436 1430 436 1448 c 0,2,3
 436 1460 436 1460 446 1477 c 2,4,-1
 571 1671 l 2,5,6
 585 1695 585 1695 611.5 1701.5 c 128,-1,7
 638 1708 638 1708 688 1708 c 2,8,-1
 709 1708 l 2,9,10
 758 1708 758 1708 784.5 1701.5 c 128,-1,11
 811 1695 811 1695 825 1671 c 2,12,-1
 948 1477 l 2,13,14
 961 1461 961 1461 961 1448 c 0,15,16
 961 1430 961 1430 922 1430 c 2,17,-1
 881 1430 l 2,18,19
 785 1430 785 1430 750 1475 c 2,20,-1
 696 1552 l 1,21,-1
 643 1477 l 2,22,23
 608 1430 608 1430 516 1430 c 2,24,-1
 473 1430 l 2,0,1
698 -14 m 128,-1,26
 403 -14 403 -14 244.5 162 c 128,-1,27
 86 338 86 338 86 668 c 128,-1,28
 86 998 86 998 244.5 1175 c 128,-1,29
 403 1352 403 1352 698 1352 c 128,-1,30
 993 1352 993 1352 1151 1175 c 128,-1,31
 1309 998 1309 998 1309 668 c 128,-1,32
 1309 338 1309 338 1151 162 c 128,-1,25
 993 -14 993 -14 698 -14 c 128,-1,26
698 236 m 128,-1,34
 851 236 851 236 929.5 346 c 128,-1,35
 1008 456 1008 456 1008 668 c 128,-1,36
 1008 880 1008 880 929.5 990 c 128,-1,37
 851 1100 851 1100 698 1100 c 128,-1,38
 545 1100 545 1100 466 989.5 c 128,-1,39
 387 879 387 879 387 668 c 128,-1,40
 387 457 387 457 466 346.5 c 128,-1,33
 545 236 545 236 698 236 c 128,-1,34
705 -389 m 0,41,42
 590 -389 590 -389 590 -328 c 2,43,-1
 590 -215 l 2,44,45
 590 -154 590 -154 705 -154 c 0,46,47
 819 -154 819 -154 819 -215 c 2,48,-1
 819 -328 l 2,49,50
 819 -389 819 -389 705 -389 c 0,41,42
EndSplineSet
Position2: "'cpsp' Capital Spacing lookup 0 subtable" dx=20 dy=0 dh=41 dv=0
EndChar

StartChar: uni1ED2
Encoding: 7890 7890 112
Width: 1396
VWidth: 1908
GlyphClass: 2
Flags: MW
HStem: -14 250<596 801 596 895> 1100 252<596 801> 1430 279<460 709 473 709 688 852 688 893> 1573 264<795 1013>
VStem: 86 301<527 808 527 888> 1008 301<527 808>
AnchorPoint: "Anchor-1" 954 1581 basechar 0
AnchorPoint: "Anchor-0" 700 0 basechar 0
LayerCount: 2
Back
Fore
SplineSet
989 1573 m 0,0,1
 911 1573 911 1573 870 1620 c 0,2,3
 837 1663 837 1663 792 1721 c 0,4,5
 750 1775 750 1775 741.5 1787.5 c 128,-1,6
 733 1800 733 1800 733 1810 c 0,7,8
 733 1826 733 1826 754.5 1831.5 c 128,-1,9
 776 1837 776 1837 823 1837 c 0,10,11
 965 1837 965 1837 985 1786 c 0,12,13
 1049 1632 1049 1632 1049 1602 c 0,14,15
 1049 1586 1049 1586 1036 1579.5 c 128,-1,16
 1023 1573 1023 1573 989 1573 c 0,0,1
473 1430 m 2,17,18
 436 1430 436 1430 436 1448 c 0,19,20
 436 1460 436 1460 446 1477 c 2,21,-1
 571 1671 l 2,22,23
 585 1695 585 1695 611.5 1701.5 c 128,-1,24
 638 1708 638 1708 688 1708 c 2,25,-1
 709 1708 l 2,26,27
 749 1708 749 1708 771 1701.5 c 128,-1,28
 793 1695 793 1695 807 1671 c 2,29,-1
 920 1477 l 2,30,31
 932 1462 932 1462 932 1448 c 0,32,33
 932 1430 932 1430 893 1430 c 2,34,-1
 852 1430 l 2,35,36
 737 1430 737 1430 723 1475 c 2,37,-1
 696 1552 l 1,38,-1
 643 1477 l 2,39,40
 608 1430 608 1430 516 1430 c 2,41,-1
 473 1430 l 2,17,18
698 -14 m 128,-1,43
 403 -14 403 -14 244.5 162 c 128,-1,44
 86 338 86 338 86 668 c 128,-1,45
 86 998 86 998 244.5 1175 c 128,-1,46
 403 1352 403 1352 698 1352 c 128,-1,47
 993 1352 993 1352 1151 1175 c 128,-1,48
 1309 998 1309 998 1309 668 c 128,-1,49
 1309 338 1309 338 1151 162 c 128,-1,42
 993 -14 993 -14 698 -14 c 128,-1,43
698 236 m 128,-1,51
 851 236 851 236 929.5 346 c 128,-1,52
 1008 456 1008 456 1008 668 c 128,-1,53
 1008 880 1008 880 929.5 990 c 128,-1,54
 851 1100 851 1100 698 1100 c 128,-1,55
 545 1100 545 1100 466 989.5 c 128,-1,56
 387 879 387 879 387 668 c 128,-1,57
 387 457 387 457 466 346.5 c 128,-1,50
 545 236 545 236 698 236 c 128,-1,51
EndSplineSet
Position2: "'cpsp' Capital Spacing lookup 0 subtable" dx=20 dy=0 dh=41 dv=0
EndChar

StartChar: uni1ED4
Encoding: 7892 7892 113
Width: 1396
VWidth: 1908
GlyphClass: 2
Flags: MW
HStem: -14 250<596 801 596 895> 1100 252<596 801> 1430 279<460 709 473 709 824 839 688 852 688 893> 1708 135<822 981>
VStem: 86 301<527 808 527 888> 971 133<1701 1719> 1008 301<527 808>
AnchorPoint: "Anchor-1" 954 1847 basechar 0
AnchorPoint: "Anchor-0" 700 0 basechar 0
LayerCount: 2
Back
Fore
SplineSet
961 1585 m 0,0,1
 924 1585 924 1585 900.5 1596.5 c 128,-1,2
 877 1608 877 1608 877 1624 c 0,3,4
 877 1630 877 1630 887.5 1639.5 c 128,-1,5
 898 1649 898 1649 911 1655 c 0,6,7
 915 1657 915 1657 923 1660.5 c 128,-1,8
 931 1664 931 1664 934 1665.5 c 128,-1,9
 937 1667 937 1667 943 1670.5 c 128,-1,10
 949 1674 949 1674 951.5 1675.5 c 128,-1,11
 954 1677 954 1677 958 1680.5 c 128,-1,12
 962 1684 962 1684 963.5 1686.5 c 128,-1,13
 965 1689 965 1689 967.5 1692.5 c 128,-1,14
 970 1696 970 1696 970.5 1700 c 128,-1,15
 971 1704 971 1704 971 1708 c 0,16,17
 971 1724 971 1724 959 1732.5 c 128,-1,18
 947 1741 947 1741 932 1741 c 0,19,20
 895 1741 895 1741 863.5 1724.5 c 128,-1,21
 832 1708 832 1708 829 1708 c 0,22,23
 817 1708 817 1708 794.5 1738 c 128,-1,24
 772 1768 772 1768 772 1788 c 128,-1,25
 772 1808 772 1808 823 1825.5 c 128,-1,26
 874 1843 874 1843 926 1843 c 0,27,28
 1008 1843 1008 1843 1056 1808.5 c 128,-1,29
 1104 1774 1104 1774 1104 1716 c 0,30,31
 1104 1667 1104 1667 1053 1626 c 0,32,33
 1000 1585 1000 1585 961 1585 c 0,0,1
473 1430 m 2,34,35
 436 1430 436 1430 436 1448 c 0,36,37
 436 1460 436 1460 446 1477 c 2,38,-1
 571 1671 l 2,39,40
 585 1695 585 1695 611.5 1701.5 c 128,-1,41
 638 1708 638 1708 688 1708 c 2,42,-1
 709 1708 l 2,43,44
 749 1708 749 1708 771 1701.5 c 128,-1,45
 793 1695 793 1695 807 1671 c 2,46,-1
 920 1477 l 2,47,48
 932 1462 932 1462 932 1448 c 0,49,50
 932 1430 932 1430 893 1430 c 2,51,-1
 852 1430 l 2,52,53
 737 1430 737 1430 723 1475 c 2,54,-1
 696 1552 l 1,55,-1
 643 1477 l 2,56,57
 608 1430 608 1430 516 1430 c 2,58,-1
 473 1430 l 2,34,35
698 -14 m 128,-1,60
 403 -14 403 -14 244.5 162 c 128,-1,61
 86 338 86 338 86 668 c 128,-1,62
 86 998 86 998 244.5 1175 c 128,-1,63
 403 1352 403 1352 698 1352 c 128,-1,64
 993 1352 993 1352 1151 1175 c 128,-1,65
 1309 998 1309 998 1309 668 c 128,-1,66
 1309 338 1309 338 1151 162 c 128,-1,59
 993 -14 993 -14 698 -14 c 128,-1,60
698 236 m 128,-1,68
 851 236 851 236 929.5 346 c 128,-1,69
 1008 456 1008 456 1008 668 c 128,-1,70
 1008 880 1008 880 929.5 990 c 128,-1,71
 851 1100 851 1100 698 1100 c 128,-1,72
 545 1100 545 1100 466 989.5 c 128,-1,73
 387 879 387 879 387 668 c 128,-1,74
 387 457 387 457 466 346.5 c 128,-1,67
 545 236 545 236 698 236 c 128,-1,68
EndSplineSet
Position2: "'cpsp' Capital Spacing lookup 0 subtable" dx=20 dy=0 dh=41 dv=0
EndChar

StartChar: uni1ED6
Encoding: 7894 7894 114
Width: 1396
VWidth: 1908
GlyphClass: 2
Flags: MW
HStem: -14 250<596 801 596 895> 1100 252<596 801> 1430 233<460 709 473 709 688 881 688 922> 1724 160<815 822 815 857> 1780 160<556 563>
VStem: 86 301<527 808 527 888> 1008 301<527 808>
AnchorPoint: "Anchor-1" 700 1335 basechar 0
AnchorPoint: "Anchor-0" 700 0 basechar 0
LayerCount: 2
Back
Fore
SplineSet
436 1722 m 1,0,-1
 416 1726 l 1,1,2
 377 1739 377 1739 377 1780 c 0,3,4
 377 1790 377 1790 381 1806 c 0,5,6
 402 1862 402 1862 451.5 1900.5 c 128,-1,7
 501 1939 501 1939 571 1939 c 0,8,9
 603 1939 603 1939 696 1912.5 c 128,-1,10
 789 1886 789 1886 815 1884 c 0,11,12
 849 1884 849 1884 872 1915 c 0,13,14
 896 1948 896 1948 922 1948 c 0,15,16
 930 1948 930 1948 942 1944 c 2,17,-1
 963 1937 l 2,18,19
 1001 1924 1001 1924 1001 1886 c 0,20,21
 1001 1872 1001 1872 997 1860 c 0,22,23
 976 1802 976 1802 926.5 1763 c 128,-1,24
 877 1724 877 1724 807 1724 c 0,25,26
 776 1724 776 1724 683 1751.5 c 128,-1,27
 590 1779 590 1779 563 1780 c 0,28,29
 527 1780 527 1780 506 1751 c 0,30,31
 484 1718 484 1718 457 1718 c 0,32,33
 442 1718 442 1718 436 1722 c 1,0,-1
473 1430 m 2,34,35
 436 1430 436 1430 436 1448 c 0,36,37
 436 1460 436 1460 446 1477 c 2,38,-1
 571 1626 l 2,39,40
 592 1648 592 1648 618 1655.5 c 128,-1,41
 644 1663 644 1663 688 1663 c 2,42,-1
 709 1663 l 2,43,44
 753 1663 753 1663 778.5 1655.5 c 128,-1,45
 804 1648 804 1648 825 1626 c 2,46,-1
 948 1477 l 2,47,48
 961 1461 961 1461 961 1448 c 0,49,50
 961 1430 961 1430 922 1430 c 2,51,-1
 881 1430 l 2,52,53
 844 1430 844 1430 816 1441 c 128,-1,54
 788 1452 788 1452 750 1475 c 1,55,-1
 696 1528 l 1,56,-1
 643 1477 l 2,57,58
 640 1475 640 1475 627.5 1467.5 c 128,-1,59
 615 1460 615 1460 611.5 1458 c 128,-1,60
 608 1456 608 1456 597.5 1450.5 c 128,-1,61
 587 1445 587 1445 582.5 1443.5 c 128,-1,62
 578 1442 578 1442 568.5 1438 c 128,-1,63
 559 1434 559 1434 552 1433 c 128,-1,64
 545 1432 545 1432 535.5 1431 c 128,-1,65
 526 1430 526 1430 516 1430 c 2,66,-1
 473 1430 l 2,34,35
698 -14 m 128,-1,68
 403 -14 403 -14 244.5 162 c 128,-1,69
 86 338 86 338 86 668 c 128,-1,70
 86 998 86 998 244.5 1175 c 128,-1,71
 403 1352 403 1352 698 1352 c 128,-1,72
 993 1352 993 1352 1151 1175 c 128,-1,73
 1309 998 1309 998 1309 668 c 128,-1,74
 1309 338 1309 338 1151 162 c 128,-1,67
 993 -14 993 -14 698 -14 c 128,-1,68
698 236 m 128,-1,76
 851 236 851 236 929.5 346 c 128,-1,77
 1008 456 1008 456 1008 668 c 128,-1,78
 1008 880 1008 880 929.5 990 c 128,-1,79
 851 1100 851 1100 698 1100 c 128,-1,80
 545 1100 545 1100 466 989.5 c 128,-1,81
 387 879 387 879 387 668 c 128,-1,82
 387 457 387 457 466 346.5 c 128,-1,75
 545 236 545 236 698 236 c 128,-1,76
EndSplineSet
Position2: "'cpsp' Capital Spacing lookup 0 subtable" dx=20 dy=0 dh=41 dv=0
EndChar

StartChar: Odieresis
Encoding: 214 214 115
Width: 1396
VWidth: 1908
GlyphClass: 2
Flags: MW
HStem: -14 250<596 801 596 895> 1100 252<596 801> 1442 174<412 566>
VStem: 86 301<527 808 527 888> 412 229<1503 1616 1483 1636> 756 229<1503 1616 1483 1636> 1008 301<527 808>
AnchorPoint: "Anchor-1" 700 1335 basechar 0
AnchorPoint: "Anchor-0" 700 0 basechar 0
LayerCount: 2
Back
Fore
SplineSet
526 1442 m 0,0,1
 412 1442 412 1442 412 1503 c 2,2,-1
 412 1616 l 2,3,4
 412 1677 412 1677 526 1677 c 0,5,6
 641 1677 641 1677 641 1616 c 2,7,-1
 641 1503 l 2,8,9
 641 1442 641 1442 526 1442 c 0,0,1
870 1442 m 0,10,11
 756 1442 756 1442 756 1503 c 2,12,-1
 756 1616 l 2,13,14
 756 1677 756 1677 870 1677 c 0,15,16
 985 1677 985 1677 985 1616 c 2,17,-1
 985 1503 l 2,18,19
 985 1442 985 1442 870 1442 c 0,10,11
698 -14 m 128,-1,21
 403 -14 403 -14 244.5 162 c 128,-1,22
 86 338 86 338 86 668 c 128,-1,23
 86 998 86 998 244.5 1175 c 128,-1,24
 403 1352 403 1352 698 1352 c 128,-1,25
 993 1352 993 1352 1151 1175 c 128,-1,26
 1309 998 1309 998 1309 668 c 128,-1,27
 1309 338 1309 338 1151 162 c 128,-1,20
 993 -14 993 -14 698 -14 c 128,-1,21
698 236 m 128,-1,29
 851 236 851 236 929.5 346 c 128,-1,30
 1008 456 1008 456 1008 668 c 128,-1,31
 1008 880 1008 880 929.5 990 c 128,-1,32
 851 1100 851 1100 698 1100 c 128,-1,33
 545 1100 545 1100 466 989.5 c 128,-1,34
 387 879 387 879 387 668 c 128,-1,35
 387 457 387 457 466 346.5 c 128,-1,28
 545 236 545 236 698 236 c 128,-1,29
EndSplineSet
Position2: "'cpsp' Capital Spacing lookup 0 subtable" dx=20 dy=0 dh=41 dv=0
EndChar

StartChar: uni1ECC
Encoding: 7884 7884 116
Width: 1396
VWidth: 1908
GlyphClass: 2
Flags: MW
HStem: -389 174<590 744> -14 250<596 801 596 895> 1100 252<596 801>
VStem: 86 301<527 808 527 888> 590 229<-328 -215 -348 -195> 1008 301<527 808>
AnchorPoint: "Anchor-1" 700 1335 basechar 0
AnchorPoint: "Anchor-0" 705 -389 basechar 0
LayerCount: 2
Back
Fore
SplineSet
698 -14 m 128,-1,1
 403 -14 403 -14 244.5 162 c 128,-1,2
 86 338 86 338 86 668 c 128,-1,3
 86 998 86 998 244.5 1175 c 128,-1,4
 403 1352 403 1352 698 1352 c 128,-1,5
 993 1352 993 1352 1151 1175 c 128,-1,6
 1309 998 1309 998 1309 668 c 128,-1,7
 1309 338 1309 338 1151 162 c 128,-1,0
 993 -14 993 -14 698 -14 c 128,-1,1
698 236 m 128,-1,9
 851 236 851 236 929.5 346 c 128,-1,10
 1008 456 1008 456 1008 668 c 128,-1,11
 1008 880 1008 880 929.5 990 c 128,-1,12
 851 1100 851 1100 698 1100 c 128,-1,13
 545 1100 545 1100 466 989.5 c 128,-1,14
 387 879 387 879 387 668 c 128,-1,15
 387 457 387 457 466 346.5 c 128,-1,8
 545 236 545 236 698 236 c 128,-1,9
705 -389 m 0,16,17
 590 -389 590 -389 590 -328 c 2,18,-1
 590 -215 l 2,19,20
 590 -154 590 -154 705 -154 c 0,21,22
 819 -154 819 -154 819 -215 c 2,23,-1
 819 -328 l 2,24,25
 819 -389 819 -389 705 -389 c 0,16,17
EndSplineSet
Position2: "'cpsp' Capital Spacing lookup 0 subtable" dx=20 dy=0 dh=41 dv=0
EndChar

StartChar: Ograve
Encoding: 210 210 117
Width: 1396
VWidth: 1908
GlyphClass: 2
Flags: MW
HStem: -14 250<596 801 596 895> 1100 252<596 801> 1436 303<519 808>
VStem: 86 301<527 808 527 888> 1008 301<527 808>
AnchorPoint: "Anchor-1" 700 1335 basechar 0
AnchorPoint: "Anchor-0" 700 0 basechar 0
LayerCount: 2
Back
Fore
SplineSet
784 1436 m 0,0,1
 724 1436 724 1436 693.5 1448.5 c 128,-1,2
 663 1461 663 1461 641 1483 c 0,3,4
 575 1556 575 1556 501 1635 c 0,5,6
 460 1678 460 1678 451 1689.5 c 128,-1,7
 442 1701 442 1701 442 1712 c 0,8,9
 442 1739 442 1739 557 1739 c 0,10,11
 689 1739 689 1739 719 1688 c 0,12,13
 742 1647 742 1647 765.5 1607.5 c 128,-1,14
 789 1568 789 1568 801.5 1547 c 128,-1,15
 814 1526 814 1526 825 1507.5 c 128,-1,16
 836 1489 836 1489 840 1479.5 c 128,-1,17
 844 1470 844 1470 844 1464 c 0,18,19
 844 1449 844 1449 831 1442.5 c 128,-1,20
 818 1436 818 1436 784 1436 c 0,0,1
698 -14 m 128,-1,22
 403 -14 403 -14 244.5 162 c 128,-1,23
 86 338 86 338 86 668 c 128,-1,24
 86 998 86 998 244.5 1175 c 128,-1,25
 403 1352 403 1352 698 1352 c 128,-1,26
 993 1352 993 1352 1151 1175 c 128,-1,27
 1309 998 1309 998 1309 668 c 128,-1,28
 1309 338 1309 338 1151 162 c 128,-1,21
 993 -14 993 -14 698 -14 c 128,-1,22
698 236 m 128,-1,30
 851 236 851 236 929.5 346 c 128,-1,31
 1008 456 1008 456 1008 668 c 128,-1,32
 1008 880 1008 880 929.5 990 c 128,-1,33
 851 1100 851 1100 698 1100 c 128,-1,34
 545 1100 545 1100 466 989.5 c 128,-1,35
 387 879 387 879 387 668 c 128,-1,36
 387 457 387 457 466 346.5 c 128,-1,29
 545 236 545 236 698 236 c 128,-1,30
EndSplineSet
Position2: "'cpsp' Capital Spacing lookup 0 subtable" dx=20 dy=0 dh=41 dv=0
EndChar

StartChar: uni1ECE
Encoding: 7886 7886 118
Width: 1396
VWidth: 1908
GlyphClass: 2
Flags: MW
HStem: -14 250<596 801 596 895> 1100 252<596 801> 1655 117<689 724>
VStem: 86 301<527 808 527 888> 768 168<1585 1627> 1008 301<527 808>
AnchorPoint: "Anchor-1" 700 1675 basechar 0
AnchorPoint: "Anchor-0" 700 0 basechar 0
LayerCount: 2
Back
Fore
SplineSet
743 1425 m 0,0,1
 711 1425 711 1425 676 1441 c 128,-1,2
 641 1457 641 1457 641 1470 c 0,3,4
 641 1481 641 1481 661 1498.5 c 128,-1,5
 681 1516 681 1516 704.5 1533 c 128,-1,6
 728 1550 728 1550 748 1572.5 c 128,-1,7
 768 1595 768 1595 768 1614 c 128,-1,8
 768 1633 768 1633 751 1644 c 128,-1,9
 734 1655 734 1655 709 1655 c 128,-1,10
 684 1655 684 1655 659 1643.5 c 128,-1,11
 634 1632 634 1632 629 1632 c 0,12,13
 616 1632 616 1632 593.5 1661.5 c 128,-1,14
 571 1691 571 1691 571 1712 c 0,15,16
 571 1731 571 1731 622 1751.5 c 128,-1,17
 673 1772 673 1772 723 1772 c 0,18,19
 825 1772 825 1772 880.5 1731.5 c 128,-1,20
 936 1691 936 1691 936 1620 c 0,21,22
 936 1574 936 1574 894.5 1526.5 c 128,-1,23
 853 1479 853 1479 808 1452 c 128,-1,24
 763 1425 763 1425 743 1425 c 0,0,1
698 -14 m 128,-1,26
 403 -14 403 -14 244.5 162 c 128,-1,27
 86 338 86 338 86 668 c 128,-1,28
 86 998 86 998 244.5 1175 c 128,-1,29
 403 1352 403 1352 698 1352 c 128,-1,30
 993 1352 993 1352 1151 1175 c 128,-1,31
 1309 998 1309 998 1309 668 c 128,-1,32
 1309 338 1309 338 1151 162 c 128,-1,25
 993 -14 993 -14 698 -14 c 128,-1,26
698 236 m 128,-1,34
 851 236 851 236 929.5 346 c 128,-1,35
 1008 456 1008 456 1008 668 c 128,-1,36
 1008 880 1008 880 929.5 990 c 128,-1,37
 851 1100 851 1100 698 1100 c 128,-1,38
 545 1100 545 1100 466 989.5 c 128,-1,39
 387 879 387 879 387 668 c 128,-1,40
 387 457 387 457 466 346.5 c 128,-1,33
 545 236 545 236 698 236 c 128,-1,34
EndSplineSet
Position2: "'cpsp' Capital Spacing lookup 0 subtable" dx=20 dy=0 dh=41 dv=0
EndChar

StartChar: Ohorn
Encoding: 416 416 119
Width: 1396
VWidth: 1908
GlyphClass: 2
Flags: MW
HStem: -14 250<596 801 596 895> 1100 252<596 750 502 801> 1229 74
VStem: 86 301<527 808 527 888> 1008 301<527 796 447 808> 1106 152<1357 1393>
AnchorPoint: "Anchor-1" 811 1532 basechar 0
AnchorPoint: "Anchor-0" 700 0 basechar 0
LayerCount: 2
Back
Fore
SplineSet
1096 1229 m 1,0,1
 1309 1053 1309 1053 1309 668 c 0,2,3
 1309 338 1309 338 1151 162 c 128,-1,4
 993 -14 993 -14 698 -14 c 128,-1,5
 403 -14 403 -14 244.5 162 c 128,-1,6
 86 338 86 338 86 668 c 128,-1,7
 86 998 86 998 244.5 1175 c 128,-1,8
 403 1352 403 1352 698 1352 c 0,9,10
 855 1352 855 1352 971 1303 c 1,11,-1
 1016 1303 l 2,12,13
 1064 1303 1064 1303 1085 1320 c 128,-1,14
 1106 1337 1106 1337 1106 1372 c 0,15,16
 1106 1394 1106 1394 1080.5 1427 c 128,-1,17
 1055 1460 1055 1460 1055 1470 c 0,18,19
 1055 1493 1055 1493 1077 1507 c 2,20,-1
 1139 1550 l 2,21,22
 1151 1559 1151 1559 1167 1559 c 0,23,24
 1202 1559 1202 1559 1229.5 1504 c 128,-1,25
 1257 1449 1257 1449 1257 1401 c 0,26,27
 1257 1257 1257 1257 1096 1229 c 1,0,1
698 236 m 128,-1,29
 851 236 851 236 929.5 346 c 128,-1,30
 1008 456 1008 456 1008 668 c 128,-1,31
 1008 880 1008 880 929.5 990 c 128,-1,32
 851 1100 851 1100 698 1100 c 128,-1,33
 545 1100 545 1100 466 989.5 c 128,-1,34
 387 879 387 879 387 668 c 128,-1,35
 387 457 387 457 466 346.5 c 128,-1,28
 545 236 545 236 698 236 c 128,-1,29
EndSplineSet
Position2: "'cpsp' Capital Spacing lookup 0 subtable" dx=20 dy=0 dh=41 dv=0
EndChar

StartChar: uni1EDA
Encoding: 7898 7898 120
Width: 1396
VWidth: 1908
GlyphClass: 2
Flags: MW
HStem: -14 250<596 801 596 895> 1100 252<596 750 502 801> 1229 74 1436 303<600 888>
VStem: 86 301<527 808 527 888> 1008 301<527 796 447 808> 1106 152<1357 1393>
AnchorPoint: "Anchor-1" 811 1532 basechar 0
AnchorPoint: "Anchor-0" 700 0 basechar 0
LayerCount: 2
Back
Fore
SplineSet
623 1436 m 0,0,1
 590 1436 590 1436 576.5 1442.5 c 128,-1,2
 563 1449 563 1449 563 1464 c 0,3,4
 563 1473 563 1473 573.5 1492 c 128,-1,5
 584 1511 584 1511 619 1569.5 c 128,-1,6
 654 1628 654 1628 688 1688 c 0,7,8
 718 1739 718 1739 850 1739 c 0,9,10
 965 1739 965 1739 965 1712 c 0,11,12
 965 1701 965 1701 955 1688 c 128,-1,13
 945 1675 945 1675 897 1624 c 0,14,15
 876 1601 876 1601 862 1586.5 c 128,-1,16
 848 1572 848 1572 820.5 1542.5 c 128,-1,17
 793 1513 793 1513 766 1483 c 0,18,19
 725 1436 725 1436 623 1436 c 0,0,1
1096 1229 m 1,20,21
 1309 1053 1309 1053 1309 668 c 0,22,23
 1309 338 1309 338 1151 162 c 128,-1,24
 993 -14 993 -14 698 -14 c 128,-1,25
 403 -14 403 -14 244.5 162 c 128,-1,26
 86 338 86 338 86 668 c 128,-1,27
 86 998 86 998 244.5 1175 c 128,-1,28
 403 1352 403 1352 698 1352 c 0,29,30
 855 1352 855 1352 971 1303 c 1,31,-1
 1016 1303 l 2,32,33
 1064 1303 1064 1303 1085 1320 c 128,-1,34
 1106 1337 1106 1337 1106 1372 c 0,35,36
 1106 1394 1106 1394 1080.5 1427 c 128,-1,37
 1055 1460 1055 1460 1055 1470 c 0,38,39
 1055 1493 1055 1493 1077 1507 c 2,40,-1
 1139 1550 l 2,41,42
 1151 1559 1151 1559 1167 1559 c 0,43,44
 1202 1559 1202 1559 1229.5 1504 c 128,-1,45
 1257 1449 1257 1449 1257 1401 c 0,46,47
 1257 1257 1257 1257 1096 1229 c 1,20,21
698 236 m 128,-1,49
 851 236 851 236 929.5 346 c 128,-1,50
 1008 456 1008 456 1008 668 c 128,-1,51
 1008 880 1008 880 929.5 990 c 128,-1,52
 851 1100 851 1100 698 1100 c 128,-1,53
 545 1100 545 1100 466 989.5 c 128,-1,54
 387 879 387 879 387 668 c 128,-1,55
 387 457 387 457 466 346.5 c 128,-1,48
 545 236 545 236 698 236 c 128,-1,49
EndSplineSet
Position2: "'cpsp' Capital Spacing lookup 0 subtable" dx=20 dy=0 dh=41 dv=0
EndChar

